<?xml version="1.0" encoding="UTF-8" standalone="no"?>
<!-- Created with Inkscape (http://www.inkscape.org/) -->

<svg
   xmlns:dc="http://purl.org/dc/elements/1.1/"
   xmlns:cc="http://creativecommons.org/ns#"
   xmlns:rdf="http://www.w3.org/1999/02/22-rdf-syntax-ns#"
   xmlns:svg="http://www.w3.org/2000/svg"
   xmlns="http://www.w3.org/2000/svg"
   xmlns:sodipodi="http://sodipodi.sourceforge.net/DTD/sodipodi-0.dtd"
   xmlns:inkscape="http://www.inkscape.org/namespaces/inkscape"
   version="1.0"
   width="1000.7999"
   height="527.51874"
   id="svg2"
   inkscape:version="0.47 r22583"
   sodipodi:docname="ZZ.svg">
  <metadata
     id="metadata10">
    <rdf:RDF>
      <cc:Work
         rdf:about="">
        <dc:format>image/svg+xml</dc:format>
        <dc:type
           rdf:resource="http://purl.org/dc/dcmitype/StillImage" />
      </cc:Work>
    </rdf:RDF>
  </metadata>
  <sodipodi:namedview
     pagecolor="#ffffff"
     bordercolor="#666666"
     borderopacity="1"
     objecttolerance="10"
     gridtolerance="10"
     guidetolerance="10"
     inkscape:pageopacity="0"
     inkscape:pageshadow="2"
     inkscape:window-width="1280"
     inkscape:window-height="1004"
     id="namedview8"
     showgrid="false"
     inkscape:zoom="0.63366196"
     inkscape:cx="426.06567"
     inkscape:cy="91.463549"
     inkscape:window-x="-8"
     inkscape:window-y="-8"
     inkscape:window-maximized="1"
     inkscape:current-layer="g3361" />
  <defs
     id="defs5">
    <inkscape:perspective
       sodipodi:type="inkscape:persp3d"
       inkscape:vp_x="0 : 263.35367 : 1"
       inkscape:vp_y="0 : 1000 : 0"
       inkscape:vp_z="1000.0001 : 263.35367 : 1"
       inkscape:persp3d-origin="500.00006 : 175.56911 : 1"
       id="perspective12" />
  </defs>
  <g
     transform="translate(-905.22505,-299.6625)"
     id="g3361">
    <path
       d="m 1607.7812,301.5625 -0.5312,4.46875 -1.5625,4.1875 2.875,12.0625 -0.7813,3.9375 -1.0624,4.21875 0.5312,3.40625 -0.25,3.125 -1.5938,5 1.0626,3.40625 1.8437,3.40625 -1.5937,3.40625 -1.5626,0 -2.875,-1.5625 -6.8437,-1.0625 -7.625,0 -1.3125,9.71875 -8.125,8.65625 -1.8438,7.09375 0.5,9.1875 -1.8124,6.28125 -3.9376,-0.25 -1.3437,-4.1875 -4.1875,0 -0.7812,-3.15625 -2.375,-1.3125 -2.625,2.09375 -2.625,2.625 -3.4063,-1.5625 -3.4375,-1.59375 -3.125,-3.65625 -5.2812,1.3125 0,5.75 -2.3438,5.25 -3.1562,-0.25 -2.9063,3.40625 -3.9375,4.1875 -3.9375,-2.625 -3.4063,-1.03125 -3.4062,-0.53125 -3.9688,-0.25 -4.1874,-2.375 -16.0313,-0.25 -4.7187,-2.625 -0.2813,-2.09375 -2.625,-2.375 0,-2.375 3.9375,-1.8125 0,-3.15625 -3.6562,-2.375 -3.6876,-5.5 -5.25,-0.53125 -10.25,-8.375 -3.6874,-0.28125 -3.4063,-0.53125 -1.0625,4.21875 -1.0312,2.625 -2.375,2.875 5.5312,4.46875 -2.125,3.125 2.9062,12.875 -3.1562,3.65625 0,4.21875 -4.1875,3.9375 -3.4375,0.53125 -0.5312,6.53125 -1.8126,2.375 -2.375,-1.0625 -3.9374,-2.34375 L 1442,406.25 l -1.0312,-2.09375 -4.2188,-0.28125 -2.3438,-1.8125 -1.8437,0.25 -3.1563,1.0625 -2.0937,-2.09375 -3.4375,-2.375 -3.9375,1.0625 -3.6875,1.5625 -2.625,2.09375 0,2.875 1.3125,3.6875 1.8437,4.71875 -2.625,3.9375 -0.7812,3.15625 0,3.15625 0.25,3.65625 0,3.9375 -0.7812,2.625 -1.0313,2.625 -0.8125,3.15625 -2.625,3.125 -3.6562,3.9375 -3.9688,4.46875 -5.75,4.1875 -3.1562,1.0625 -10.25,0.25 -4.4688,2.125 -2.625,2.34375 -2.9062,0.28125 -1.5626,1.5625 -2.0937,1.3125 -3.9375,0 -3.4375,0.53125 -1.0313,2.625 -2.625,4.4375 -1.3124,2.375 -3.4376,0.78125 -4.1874,0.78125 -4.75,0 -3.1563,1.84375 0,3.40625 -0.5,3.40625 -4.2187,2.125 -1.8438,2.625 0.2812,3.125 -3.6874,-0.5 -2.625,1.3125 1.8437,6.8125 2.625,5.78125 6.5625,3.90625 3.4062,3.15625 1.0626,3.6875 0,3.65625 1.8437,2.375 1.8437,2.09375 4.1876,1.5625 6.0624,8.9375 6.5626,10.5 -4.75,9.96875 -3.9376,4.46875 0.2813,5.75 -2.625,5.53125 1.8125,2.625 8.9375,0 3.9375,-3.4375 5.7812,5.78125 2.125,5.25 3.125,5.78125 -3.4062,3.65625 -0.25,6.84375 -2.625,0 -1.0625,2.625 2.375,2.625 -2.375,3.40625 -0.25,2.875 c 0,0 1.5615,3.15626 2.875,3.15625 1.3136,0 -0.5312,4.4375 -0.5313,4.4375 l -3.4062,1.3125 -1.8438,4.21875 -2.875,-3.6875 -3.6874,2.375 -9.9688,-6.03125 -0.2812,-2.375 -6.3126,-5.5 -4.1874,0 -3.4063,-7.09375 1.8125,-5.78125 3.4375,-0.5 -1.8437,-3.6875 -6.5626,-3.15625 0.25,-4.1875 -4.4687,-2.375 -2.625,0.8125 -5.5,-0.28125 -4.2187,2.09375 -4.4688,-0.25 -4.4688,7.59375 -3.4062,-1.03125 -3.9375,2.875 -8.1563,-6.8125 -2.625,-5.78125 -8.9374,2.375 -5.25,-1.59375 -9.1876,3.15625 -2.0937,-4.96875 2.875,-3.9375 -1.3125,-1.84375 -4.7188,3.6875 -5.5312,3.125 3.4375,8.40625 0.5,9.1875 -5.7813,1.3125 -14.9687,-1.84375 -1.8437,1.3125 -3.4063,-1.3125 -19.6875,5.25 -1.0625,4.1875 -8.6563,-1.5625 -13.9374,1.3125 -4.7188,-1.84375 -6.0625,5.25 0,7.09375 -3.6563,4.1875 -8.6874,1.0625 -7.875,-1.84375 -6.8438,8.40625 3.1562,0.78125 -0.7812,3.9375 -7.625,-0.28125 -6.0312,5.53125 -0.7813,3.125 -3.9375,3.15625 -4.4688,-0.78125 2.875,-4.71875 -2.625,-2.09375 -3.6874,0.78125 -5.5,1.5625 -6.3126,6.8125 -7.625,-0.78125 -5.7812,1.59375 -6.0312,-3.40625 2.625,-3.6875 -9.1876,-11.8125 -5.5312,0.53125 -1.5625,-2.875 5.7813,-3.9375 -4.75,-4.21875 -9.1876,3.6875 -5.25,0 -1.0624,-3.40625 -5.25,0.25 -3.6563,-4.46875 -7.375,0.28125 L 1049,613 l -4.2188,3.9375 -0.25,3.15625 -7.0937,0 -5.5313,-3.6875 1.0626,-3.40625 -0.2813,-2.34375 -7.0937,2.09375 3.4374,4.1875 -2.625,3.9375 1.8438,3.40625 -1.5938,3.15625 4.7188,2.625 1.3125,10.21875 -5.75,7.09375 -0.5313,3.9375 -2.625,-0.25 -3.6874,3.9375 1.3124,1.8125 -7.625,9.71875 -3.6874,0 -3.6563,3.6875 -5.7813,2.34375 -3.93745,-0.78125 -4.1875,1.8125 -0.0312,0.0312 0,-2.90625 1.84375,-2.34375 3.40625,-0.78125 1.0625,-2.625 -1.0625,-4.46875 3.15615,-5.78125 -1.3124,-4.1875 -5.78125,-1.59375 -3.40625,4.46875 -5,-0.78125 -2.875,3.15625 -0.53125,-7.625 -2.90625,-2.34375 4.46875,-2.90625 -0.78125,-4.96875 -2.09375,-2.90625 -3.9375,-1.3125 0,-3.90625 -2.09375,0 -3.6875,2.59375 -1.3125,-1.8125 0,-4.46875 -4.21875,-2.875 -1.5625,-3.9375 -6.03125,2.875 -2.90625,-3.6875 -3.15625,2.625 -5.25,-3.125 0.25,-5 -2.34375,-2.875 -5.78125,0.25 -2.375,5.53125 -3.15625,5.75 -14.1875,0.78125 -5.78125,-0.5 -1.8125,6.03125 1.3125,2.625 3.9375,4.71875 7.34375,2.34375 -1.5625,6.3125 3.9375,4.71875 0,4.46875 -4.46875,1.5625 -3.6875,0.53125 -3.40625,7.875 -3.9375,4.71875 -3.6875,6.28125 4.71875,4.46875 L 910,681.5 l 3.6875,4.1875 -0.53125,7.34375 2.375,2.375 3.6875,4.4375 L 920,703.25 l 0.25,5 -2.625,7.09375 4.75,0.78125 4.46875,-1.0625 10.5,5.25 4.1875,0 5,2.90625 5.78125,0.25 3.40625,5.25 -2.09375,3.9375 0,2.34375 0.25,5.25 3.15625,0.53125 3.15625,5 5.78125,-0.53125 2.625,2.09375 2.90625,0 5.78125,5 0.25,2.34375 4.21875,0.25 3.40625,2.78125 6.3125,0.125 4.71875,-3.6875 5.5,-1.5625 0.2813,-5.25 1.5624,-5.5 7.0938,1.3125 2.125,-0.8125 -0.8125,-3.125 3.1563,-2.625 2.9062,-7.875 2.0938,0.25 2.375,-0.78125 6.0312,3.9375 0.7812,3.40625 6.8438,5.5 -3.1562,8.15625 0.7812,2.875 5.25,3.6875 8.9375,0.5 7.875,-3.90625 7.375,0.25 3.9375,3.9375 6.0312,1.5625 0.7813,3.15625 -3.6563,4.71875 3.4063,0.78125 3.9375,-1.8125 2.625,3.125 5.7812,0.53125 3.9376,2.625 10,-2.375 8.125,1.84375 1.5937,-5.75 4.9687,-4.46875 0,-7.625 3.4376,-3.40625 -0.8126,-6.8125 10.5313,-12.34375 9.7187,-0.78125 10.25,-3.40625 6.0313,1.03125 3.4063,2.375 5.25,-1.3125 5.7812,-7.59375 3.1562,0 4.4688,3.9375 10,-4.21875 13.375,3.9375 2.9062,2.875 5,0 0.5,-3.40625 7.9063,-0.78125 15.5,-8.90625 15.2187,-3.9375 4.2188,-4.71875 13.125,-2.90625 4.2188,3.40625 -4.75,9.1875 -8.4063,2.09375 0,9.71875 3.9375,5.78125 0.5312,3.9375 7.875,4.96875 5.5313,-0.53125 1.8437,1.84375 4.4688,8.15625 -2.125,10.21875 5.2812,2.09375 c 0,0 4.1993,-0.51243 5.25,-0.25 1.0509,0.26237 3.4064,10.75 3.4063,10.75 l 5.7813,3.40625 18.375,8.40625 6.3124,0.78125 12.625,0.78125 8.125,-0.25 2.625,1.3125 11.3126,6.03125 13.4062,-0.28125 14.4375,0.8125 12.0937,0.78125 11.2813,5.78125 10.5313,-0.53125 11.5312,-4.46875 4.75,3.15625 7.3438,-2.375 3.9374,3.15625 4.2188,-1.0625 4.1875,3.9375 4.4687,-2.625 13.6563,5 11.5625,1.0625 6.3125,-3.6875 8.9375,-0.25 9.7188,6.53125 7.875,-0.5 8.6874,1.03125 5.75,8.40625 8.9376,-1.3125 8.4062,-1.3125 3.6875,1.84375 5.25,-1.84375 9.7187,-2.09375 3.1563,3.40625 3.1563,2.09375 3.6874,1.59375 2.3438,-2.375 7.625,7.09375 2.375,-3.9375 0,-6.84375 9.9688,-2.875 2.375,-3.9375 3.4062,-0.53125 2.9062,-7.0625 10.75,-2.375 5.7813,-20.71875 7.625,-0.78125 3.1563,-4.46875 5.25,5.5 1.5937,-2.625 2.875,-5.78125 9.1875,-2.09375 10.25,-1.8125 5.5312,2.09375 11.0313,-1.0625 13.125,-1.84375 5,0 2.625,2.625 3.4063,3.15625 6.0624,-0.78125 4.1876,-3.40625 0,-3.9375 0,-3.40625 7.3437,-3.15625 4.2187,1.5625 0.7813,-1.84375 1.5937,-4.71875 3.6563,0 3.1563,1.84375 2.625,0 4.4687,-1.03125 5.5313,-3.9375 7.875,-2.125 14.4374,5.78125 2.625,-1.03125 5.5313,7.0625 2.375,0 0,-6.8125 -2.375,-2.09375 -0.5313,-3.15625 -3.1562,-0.53125 -2.3438,-3.65625 -0.8124,-6.84375 0,-7.59375 -2.0938,-3.40625 4.2188,-1.0625 4.1874,-2.875 5,-3.9375 5,-1.3125 4.9688,-7.625 2.625,-3.40625 1.0625,-4.1875 4.7187,-0.53125 1.0626,-2.34375 1.0624,-3.4375 2.625,-2.625 1.0313,-3.125 0.5313,-3.15625 1.8437,1.5625 2.0937,0 4.4688,-1.8125 3.4062,1.03125 3.1563,-1.84375 3.9375,2.375 2.375,-1.84375 2.0938,0.53125 5,-0.25 1.3124,-1.3125 -1.3124,-1.84375 -3.6876,-1.0625 -4.4687,0 0.8125,-2.875 6.5625,-2.90625 1.8437,-3.65625 -3.9374,0 -2.9063,-5 2.375,-2.625 2.0937,-2.34375 1.5626,-1.0625 1.3124,-2.875 -1.8124,-2.375 -3.4376,0.28125 -4.7187,3.40625 -1.3125,-4.71875 1.5625,-2.09375 -1.5625,-2.90625 -2.0938,0 -1.8437,-3.9375 1.8437,-2.875 0.25,-7.875 -0.25,-4.96875 2.0938,-3.6875 -0.25,-6.5625 -3.6875,-0.78125 0.7813,-7.34375 -1.5626,-5 1.3126,-2.625 2.3437,0 3.6875,3.6875 3.1562,-3.6875 6.0313,-0.25 8.6875,-8.125 3.1562,-3.9375 -1.3124,-3.40625 -1.0626,-3.9375 3.6876,-1.59375 2.875,-2.34375 -0.25,-4.46875 -5.7813,-3.6875 -0.5313,-7.34375 -5.25,-4.4375 -4.4687,1.8125 -10.25,-3.9375 -3.6875,1.3125 -9.1875,-3.65625 2.625,-3.9375 3.4063,0 2.6562,-4.46875 6.2812,-3.40625 -1.8437,-4.71875 1.3125,-2.875 5.7812,0 4.2188,-2.125 4.1875,3.15625 4.4687,-0.25 0.8126,1.84375 2.3437,0 2.0937,1.28125 1.5938,4.21875 3.4062,1.84375 9.7188,2.625 3.1562,-9.1875 3.1563,4.96875 18.6563,-5.5 7.625,-0.25 -3.1563,-5.25 0.25,-7.875 -2.875,-3.15625 -0.2813,-2.375 1.3126,-2.875 -1.5626,-2.875 -6.5624,-4.71875 0,-1.59375 6.0312,-1.3125 4.4688,-5.25 -0.5313,-8.125 1.3125,-4.46875 -1.0312,-2.875 6.0312,-8.65625 -2.0938,-2.625 -7.625,-0.28125 -1.3124,-6.03125 -0.25,-6.03125 -0.8126,-3.9375 -3.4062,-4.1875 -2.375,0 -3.1562,-1.0625 -3.4063,-3.65625 -2.875,-0.53125 -1.5937,-5.5 -1.0313,-3.9375 -1.5937,-4.21875 0,-6.03125 -3.9376,-1.03125 -1.0624,-1.59375 -2.875,-3.65625 -1.0626,-4.71875 -6.8124,-3.6875 -1.5938,-4.71875 1.8438,-2.375 -0.25,-13.375 L 1860,385 l 3.1562,-5.78125 3.6563,-6.28125 -2.625,-7.34375 0,-3.9375 -1.3125,-4.46875 -4.4688,-14.15625 -3.9374,-4.75 -5.5,3.15625 -7.625,0 -3.6876,-4.1875 -5.7812,-0.78125 -0.7812,2.34375 -2.625,1.3125 -1.0626,-3.40625 0,-4.46875 -3.9374,-3.65625 -5.5,2.625 -9.7188,-5.25 -3.9688,2.625 -5.25,-1.3125 -4.1874,11.8125 -5.7813,4.1875 -2.375,-2.09375 -2.375,0 -2.0937,3.15625 -1.8438,-1.84375 -1.3125,0 -8.6563,0.78125 -9.4687,-1.84375 -2.625,2.09375 -5.7813,0 -18.125,-10.21875 -2.625,-4.1875 -14.7187,-7.625 -7.0937,0 -0.5,1.84375 -1.3438,2.625 -9.4375,-0.78125 -1.3125,-1.84375 -3.1562,-2.09375 -4.4688,-2.375 -6.5625,-0.78125 -7.625,-1.5625 -5,-6.84375 -6.2813,0 -10.25,-4.96875 -4.75,1.84375 -4.1874,-2.90625 -1.8438,8.125 -6.0312,-0.25 -3.9376,3.15625 -3.9687,-0.53125 2.6563,-4.71875 -3.4376,-5.25 -9.1874,0 -2.0938,-2.09375 -9.4688,-0.53125 z"
       style="fill:#cc0c0a;fill-opacity:1;stroke:#cc0c0a;stroke-width:3.79999995;stroke-linejoin:round;stroke-miterlimit:4;stroke-opacity:1;stroke-dasharray:none"
       id="rect2371" />
    <path
       d="m 1401.0938,452.3125 -0.3438,0.375 -5.75,4.1875 -3.1562,1.0625 -10.25,0.25 -4.4688,2.125 -2.625,2.34375 -2.9062,0.28125 -1.5626,1.5625 -2.0937,1.3125 -3.9375,0 -3.4375,0.53125 -1.0313,2.625 -2.625,4.4375 -1.3124,2.375 -3.4376,0.78125 -4.1874,0.78125 -4.75,0 -3.1563,1.84375 0,3.40625 -0.5,3.40625 -4.2187,2.125 -1.8438,2.625 0.2812,3.125 -3.6874,-0.5 -2.625,1.3125 1.8437,6.8125 2.625,5.78125 6.5625,3.90625 3.4062,3.15625 1.0626,3.6875 0,3.65625 1.8437,2.375 1.8437,2.09375 4.1876,1.5625 6.0624,8.9375 6.5626,10.5 -4.75,9.96875 -3.9376,4.46875 0.2813,5.75 -2.625,5.53125 1.8125,2.625 8.9375,0 3.9375,-3.4375 5.7812,5.78125 2.125,5.25 3.125,5.78125 -3.4062,3.65625 -0.25,6.84375 -2.625,0 -1.0625,2.625 2.375,2.625 -2.375,3.40625 -0.25,2.875 c 0,0 1.5615,3.15626 2.875,3.15625 1.3136,0 -0.5312,4.4375 -0.5313,4.4375 l -3.4062,1.3125 -1.8438,4.21875 -2.875,-3.6875 -3.6874,2.375 -9.9688,-6.03125 -0.2812,-2.375 -6.3126,-5.5 -4.1874,0 -3.4063,-7.09375 1.8125,-5.78125 3.4375,-0.5 -1.8437,-3.6875 -6.5626,-3.15625 0.25,-4.1875 -4.4687,-2.375 -2.625,0.8125 -5.5,-0.28125 -4.2187,2.09375 -4.4688,-0.25 -4.4688,7.59375 -3.4062,-1.03125 -3.9375,2.875 -8.1563,-6.8125 -2.625,-5.78125 -8.9374,2.375 -5.25,-1.59375 -9.1876,3.15625 -2.0937,-4.96875 2.875,-3.9375 -1.3125,-1.84375 -4.7188,3.6875 -5.5312,3.125 3.4375,8.40625 0.5,9.1875 -5.7813,1.3125 -14.9687,-1.84375 -1.8437,1.3125 -3.4063,-1.3125 -19.6875,5.25 -1.0625,4.1875 -8.6563,-1.5625 -13.9374,1.3125 -4.7188,-1.84375 -6.0625,5.25 0,7.09375 -3.6563,4.1875 -8.6874,1.0625 -7.875,-1.84375 -6.8438,8.40625 3.1562,0.78125 -0.7812,3.9375 -7.625,-0.28125 -6.0312,5.53125 -0.7813,3.125 -3.9375,3.15625 -4.4688,-0.78125 2.875,-4.71875 -2.625,-2.09375 -3.6874,0.78125 -5.5,1.5625 -6.3126,6.8125 -7.625,-0.78125 -5.7812,1.59375 -6.0312,-3.40625 2.625,-3.6875 -9.1876,-11.8125 -5.5312,0.53125 -1.5625,-2.875 5.7813,-3.9375 -4.75,-4.21875 -9.1876,3.6875 -5.25,0 -1.0624,-3.40625 -5.25,0.25 -3.6563,-4.46875 -7.375,0.28125 L 1049,613 l -4.2188,3.9375 -0.25,3.15625 -7.0937,0 -5.5313,-3.6875 1.0626,-3.40625 -0.2813,-2.34375 -7.0937,2.09375 3.4374,4.1875 -2.625,3.9375 1.8438,3.40625 -1.5938,3.15625 4.7188,2.625 1.3125,10.21875 -5.75,7.09375 -0.5313,3.9375 -2.625,-0.25 -3.6874,3.9375 1.3124,1.8125 -7.625,9.71875 -3.6874,0 -3.6563,3.6875 -5.7813,2.34375 -3.93745,-0.78125 -4.1875,1.8125 -0.0312,0.0312 0,-2.90625 1.84375,-2.34375 3.40625,-0.78125 1.0625,-2.625 -1.0625,-4.46875 3.15615,-5.78125 -1.3124,-4.1875 -5.78125,-1.59375 -3.40625,4.46875 -5,-0.78125 -2.875,3.15625 -0.53125,-7.625 -2.90625,-2.34375 4.46875,-2.90625 -0.78125,-4.96875 -2.09375,-2.90625 -3.9375,-1.3125 0,-3.90625 -2.09375,0 -3.6875,2.59375 -1.3125,-1.8125 0,-4.46875 -4.21875,-2.875 -1.5625,-3.9375 -6.03125,2.875 -2.90625,-3.6875 -3.15625,2.625 -5.25,-3.125 0.25,-5 -2.34375,-2.875 -5.78125,0.25 -2.375,5.53125 -3.15625,5.75 -14.1875,0.78125 -5.78125,-0.5 -1.8125,6.03125 1.3125,2.625 3.9375,4.71875 7.34375,2.34375 -1.5625,6.3125 3.9375,4.71875 0,4.46875 -4.46875,1.5625 -3.6875,0.53125 -3.40625,7.875 -3.9375,4.71875 -3.6875,6.28125 0.4375,0.40625 924.12495,0 3.875,-1.71875 1.8437,-3.65625 -3.9374,0 -2.9063,-5 2.375,-2.625 2.0937,-2.34375 1.5626,-1.0625 1.3124,-2.875 -1.8124,-2.375 -3.4376,0.28125 -4.7187,3.40625 -1.3125,-4.71875 1.5625,-2.09375 -1.5625,-2.90625 -2.0938,0 -1.8437,-3.9375 1.8437,-2.875 0.25,-7.875 -0.25,-4.96875 2.0938,-3.6875 -0.25,-6.5625 -3.6875,-0.78125 0.7813,-7.34375 -1.5626,-5 1.3126,-2.625 2.3437,0 3.6875,3.6875 3.1562,-3.6875 6.0313,-0.25 8.6875,-8.125 3.1562,-3.9375 -1.3124,-3.40625 -1.0626,-3.9375 3.6876,-1.59375 2.875,-2.34375 -0.25,-4.46875 -5.7813,-3.6875 -0.5313,-7.34375 -5.25,-4.4375 -4.4687,1.8125 -10.25,-3.9375 -3.6875,1.3125 -9.1875,-3.65625 2.625,-3.9375 3.4063,0 2.6562,-4.46875 6.2812,-3.40625 -1.8437,-4.71875 1.3125,-2.875 5.7812,0 4.2188,-2.125 4.1875,3.15625 4.4687,-0.25 0.8126,1.84375 2.3437,0 2.0937,1.28125 1.5938,4.21875 3.4062,1.84375 9.7188,2.625 3.1562,-9.1875 3.1563,4.96875 18.6563,-5.5 7.625,-0.25 -3.1563,-5.25 0.25,-7.875 -2.875,-3.15625 -0.2813,-2.375 1.3126,-2.875 -1.5626,-2.875 -6.5624,-4.71875 0,-1.59375 6.0312,-1.3125 4.4688,-5.25 -0.5313,-8.125 1.3125,-4.46875 -1.0312,-2.875 6.0312,-8.65625 -2.0938,-2.625 -7.625,-0.28125 -1.3124,-6.03125 -0.25,-6.03125 -0.8126,-3.9375 -3.0624,-3.78125 -487.875,0 z"
       style="fill:#ffffff"
       id="rect2373" />
    <path
       d="m 992.54366,673.59922 4.1671,-1.82077 3.94074,0.78714 5.7797,-2.36141 3.678,-3.67329 3.678,0 7.6187,-9.70801 -1.3136,-1.83665 3.678,-3.93567 2.6271,0.26237 0.5255,-3.93567 5.7797,-7.08422 -1.3136,-10.23276 -4.7288,-2.62379 1.5762,-3.14854 -1.839,-3.41091 2.6272,-3.93568 -3.4153,-4.19806 7.0933,-2.09902 0.2627,2.3614 -1.0509,3.41092 5.517,3.6733 7.0933,0 0.2627,-3.14854 4.2035,-3.93568 4.2034,2.36141 7.356,-0.26238 3.678,4.46043 5.2543,-0.26238 1.0508,3.41093 5.2543,0 9.195,-3.6733 4.7288,4.19805 -5.7797,3.93568 1.5763,2.88616 5.517,-0.52475 9.195,11.80702 -2.6271,3.6733 6.0424,3.41092 5.7797,-1.57427 7.6187,0.78713 6.3051,-6.82183 5.517,-1.57428 3.678,-0.78713 2.6272,2.09903 -2.8899,4.72281 4.4662,0.78714 3.9407,-3.14855 0.7881,-3.14854 6.0424,-5.50995 7.6187,0.26239 0.7882,-3.93568 -3.1526,-0.78714 6.8306,-8.39611 7.8814,1.83665 8.6696,-1.04951 3.678,-4.19806 0,-7.08422 6.0424,-5.24756 4.7289,1.83665 13.9238,-1.31189 8.6696,1.57426 1.0508,-4.19805 19.7036,-5.24757 3.4153,1.31189 1.839,-1.31189 14.9747,1.83665 5.7797,-1.31189 -0.5255,-9.18325 -3.4152,-8.39611 5.517,-3.14854 4.7288,-3.6733 1.3136,1.83665 -2.8899,3.93568 2.1017,4.98519 9.195,-3.14855 5.2543,1.57428 8.9323,-2.36141 2.6271,5.77233 8.1442,6.82184 3.9407,-2.88617 3.4153,1.04952 4.4661,-7.60898 4.4661,0.26238 4.2035,-2.09903 5.517,0.26239 2.6271,-0.78715 4.4662,2.36141 -0.2628,4.19806 6.5679,3.14854 1.839,3.67329 -3.4153,0.52476 -1.839,5.77233 3.4153,7.08422 4.2034,0 6.3052,5.50994 0.2627,2.36141 9.9831,6.03471 3.678,-2.36141 2.8899,3.6733 1.839,-4.19806 3.4153,-1.31189 c 0,0 1.839,-4.46044 0.5254,-4.46044 -1.3136,0 -2.8899,-3.14854 -2.8899,-3.14854 l 0.2627,-2.88616 2.3645,-3.41092 -2.3645,-2.62378 1.0509,-2.62379 2.6271,0 0.2628,-6.82184 3.4152,-3.67329 -3.1525,-5.77233 -2.1017,-5.24756 -5.7798,-5.77234 -3.9407,3.41093 -8.9323,0 -1.839,-2.62379 2.6272,-5.50994 -0.2627,-5.77233 3.9407,-4.46043 4.7288,-9.97038 -6.5678,-10.49514 -6.0424,-8.92087 -4.2035,-1.57427 -1.839,-2.09903 -1.839,-2.36141 0,-3.67329 -1.0508,-3.6733 -3.4153,-3.14854 -6.5679,-3.93568 -2.6271,-5.77232 -1.839,-6.82184 2.6271,-1.3119 3.678,0.52476 -0.2627,-3.14853 1.839,-2.62379 4.2035,-2.09903 0.5254,-3.41092 0,-3.41092 3.1525,-1.83665 4.7289,0 4.2034,-0.78713 3.4153,-0.78713 1.3136,-2.36141 2.6271,-4.46044 1.0509,-2.62378 3.4153,-0.52476 3.9407,0 2.1017,-1.31189 1.5763,-1.57427 2.8898,-0.26238 2.6272,-2.36141 4.4661,-2.09902 10.2458,-0.26238 3.1526,-1.04951 5.7797,-4.19806 3.9407,-4.46043 3.6781,-3.93568 2.6271,-3.14854 0.7881,-3.14854 1.0509,-2.62378 0.7881,-2.62379 0,-3.93568 -0.2627,-3.6733 0,-3.14854 0.7882,-3.14854 2.6271,-3.93567 -1.839,-4.72282 -1.3136,-3.67329 0,-2.88617 2.6272,-2.09902 3.678,-1.57428 3.9407,-1.04951 3.4152,2.3614 2.1018,2.09904 3.1526,-1.04952 1.8389,-0.26237 2.3645,1.83664 4.2034,0.26238 1.0508,2.09903 1.5763,1.83665 3.9407,2.3614 2.3645,1.04952 1.839,-2.36141 0.5254,-6.55946 3.4153,-0.52475 4.2034,-3.93568 0,-4.19806 3.1526,-3.6733 -2.8899,-12.85654 2.1018,-3.14854 -5.5171,-4.46043 2.3645,-2.88617 1.0508,-2.62378 1.0509,-4.19806 3.4153,0.52476 3.6779,0.26238 10.2459,8.39611 5.2543,0.52476 3.678,5.50995 3.678,2.3614 0,3.14854 -3.9407,1.83665 0,2.36141 2.6271,2.3614 0.2627,2.09903 4.7289,2.62378 16.0255,0.26238 4.2034,2.36141 3.9408,0.26237 3.4152,0.52476 3.4153,1.04952 3.9408,2.62378 3.9407,-4.19806 2.8898,-3.41091 3.1526,0.26237 2.3645,-5.24756 0,-5.77233 5.2542,-1.31189 3.1526,3.6733 3.4152,1.57426 3.4153,1.57428 2.6272,-2.62379 2.6271,-2.09902 2.3645,1.31189 0.7881,3.14854 4.2034,0 1.3136,4.19805 3.9407,0.26238 1.839,-6.29708 -0.5254,-9.18325 1.839,-7.08421 8.1441,-8.65849 1.3135,-9.708 7.6188,0 6.8305,1.04951 2.8899,1.57427 1.5763,0 1.5763,-3.41092 -1.839,-3.41092 -1.0509,-3.41091 1.5763,-4.98519 0.2627,-3.14855 -0.5254,-3.41092 1.0508,-4.19805 0.7882,-3.93568 -2.8899,-12.06941 1.5763,-4.19805 0.5254,-4.46043 9.4577,0.52475 2.1018,2.09903 9.1949,0 3.4153,5.24757 -2.6271,4.72281 3.9407,0.52475 3.9407,-3.14853 6.0424,0.26237 1.8391,-8.13373 4.2034,2.88617 4.7288,-1.83666 10.2459,4.98519 6.3052,0 4.9915,6.82185 7.6187,1.57426 6.5678,0.78714 4.4662,2.36141 3.1526,2.09902 1.3135,1.83665 9.4578,0.78714 1.3135,-2.62379 0.5255,-1.83664 7.0933,0 14.7119,7.60897 2.6271,4.19806 18.1273,10.23275 5.7797,0 2.6271,-2.09902 9.4578,1.83665 8.6695,-0.78714 1.3136,0 1.839,1.83665 2.1017,-3.14854 2.3645,0 2.3644,2.09903 5.7797,-4.19806 4.2034,-11.80703 5.2543,1.31189 3.9407,-2.62378 9.7204,5.24757 5.517,-2.62379 3.9407,3.6733 0,4.46043 1.0509,3.41092 2.6271,-1.31189 0.7882,-2.3614 5.7797,0.78713 3.678,4.19806 7.6187,0 5.517,-3.14854 3.9407,4.7228 4.4661,14.16844 1.3136,4.46044 0,3.93567 2.6272,7.3466 -3.6781,6.29708 -3.1525,5.77233 -3.1526,6.82183 0.2627,13.3813 -1.839,2.36141 1.5763,4.72281 6.8306,3.6733 1.0508,4.72281 2.8899,3.6733 1.0509,1.57427 3.9407,1.04951 0,6.03471 1.5763,4.19805 1.0508,3.93568 1.5763,5.50994 2.8899,0.52476 3.4153,3.6733 3.1525,1.04952 2.3645,0 3.4152,4.19805 0.7882,3.93568 0.2626,6.0347 1.3136,6.03471 7.6187,0.26237 2.1018,2.62378 -6.0425,8.65849 1.0509,2.88617 -1.3136,4.46043 0.5254,8.13374 -4.4661,5.24756 -6.0424,1.31189 0,1.57427 6.5678,4.72281 1.5763,2.88617 -1.3136,2.88616 0.2627,2.36141 2.8899,3.14854 -0.2627,7.87135 3.1526,5.24757 -7.6188,0.26238 -18.6526,5.50995 -3.1526,-4.9852 -3.1526,9.18325 -9.7204,-2.62379 -3.4153,-1.83664 -1.5763,-4.19806 -2.1017,-1.31189 -2.3644,0 -0.7882,-1.83665 -4.466,0.26238 -4.2035,-3.14855 -4.2035,2.09904 -5.7796,0 -1.3136,2.88616 1.839,4.72281 -6.3052,3.41092 -2.6271,4.46043 -3.4153,0 -2.6271,3.93568 9.195,3.6733 3.678,-1.3119 10.2458,3.93569 4.4661,-1.83666 5.2544,4.46044 0.5253,7.3466 5.7797,3.67329 0.2628,4.46043 -2.8899,2.36141 -3.6779,1.57427 1.0508,3.93568 1.3136,3.41092 -3.1526,3.93568 -8.6696,8.13372 -6.0424,0.26239 -3.1526,3.67329 -3.678,-3.67329 -2.3644,0 -1.3136,2.62378 1.5763,4.98519 -0.7881,7.3466 3.678,0.78713 0.2627,6.55946 -2.1017,3.6733 0.2627,4.98519 -0.2627,7.87135 -1.839,2.88616 1.839,3.93568 2.1017,0 1.5763,2.88616 -1.5763,2.09903 1.3136,4.72282 4.7288,-3.41093 3.4153,-0.26237 1.839,2.3614 -1.3135,2.88616 -1.5763,1.04952 -2.1018,2.36141 -2.3644,2.62378 2.8899,4.98518 3.9407,0 -1.839,3.6733 -6.5679,2.88617 -0.7881,2.88616 4.4661,0 3.678,1.04951 1.3136,1.83665 -1.3136,1.31189 -4.9916,0.26238 -2.1017,-0.52475 -2.3644,1.83665 -3.9407,-2.36141 -3.1526,1.83665 -3.4153,-1.04952 -4.4661,1.83665 -2.1017,0 -1.839,-1.57427 -0.5255,3.14855 -1.0508,3.14854 -2.6271,2.62378 -1.0509,3.41092 -1.0509,2.36141 -4.7288,0.52475 -1.0509,4.19805 -2.6271,3.41093 -4.9916,7.60897 -4.9915,1.31189 -4.9916,3.93568 -4.2034,2.88615 -4.2035,1.04954 2.1017,3.41092 0,7.60896 0.7882,6.82185 2.3644,3.6733 3.1526,0.52474 0.5254,3.14855 2.3645,2.09902 0,6.82185 -2.3645,0 -5.517,-7.08422 -2.6271,1.04953 -14.4492,-5.77236 -7.8815,2.09907 -5.517,3.93566 -4.4661,1.04949 -2.6272,0 -3.1526,-1.83665 -3.678,0 -1.5763,4.72283 -0.7881,1.83665 -4.2034,-1.57428 -7.356,3.14855 0,3.41093 0,3.93566 -4.2034,3.41093 -6.0424,0.78711 -3.4153,-3.1485 -2.6272,-2.62381 -4.9915,0 -13.1358,1.83665 -11.034,1.04953 -5.5169,-2.09902 -10.2459,1.83665 -9.195,2.09902 -2.8899,5.77231 -1.5763,2.62376 -5.2542,-5.50994 -3.1526,4.46045 -7.6187,0.78712 -5.7797,20.72791 -10.7713,2.36139 -2.8898,7.08422 -3.4153,0.52479 -2.3644,3.93567 -9.9831,2.88613 0,6.82185 -2.3645,3.93566 -7.6187,-7.08422 -2.3644,2.36144 -3.678,-1.57427 -3.1526,-2.09902 -3.1526,-3.41092 -9.7204,2.09901 -5.2543,1.83665 -3.6779,-1.83665 -8.4069,1.31191 -8.9323,1.31185 -5.7797,-8.39607 -8.6696,-1.04953 -7.8814,0.52474 -9.7204,-6.55943 -8.9323,0.26238 -6.3051,3.67329 -11.5595,-1.04954 -13.6611,-4.98514 -4.4661,2.62375 -4.2034,-3.93566 -4.2035,1.04948 -3.9407,-3.1485 -7.356,2.36139 -4.7289,-3.14855 -11.5594,4.46046 -10.5085,0.52474 -11.2968,-5.77231 -12.0848,-0.78717 -14.4492,-0.78711 -13.3985,0.26237 -11.2967,-6.03468 -2.6271,-1.31191 -8.1442,0.26237 -12.6102,-0.78711 -6.3052,-0.78716 -18.39,-8.39613 -5.7797,-3.41087 c 0,0 -2.3644,-10.49515 -3.4153,-10.75752 -1.0508,-0.26242 -5.2542,0.26237 -5.2542,0.26237 l -5.2543,-2.09907 2.1017,-10.23272 -4.4662,-8.13375 -1.8389,-1.83665 -5.517,0.52474 -7.8815,-4.98514 -0.5254,-3.93572 -3.9407,-5.77232 0,-9.70799 8.4068,-2.09903 4.7289,-9.18324 -4.2034,-3.41093 -13.1357,2.88617 -4.2035,4.72281 -15.2374,3.93568 -15.5001,8.92087 -7.8814,0.78711 -0.5255,3.41092 -4.9915,0 -2.8899,-2.88612 -13.3984,-3.93572 -9.9831,4.19809 -4.4662,-3.93567 -3.1525,0 -5.7798,7.60896 -5.2542,1.31191 -3.4153,-2.36145 -6.0424,-1.04948 -10.2459,3.41093 -9.7204,0.78711 -10.5086,12.33179 0.7882,6.82185 -3.4153,3.41092 0,7.60896 -4.9916,4.46046 -1.5763,5.77231 -8.1441,-1.83664 -9.9831,2.36138 -3.9408,-2.62375 -5.7797,-0.5248 -2.6271,-3.1485 -3.9407,1.83665 -3.4153,-0.78716 3.678,-4.72284 -0.7882,-3.1485 -6.0424,-1.57427 -3.9407,-3.93567 -7.356,-0.26242 -7.8814,3.93572 -8.9323,-0.5248 -5.2543,-3.67329 -0.7881,-2.88613 3.1526,-8.13376 -6.8306,-5.50994 -0.7881,-3.41093 -6.0425,-3.93566 -2.3644,0.78711 -2.1017,-0.26237 -2.8899,7.87139 -3.1525,2.62375 0.7881,3.14856 -2.1017,0.78711 -7.0933,-1.31185 -1.5763,5.50994 -0.2627,5.24757 -5.51698,1.57428 -4.72885,3.67329 -6.29466,-0.1046 -3.42576,-2.78158 -4.20343,-0.26237 -0.26271,-2.36144 -5.77971,-4.98515 -2.88986,0 -2.62714,-2.09907 -5.77971,0.52479 -3.15257,-4.9852 -3.15257,-0.52474 -0.26271,-5.24757 0,-2.36144 2.10171,-3.93567 -3.41528,-5.24757 -5.77972,-0.26237 -4.99156,-2.88618 -4.20343,0 -10.50856,-5.24755 -4.46614,1.04951 -4.72886,-0.78713 2.62714,-7.08421 -0.26271,-4.98519 -0.78814,-3.41092 -3.678,-4.46044 -2.36443,-2.36141 0.52543,-7.34659 -3.67799,-4.19806 1.83899,-2.88616 -4.72885,-4.46044 3.678,-6.29707 3.94071,-4.72282 3.41528,-7.87135 3.678,-0.52476 4.46614,-1.57427 0,-4.46043 -3.94071,-4.72281 1.57628,-6.29709 -7.356,-2.3614 -3.94071,-4.72281 -1.31356,-2.62379 1.83899,-6.0347 5.77972,0.52475 14.18655,-0.78713 3.15258,-5.77233 2.36442,-5.50994 5.77971,-0.26238 2.36443,2.88616 -0.26272,4.98519 5.25429,3.14855 3.15256,-2.62379 2.88986,3.6733 6.04243,-2.88617 1.57628,3.93568 4.20343,2.88616 0,4.46044 1.31357,1.83664 3.678,-2.62378 2.10171,0 0,3.93567 3.94072,1.3119 2.10171,2.88616 0.78814,4.98519 -4.46614,2.88616 2.88985,2.36141 0.52543,7.60897 2.88985,-3.14854 4.99157,0.78714 3.41528,-4.46043 5.77972,1.57427 1.31359,4.19805 -3.15259,5.77233 1.05085,4.46043 -1.05085,2.62379 -3.41529,0.78713 -1.83899,2.36141 0,2.88616 0.0363,-0.0159 z"
       style="fill:none;stroke:none"
       id="path1316" />
  </g>
</svg>
