<?xml version="1.0" encoding="UTF-8" standalone="no"?>
<svg
   xmlns:dc="http://purl.org/dc/elements/1.1/"
   xmlns:cc="http://creativecommons.org/ns#"
   xmlns:rdf="http://www.w3.org/1999/02/22-rdf-syntax-ns#"
   xmlns:svg="http://www.w3.org/2000/svg"
   xmlns="http://www.w3.org/2000/svg"
   xmlns:sodipodi="http://sodipodi.sourceforge.net/DTD/sodipodi-0.dtd"
   xmlns:inkscape="http://www.inkscape.org/namespaces/inkscape"
   width="930.35394"
   height="725.75287"
   id="svg2"
   version="1.1"
   inkscape:version="0.48.2 r9819"
   sodipodi:docname="Flag_of_Belgium_(civil).svg">
  <metadata
     id="metadata14">
    <rdf:RDF>
      <cc:Work
         rdf:about="">
        <dc:format>image/svg+xml</dc:format>
        <dc:type
           rdf:resource="http://purl.org/dc/dcmitype/StillImage" />
      </cc:Work>
    </rdf:RDF>
  </metadata>
  <defs
     id="defs12" />
  <sodipodi:namedview
     pagecolor="#ffffff"
     bordercolor="#666666"
     borderopacity="1"
     objecttolerance="10"
     gridtolerance="10"
     guidetolerance="10"
     inkscape:pageopacity="0"
     inkscape:pageshadow="2"
     inkscape:window-width="1400"
     inkscape:window-height="988"
     id="namedview10"
     showgrid="false"
     fit-margin-top="0"
     fit-margin-left="0"
     fit-margin-right="0"
     fit-margin-bottom="0"
     inkscape:zoom="0.78666667"
     inkscape:cx="281.72229"
     inkscape:cy="360.57673"
     inkscape:window-x="-8"
     inkscape:window-y="-8"
     inkscape:window-maximized="1"
     inkscape:current-layer="svg2" />
  <path
     style="fill:#000000;fill-opacity:1;fill-rule:evenodd;stroke:#000000;stroke-width:1;stroke-linecap:round;stroke-linejoin:round;stroke-miterlimit:3.97449994;stroke-opacity:1;stroke-dasharray:none;stroke-dashoffset:0"
     d="m 277.649,431.48372 c -1.76103,-0.974 -2.82254,-2.22801 -2.60149,-3.0733 0.1282,-0.49026 -0.29094,-1.5079 -1.00864,-2.44884 -0.67539,-0.8855 -1.40006,-2.53103 -1.61036,-3.65673 -0.21031,-1.1257 -0.79025,-2.61954 -1.28876,-3.31963 -0.49851,-0.7001 -0.90638,-1.85141 -0.90638,-2.55847 0,-0.70707 -0.38946,-2.01222 -0.86546,-2.90034 -1.0546,-1.96766 -0.78415,-3.56231 1.44089,-8.49564 1.08387,-2.40313 1.42582,-3.67905 1.20142,-4.48284 -0.17252,-0.61796 -0.21794,-1.93256 -0.10094,-2.92131 0.1176,-0.99372 -0.11689,-2.93125 -0.5243,-4.33222 -0.40537,-1.39396 -0.69093,-3.21915 -0.63457,-4.05595 0.0697,-1.03478 -0.28414,-2.0904 -1.10615,-3.3001 -0.95584,-1.40663 -1.20862,-2.30443 -1.20862,-4.29256 0,-2.04668 -0.19334,-2.69555 -1.04019,-3.49113 -0.5721,-0.53747 -1.24355,-0.97721 -1.49211,-0.97721 -1.04232,0 -4.15384,-3.21972 -4.45717,-4.61217 -0.35753,-1.64123 -5.14815,-7.32022 -6.55061,-7.76534 -0.57761,-0.18333 -1.49704,0.10297 -2.55719,0.79627 -2.52076,1.64849 -3.14971,1.78152 -3.68592,0.7796 -0.25922,-0.48436 -1.29104,-1.29885 -2.29293,-1.80998 -1.72727,-0.88119 -1.9285,-0.8929 -3.88521,-0.22618 -1.13498,0.38672 -2.73944,0.70313 -3.56548,0.70313 -0.82603,0 -2.70776,0.49 -4.18162,1.08888 -1.47386,0.59889 -3.3406,1.15506 -4.14832,1.23594 -1.40811,0.14101 -1.4744,0.0763 -1.61011,-1.57266 -0.15814,-1.92155 0.33644,-2.8557 3.45872,-6.53259 l 2.04621,-2.4097 -1.39578,-1.24713 c -1.76621,-1.57811 -5.43588,-2.94312 -8.91137,-3.31476 l -2.69659,-0.28836 -1.72076,2.67826 c -0.94642,1.47305 -1.94102,3.39591 -2.21021,4.27304 l -0.48945,1.59476 -2.8459,0 c -1.56525,0 -2.84591,0.16978 -2.84591,0.37729 0,0.74792 -2.34211,1.42044 -4.94679,1.42044 -2.52337,0 -2.74117,0.0906 -4.32065,1.79773 -0.91482,0.98875 -1.90868,1.79773 -2.20857,1.79773 -0.29989,0 -1.77049,-1.09326 -3.268,-2.42946 -1.59792,-1.4258 -3.33879,-2.5559 -4.21395,-2.73553 -0.82016,-0.16833 -3.97571,-1.64899 -7.01233,-3.29035 -4.18057,-2.25969 -5.9637,-3.50916 -7.34391,-5.14601 -1.98145,-2.34988 -1.89551,-1.7338 -1.17471,-8.42083 0.0666,-0.61797 0.27796,-1.37045 0.46967,-1.67217 0.1917,-0.30173 0.0289,-1.16671 -0.36175,-1.92217 -0.54807,-1.05986 -0.61066,-1.73447 -0.27402,-2.95367 0.33019,-1.19586 0.26833,-1.98207 -0.25441,-3.23317 -0.44848,-1.07335 -0.5992,-2.32068 -0.42978,-3.55674 0.1447,-1.05567 0.0658,-2.0243 -0.17722,-2.17447 -0.24099,-0.14894 -0.43816,-1.38621 -0.43816,-2.74951 0,-2.3862 -0.0909,-2.574 -2.43487,-5.03143 -2.70486,-2.83576 -4.53443,-6.69079 -4.13151,-8.70538 0.14707,-0.73533 -0.10479,-1.99733 -0.62922,-3.15279 -0.87251,-1.92242 -1.14515,-4.56987 -0.61333,-5.95578 0.15447,-0.40253 1.57197,-1.3173 3.15001,-2.03282 1.57804,-0.71551 2.98861,-1.61223 3.13461,-1.99269 0.15499,-0.4039 -0.31421,-1.42362 -1.12756,-2.45058 -0.94433,-1.1923 -1.39302,-2.2547 -1.39302,-3.29835 0,-1.86007 -2.97377,-6.13368 -4.84478,-6.96242 -0.67241,-0.29783 -2.25188,-0.55064 -3.50993,-0.56179 -1.99769,-0.0177 -2.3526,-0.16341 -2.80234,-1.15047 -0.28322,-0.62161 -1.02354,-1.36193 -1.64515,-1.64515 -1.22485,-0.55808 -1.3494,-0.91906 -0.72171,-2.0919 0.43687,-0.8163 -0.49662,-3.67196 -1.20034,-3.67196 -0.93247,0 -3.18801,-2.85984 -3.63446,-4.60823 -0.33747,-1.32156 -0.90961,-2.18499 -1.86026,-2.80741 -1.66453,-1.08979 -5.39867,-7.47779 -5.39867,-9.2355 0,-0.95345 -0.38631,-1.49159 -1.61656,-2.25193 l -1.61657,-0.99909 -3.63798,0.83089 c -3.12508,0.71375 -4.05357,1.16547 -6.58558,3.20391 -1.62117,1.30516 -3.26985,2.37557 -3.66374,2.3787 -0.39388,0.003 -1.89181,-0.3988 -3.32874,-0.89318 -3.46032,-1.19052 -4.2633,-1.14185 -7.41563,0.44944 -1.59914,0.80724 -3.37045,1.34829 -4.41407,1.34829 -1.22767,0 -2.29941,0.40298 -3.62433,1.36275 -1.03467,0.7495 -2.44821,1.47614 -3.14121,1.61474 -0.72926,0.14585 -1.57155,0.77943 -1.99966,1.50416 -0.981,1.66069 -3.30733,2.70927 -6.010671,2.70927 -1.96369,0 -2.38361,0.18763 -3.90365,1.7443 -1.35811,1.39084 -1.68612,2.05111 -1.61869,3.25838 0.13462,2.41008 0.0544,2.63677 -1.08693,3.0707 -0.8326,0.31655 -1.19343,0.93764 -1.57301,2.70759 -0.27092,1.26324 -0.49258,2.85493 -0.49258,3.53708 0,1.74546 -0.78667,2.53797 -3.3619,3.38684 -2.17619,0.71733 -2.27471,0.7109 -3.54973,-0.23176 -0.72128,-0.53326 -2.19612,-1.06929 -3.27743,-1.19117 -2.09695,-0.23636 -3.62991,-1.58816 -4.9571,-4.37131 -0.36017,-0.75529 -1.25706,-1.71887 -1.99309,-2.14129 -1.30676,-0.74997 -1.40074,-0.73648 -3.99663,0.57392 -3.33714,1.68459 -4.11004,1.67697 -6.99077,-0.0689 -2.61376,-1.58411 -3.78304,-3.49728 -3.78304,-6.18981 0,-2.9642 -1.03536,-4.74735 -3.11895,-5.37161 -1.44922,-0.4342 -1.82481,-0.76047 -1.82481,-1.5852 0,-2.97963 -2.43662,-6.62733 -5.92019,-8.86273 -1.19327,-0.76573 -2.16959,-1.65899 -2.16959,-1.98504 0,-0.32605 -0.48583,-1.17019 -1.07961,-1.87586 -0.90787,-1.07894 -1.04195,-1.61724 -0.84284,-3.38377 0.21371,-1.896 0.1033,-2.2342 -1.13297,-3.47047 -1.42704,-1.42704 -2.12284,-1.57211 -6.657622,-1.38803 -1.9627,0.0797 -2.42347,-0.067 -3.16271,-1.0068 -0.47592,-0.60503 -1.53285,-1.44526 -2.34873,-1.86717 -1.62919,-0.84248 -1.55041,-0.88489 -3.49393,1.88102 -0.56945,0.81041 -1.14052,1.01122 -2.87574,1.01122 -2.31653,0 -2.28269,0.0361 -2.91964,-3.11369 -0.17136,-0.84737 -1.02012,-2.97094 -1.88615,-4.71904 -0.86602,-1.74809 -1.72198,-3.48173 -1.90213,-3.85251 -0.18014,-0.37078 -0.96443,-0.73752 -1.74286,-0.81498 -0.77843,-0.0775 -1.41533,-0.25583 -1.41533,-0.39638 0,-0.14056 0.45505,-0.98728 1.01122,-1.88162 0.71286,-1.14629 1.03699,-2.42169 1.09853,-4.32265 0.21645,-6.68525 -0.10493,-11.51184 -0.89777,-13.48297 -0.3977,-0.98875 -0.73197,-2.15165 -0.74282,-2.58423 -0.0147,-0.58781 -0.3982,-0.78651 -1.51783,-0.78651 -0.82396,0 -1.63445,-0.13634 -1.80108,-0.30297 -0.16663,-0.16663 1.3165,-1.96211 3.29584,-3.98997 1.97934,-2.02786 3.5988,-3.99958 3.5988,-4.38159 0,-0.38202 0.52236,-1.31537 1.16079,-2.0741 l 1.16078,-1.37951 -0.77069,-2.36278 c -0.42389,-1.29954 -1.46846,-3.50603 -2.32127,-4.90332 -0.89533,-1.46695 -1.64173,-3.36617 -1.76628,-4.49432 -0.42284,-3.83008 -0.40102,-3.79934 -3.26692,-4.60347 -3.3778005,-0.94776 -4.4436605,-1.82031 -5.4445605,-4.45711 -0.62457,-1.64534 -0.70192,-2.43393 -0.35091,-3.5776 0.68665,-2.23734 -1.93098,-16.4958 -3.89664,-21.22531 -2.45593996,-5.90914 -2.76170996,-5.14346 3.14198,-7.86768 2.85385,-1.31689 6.3518705,-3.24063 7.7733705,-4.27498 3.37291,-2.45428 14.44091,-8.23583 19.86105,-10.37473 2.34828,-0.92669 5.685322,-2.62517 7.415632,-3.77441 1.73032,-1.14924 5.77521,-3.47287 8.98865,-5.16362 12.33192,-6.48842 36.19186,-22.0615 38.3264,-25.015147 0.62971,-0.87136 1.89779,-0.65053 1.89779,0.33048 0,0.68799 3.32395,2.554627 3.76452,2.114057 0.53906,-0.539057 0.26989,-2.164677 -0.59267,-3.579277 l -0.86967,-1.42628 1.2911,-0.45008 c 0.7101,-0.24755 2.77234,-1.44961 4.58274,-2.67126 1.8104,-1.22164 4.907991,-3.03456 6.883531,-4.02871 5.17934,-2.60638 15.17309,-9.10364 19.12384,-12.43302 4.26991,-3.59835 10.50212,-6.75926 20.19791,-10.24417 4.0786,-1.46595 8.04796,-3.03373 8.8208,-3.48396 0.77284,-0.45024 2.05828,-0.96206 2.85653,-1.13738 0.79825,-0.17533 2.02226,-0.9553 2.72001,-1.73327 0.96162,-1.07217 1.32036,-1.25135 1.48232,-0.74035 0.73715,2.32575 0.63347,2.24079 2.10751,1.72694 0.76938,-0.26821 1.63617,-0.86761 1.92619,-1.33201 0.37237,-0.59626 1.05681,-0.84593 2.32929,-0.8497 2.57571,-0.008 5.94188,-1.00773 8.54346,-2.5383 1.29783,-0.76355 5.74785,-2.32167 10.53358,-3.68823 4.55753,-1.30139 8.83589,-2.75742 9.50746,-3.23562 2.01625,-1.43569 2.47449,-1.15016 3.11266,1.9395 0.31911,1.54492 1.15572,3.96609 1.85914,5.38037 1.99948,4.0201 1.80445,5.01423 -1.61635,8.23894 l -2.8953,2.72934 1.28348,2.24728 c 1.24085,2.17265 1.25491,2.26512 0.42342,2.78439 -2.19521,1.37094 0.0467,4.58786 8.91673,12.79445 3.29579,3.04929 5.55625,5.51934 6.01663,6.5745 0.62372,1.4295 1.07422,1.7879 2.92131,2.32408 3.22139,0.93511 12.27349,0.6494 18.04474,-0.56954 4.54158,-0.95922 4.62098,-0.99773 4.39978,-2.13385 -0.71861,-3.69079 -2.14352,-14.48018 -1.93931,-14.68439 0.13321,-0.13321 1.21709,0.25326 2.40863,0.85881 l 2.16643,1.10101 2.75789,-1.35997 2.75789,-1.35998 2.10786,1.45025 c 2.68153,1.84494 3.4121,1.41424 3.4121,-2.01157 0,-1.49696 0.20835,-2.45375 0.56179,-2.5799 0.73793,-0.26337 2.61615,0.69419 6.08664,3.10311 3.58061,2.48535 5.18722,3.31454 6.4221,3.31454 0.53927,0 1.6111,0.38351 2.38184,0.85224 0.90405,0.5498 2.74471,0.96757 5.18685,1.17723 2.75508,0.23654 4.59013,0.6937 6.74148,1.67949 2.54924,1.16811 3.63624,1.38545 7.89974,1.57954 l 4.94375,0.22505 1.37573,1.58641 c 1.27673,1.47224 1.47519,1.55173 2.75781,1.1046 1.13768,-0.3966 1.62954,-0.3313 2.78152,0.36926 1.53536,0.93371 1.61832,1.24884 0.93813,3.56382 -0.49582,1.6875 -0.64142,9.592167 -0.20836,11.311977 0.40351,1.60244 3.00192,3.04259 6.06786,3.36304 l 2.69159,0.28133 0,155.18557 c 0,104.05601 -0.15053,155.58149 -0.45688,156.38725 -0.38867,1.02229 -0.56108,1.11522 -1.15483,0.62245 -0.38387,-0.31859 -0.6017,-0.9473 -0.48406,-1.39715 0.24382,-0.93238 -0.48914,-1.04498 -2.69124,-0.41342 -0.94862,0.27206 -2.39555,0.19796 -4.4197,-0.22634 -2.91056,-0.6101 -3.05592,-0.59767 -4.42716,0.37874 -0.97073,0.69122 -2.1128,1.02396 -3.62198,1.05524 -2.50483,0.0519 -2.86699,0.37854 -4.69082,4.2305 -0.8231,1.73839 -1.22219,3.43125 -1.34495,5.70498 l -0.17455,3.23309 -1.73875,-1.15065 c -2.2497,-1.48878 -3.10931,-1.16058 -3.10931,1.18712 0,1.93226 -0.16414,2.06658 -1.57302,1.28736 z"
     id="path3771"
     inkscape:connector-curvature="0" />
  <path
     style="fill:#ffda0c;fill-opacity:1;fill-rule:evenodd;stroke:#ffda0c;stroke-width:1;stroke-linecap:round;stroke-linejoin:round;stroke-miterlimit:3.97449993999999980;stroke-opacity:1;stroke-dasharray:none;stroke-dashoffset:0"
     d="m 617.6798,633.80162 c -2.43582,-4.25649 -3.4894,-4.97593 -6.67699,-4.55939 -2.61494,0.34172 -2.96518,0.23224 -3.53785,-1.10588 -0.51354,-1.19995 -1.12382,-1.48713 -3.17797,-1.49545 -3.28035,-0.0133 -9.10804,-3.1663 -10.44579,-5.6516 -0.54719,-1.01658 -1.74979,-2.72353 -2.67246,-3.79322 -1.47447,-1.70942 -2.20551,-1.99298 -6.03814,-2.34208 -4.46602,-0.4068 -7.85632,0.59177 -7.85632,2.31398 0,1.0967 -5.05949,2.81005 -8.28396,2.8053 -1.7632,-0.003 -3.56144,-0.4827 -4.7457,-1.267 -2.32278,-1.53832 -3.87599,-1.61463 -4.65167,-0.22856 -0.32092,0.57344 -0.87972,0.85954 -1.24178,0.63578 -0.86639,-0.53546 1.31362,-6.31469 3.0291,-8.03016 1.49602,-1.49602 1.55401,-2.29812 0.32197,-4.45333 -0.49958,-0.87394 -0.91848,-2.63055 -0.93086,-3.90356 -0.0186,-1.91514 -0.29038,-2.3818 -1.57467,-2.70413 -1.21187,-0.30416 -1.67159,-0.98113 -2.09699,-3.08798 -0.44902,-2.22376 -0.36481,-2.77083 0.4787,-3.11021 0.56296,-0.22649 1.37363,-1.58022 1.80148,-3.00827 0.42786,-1.42807 1.79227,-4.50851 3.03204,-6.84542 l 2.25411,-4.24895 -0.78666,-4.18346 c -0.6592,-3.50567 -1.17145,-4.54386 -3.16176,-6.40802 -1.30631,-1.22352 -2.87869,-3.22564 -3.49419,-4.44916 -1.37357,-2.73044 -2.66256,-3.76464 -4.7373,-3.80089 -2.79144,-0.0487 -8.45334,-1.82564 -9.57268,-3.0042 -1.58043,-1.66404 -0.29711,-6.76727 1.77585,-7.06185 1.95478,-0.27778 3.9223,-4.88937 3.91842,-9.1842 -0.002,-1.82929 -0.007,-4.32703 -0.0111,-5.55055 -0.007,-1.81507 0.46761,-2.63727 2.5763,-4.46649 3.02312,-2.62243 3.33059,-4.61534 0.99546,-6.45215 -2.06669,-1.62564 -2.30823,-5.60678 -0.34018,-5.60678 1.80514,0 2.70277,-2.17204 2.79855,-6.77182 0.078,-3.74529 0.18699,-4.03306 1.52769,-4.03316 0.92914,-7e-5 1.70578,0.57507 2.17899,1.61366 0.4044,0.88757 1.16425,1.53111 1.68854,1.43008 1.15019,-0.22162 2.18151,-3.64597 1.38655,-4.60384 -0.31147,-0.3753 -0.40412,-2.47111 -0.20587,-4.65736 0.35299,-3.8929 0.426,-4.02313 3.53509,-6.30541 l 3.17466,-2.33042 -1.83388,-1.64474 c -1.00864,-0.90461 -2.20122,-2.45992 -2.65019,-3.45624 -0.7478,-1.65952 -1.02191,-1.77862 -3.26722,-1.41959 -3.11155,0.49756 -7.37794,-0.95859 -9.0549,-3.09049 -1.84189,-2.34157 -3.45478,-2.03452 -4.97599,0.94729 -0.71336,1.39831 -1.60982,2.54237 -1.99214,2.54237 -0.38232,0 -2.8194,1.32401 -5.41574,2.94224 -4.55133,2.83672 -6.5724,5.1942 -6.57755,7.67239 -0.004,1.96807 -2.41573,5.27521 -3.84682,5.27521 -0.72903,0 -2.98274,0.91804 -5.00826,2.0401 -2.83348,1.56963 -4.1033,2.77886 -5.50645,5.24364 -2.05584,3.61133 -3.4002,6.85139 -3.87293,9.33417 -0.29572,1.55318 -0.11604,1.71596 2.35502,2.13344 l 2.67516,0.45196 -0.41684,2.60678 c -0.22926,1.43373 -1.119,4.69845 -1.97718,7.25494 -0.85818,2.5565 -1.56034,5.76934 -1.56034,7.13965 0,1.37032 -0.35752,2.72096 -0.79449,3.00145 -1.19689,0.76826 -6.04445,2.09879 -10.32839,2.83487 -2.09746,0.3604 -4.08527,0.91619 -4.41737,1.2351 -0.3321,0.3189 -2.07702,0.57983 -3.87762,0.57983 -4.59701,0 -7.00348,0.98307 -7.93978,3.24351 -0.97534,2.35465 -2.34931,3.11242 -5.64343,3.11242 -2.28282,0 -2.74939,0.27143 -4.0971,2.38347 -2.44946,3.83864 -4.19659,5.04056 -8.02894,5.52341 -1.92267,0.24224 -5.25823,1.05522 -7.41237,1.80662 -3.2133,1.12085 -4.18343,1.23131 -5.40254,0.61516 -2.31294,-1.16899 -9.18134,-2.74074 -11.27845,-2.58095 -1.07001,0.0815 -2.41211,-0.32733 -3.0909,-0.94163 -0.83748,-0.75791 -2.29894,-1.08574 -4.84017,-1.08574 -3.29642,0 -3.81874,-0.19521 -5.52715,-2.06568 -1.03769,-1.13612 -2.09413,-2.07257 -2.34765,-2.08098 -0.25351,-0.008 -1.7591,-0.38619 -3.34576,-0.83951 -2.44614,-0.69887 -3.53947,-0.67238 -7.18986,0.1742 -2.36778,0.54913 -5.58858,0.99841 -7.15734,0.99841 -1.56876,0 -3.62463,0.39016 -4.56861,0.86703 -0.94398,0.47686 -3.50392,1.02177 -5.68877,1.21091 l -3.97246,0.34389 0,-2.02472 c 0,-1.79475 -0.36897,-2.21372 -3.24847,-3.6887 -2.6304,-1.34738 -3.62322,-1.5565 -5.21802,-1.09912 -3.13276,0.89846 -3.52119,-0.26516 -1.19173,-3.56999 1.1171,-1.58486 2.0311,-3.11487 2.0311,-3.40005 0,-0.84518 -2.24506,-2.6223 -3.31278,-2.6223 -2.4353,0 -2.34441,-6.52936 0.15994,-11.49045 l 1.9319,-3.82708 3.4808,0.14082 c 2.9771,0.12045 3.73227,-0.0966 5.21852,-1.49964 0.95574,-0.90226 3.16781,-2.47294 4.91569,-3.49041 5.35024,-3.11446 5.2975,-6.18674 -0.20688,-12.05335 -1.24868,-1.33085 -2.19925,-2.67691 -2.1124,-2.99125 0.0868,-0.31434 -0.048,-1.02938 -0.29981,-1.58898 -0.25175,-0.5596 -0.50595,-2.9497 -0.56488,-5.31133 -0.0589,-2.36163 -0.28424,-4.47095 -0.50066,-4.68737 -0.21643,-0.21642 -2.33609,-0.60572 -4.71037,-0.8651 -3.83556,-0.41903 -4.47574,-0.32751 -5.74178,0.82084 -1.36128,1.23474 -4.78096,1.76031 -5.66986,0.87141 -0.23157,-0.23158 -0.0886,-1.15075 0.3178,-2.04262 0.40636,-0.89187 0.73884,-2.31931 0.73884,-3.1721 0,-0.96858 0.85996,-2.33862 2.29127,-3.65031 2.15492,-1.97485 2.25403,-2.23462 1.66561,-4.36574 -0.5247,-1.90032 -0.38257,-2.76793 0.88088,-5.37698 1.77261,-3.66047 1.83098,-4.43171 0.56478,-7.46216 -1.29981,-3.11086 -1.22108,-3.47856 0.79449,-3.71048 1.34754,-0.15505 2.11183,-0.88871 3.33687,-3.20315 0.94859,-1.79217 2.74167,-3.80243 4.44915,-4.98805 4.26389,-2.96071 5.08474,-4.15502 5.08474,-7.39812 0,-2.39749 -0.34522,-3.19855 -2.16101,-5.01433 -1.52119,-1.52119 -2.74005,-2.16102 -4.11671,-2.16102 -1.44011,0 -2.2489,-0.46079 -3.06794,-1.74788 -2.00334,-3.14818 -3.79898,-3.54804 -5.88381,-1.31024 -1.88999,2.02866 -1.65484,4.04544 0.62898,5.39452 2.38503,1.40887 2.20116,2.83779 -0.4635,3.602 -2.69327,0.77243 -4.0038,0.17754 -4.0038,-1.81744 0,-0.95172 -0.69772,-2.28591 -1.6635,-3.18096 -1.02075,-0.946 -1.51563,-1.92698 -1.28081,-2.53891 0.21047,-0.54848 0.0358,-2.29402 -0.38808,-3.87897 -1.0274,-3.84136 -6.13104,-8.82019 -8.44577,-8.23923 -1.30992,0.32877 -1.72578,0.0123 -2.83129,-2.15469 -0.81835,-1.6041 -1.88055,-2.68682 -2.88263,-2.93832 -0.96019,-0.24099 -1.73762,-0.99926 -1.96877,-1.92022 -0.22346,-0.89033 -1.26657,-1.94172 -2.51348,-2.53341 -1.17232,-0.5563 -2.31884,-1.6274 -2.54782,-2.38021 -1.01518,-3.33748 -4.09095,-4.40382 -5.54121,-1.92109 -0.27956,0.47858 -0.85583,0.87013 -1.2806,0.87013 -0.42478,0 -1.78332,0.54187 -3.01899,1.20414 -1.66067,0.89007 -3.22595,1.14973 -6.00114,0.99551 -3.33602,-0.18539 -4.14719,0.03 -7.27783,1.93257 -5.56608,3.38263 -12.10385,4.3994 -12.10385,1.88242 0,-0.4615 -0.44888,-1.28798 -0.99752,-1.83662 -0.76454,-0.76454 -1.29171,-0.84009 -2.25702,-0.32347 -1.07774,0.57678 -1.64888,0.24996 -3.9579,-2.26488 l -2.69842,-2.93894 -3.30728,0.43872 -3.30728,0.43873 0,-155.09716 0.44943,-156.22074 4.3865,0.87938 c 4.98294,0.99895 5.26078,-0.36021 8.26139,-4.6358 1.40286,-1.998957 2.27178,-0.39565 1.09837,2.02667 -1.68821,3.48502 -0.13812,4.72822 5.12874,4.11335 1.93023,-0.22534 2.67627,-0.71701 3.68679,-2.42972 1.37608,-2.33228 2.45001,-2.68032 3.6837,-1.19382 2.421,2.91714 11.36055,-1.47237 14.99472,-7.362727 0.83839,-1.35888 7.1273,-3.12456 11.12895,-3.12456 2.85857,0 3.99049,-0.36458 6.61786,-2.13157 1.74322,-1.17237 5.07158,-2.96852 7.39636,-3.99145 3.27906,-1.44282 6.18291,-3.63715 12.94994,-9.7858 8.09628,-7.35641 23.19584,-24.07847 23.17362,-25.66369 -0.0137,-0.97599 -0.67846,-1.80609 -2.66846,-3.33204 l -1.7248,-1.3226 4.58497,-0.38415 c 2.52173,-0.21128 8.34902,-0.57474 12.94953,-0.80768 l 8.36456,-0.42354 1.29474,2.5379 c 1.68213,3.29727 3.84455,4.14763 10.77483,4.23716 4.18045,0.054 6.20528,-0.22263 8.20151,-1.12049 2.51543,-1.13138 2.64669,-1.32593 2.573,-3.81356 -0.0646,-2.18099 -0.73727,-3.47558 -4.00399,-7.70611 -4.65492,-6.02829 -7.28531,-10.96964 -7.28531,-13.68591 0,-1.08333 -0.28424,-2.50081 -0.63165,-3.14995 -0.56023,-1.04679 0.28432,-1.66143 7.46822,-5.43518 4.71085,-2.47464 9.20197,-4.38817 10.73392,-4.57338 1.92017,-0.23215 2.8505,-0.72288 3.43266,-1.81067 0.43924,-0.8207104 1.03722,-1.3447304 1.32886,-1.1644904 0.49635,0.30676 9.2999,-0.64584 12.46672,-1.34898 1.36841,-0.30383 1.43009,-0.14018 1.43009,3.7946604 0,7.27848 2.56878,15.61542 4.81142,15.61542 0.53463,0 1.80659,-0.43156 2.82659,-0.95902 1.70979,-0.88417 2.51357,-0.815 10.29683,0.88607 7.45661,1.62968 8.92463,1.77106 12.57363,1.21086 5.95379,-0.91402 6.74354,-1.36115 9.20756,-5.21303 1.22009,-1.90732 2.50769,-3.64667 2.86133,-3.86523 0.35363,-0.21856 0.64297,-0.8295 0.64297,-1.35764 0,-0.52814 0.85806,-2.20739 1.90678,-3.73167 1.04873,-1.52427 1.90678,-3.35184 1.90678,-4.06125 0,-1.2043904 2.90241,-4.5192604 3.95695,-4.5192604 0.26079,0 1.22014,-1.12724 2.13189,-2.50499 1.93928,-2.93044998 4.25598,-3.70849998 6.92274,-2.32497 0.99536,0.5164 2.88211,1.12009 4.19276,1.34152 1.8597,0.31419 2.55445,0.81654 3.16379,2.28761 0.42944,1.03675 1.31723,2.1721 1.97289,2.523 0.93515,0.50048 1.05336,0.89722 0.54842,1.8407 -0.35402,0.66149 -0.64367,2.2033004 -0.64367,3.4262504 0,1.62429 -0.32462,2.32656 -1.20452,2.60583 -2.14929,0.68215 -2.29308,4.3466 -0.31331,7.98411 0.94783,1.74146 1.55008,3.33953 1.33835,3.55127 -0.21174,0.21174 -2.17262,-0.21872 -4.35752,-0.95657 -2.1849,-0.73786 -5.06108,-1.34155 -6.3915,-1.34155 -2.30713,0 -2.41856,0.0955 -2.41029,2.06568 0.0142,3.39459 0.68796,4.92476 2.60462,5.9159 2.05787,1.06417 4.22996,1.13989 16.7723,0.58464 4.89407,-0.21665 9.44702,-0.38772 10.11767,-0.38015 0.67066,0.008 2.70974,1.48562 4.5313,3.28456 1.93501,1.91096 3.75293,3.1792 4.37268,3.0505 1.69076,-0.35112 20.93663,-18.4351 22.07713,-20.74432 0.82783,-1.67614 0.89799,-2.53216 0.35307,-4.30767 -0.64543,-2.10303 -0.55329,-2.34566 1.80974,-4.7656204 l 2.4898,-2.54979 0.53651,2.09051 c 0.85277,3.3228404 2.13177,4.3150804 5.56217,4.3150804 2.93601,0 3.05494,0.074 3.82767,2.38347 0.43862,1.31091 1.26468,4.67161 1.83569,7.46822 l 1.03819,5.08475 -2.41288,5.96196 -2.41289,5.96195 5.07564,5.36206 5.07563,5.36206 0,292.648437 c 0,160.95664 -0.0813,292.64845 -0.18076,292.64845 -0.0994,0 -0.71271,-0.92956 -1.36287,-2.06568 z"
     id="path3773"
     inkscape:connector-curvature="0"
     sodipodi:nodetypes="cssssssscsscsccsscsscssscssccsssssscssscscssssscssssscssscscssssssscssscssssscssssssscscssccccssccsssssssssssssssssscssssssssssssssscccccssssssssssscscsscssssssssscsssssssscssssssssssssscsscsscssssscsssscccccsscc" />
  <path
     style="fill:#f31830;fill-opacity:1;fill-rule:evenodd;stroke:#f31830;stroke-width:1;stroke-linecap:round;stroke-linejoin:round;stroke-miterlimit:3.97449993999999980;stroke-opacity:1;stroke-dasharray:none;stroke-dashoffset:0"
     d="m 705.4091,725.0449 c -0.22355,-0.22354 -0.40645,-0.93025 -0.40645,-1.57049 0,-0.69896 -1.20641,-1.92171 -3.01907,-3.06 -1.66049,-1.04269 -2.64231,-1.90125 -2.18183,-1.90792 1.54793,-0.0222 5.81313,-4.08782 5.82503,-5.55235 0.0116,-1.42087 -3.90193,-5.9004 -5.15487,-5.9004 -0.37113,0 0.069,-1.26922 0.97811,-2.82045 1.7405,-2.96994 1.70047,-3.11911 -1.01057,-3.76627 -1.41138,-0.33686 -1.87907,-1.01212 -2.73102,-3.94265 -0.56539,-1.94491 -0.89082,-4.01816 -0.72318,-4.60722 0.43664,-1.53426 -9.95675,-10.25329 -13.80896,-11.58431 -1.62873,-0.56276 -3.63634,-1.65734 -4.46135,-2.4324 -1.32007,-1.24014 -1.70602,-1.31534 -3.21705,-0.62687 -1.35771,0.61862 -1.63985,1.08979 -1.34826,2.25159 0.30402,1.2113 0.11556,1.46994 -1.07343,1.47317 -0.79321,0.002 -2.22797,0.41382 -3.18836,0.91481 -1.58735,0.82804 -1.80414,0.80258 -2.38348,-0.27993 -0.35052,-0.65495 -0.63624,-1.71015 -0.63493,-2.34489 0.003,-1.41377 2.10521,-5.00273 4.29561,-7.33327 l 1.62601,-1.73005 -2.35495,-3.54682 c -1.29523,-1.95075 -3.68772,-4.46143 -5.31665,-5.57928 -1.62892,-1.11785 -4.1278,-3.08389 -5.55305,-4.369 -3.48798,-3.14498 -5.35719,-3.56419 -7.19058,-1.61263 -1.23024,1.30953 -1.9297,1.49646 -5.05388,1.35063 -2.88792,-0.1348 -3.73896,-0.42233 -4.18082,-1.41258 -0.49692,-1.11365 -1.09504,-1.22169 -5.73434,-1.03586 l -5.17956,0.20747 -0.0263,-2.3721 c -0.04,-3.60598 -1.43466,-6.45364 -3.16079,-6.45364 -0.79413,0 -1.5878,0.37506 -1.7637,0.83347 -0.2105,0.54855 -1.10161,0.74219 -2.60683,0.56647 -2.25793,-0.2636 -2.28212,-0.29756 -1.90263,-2.67077 0.31018,-1.93974 0.0641,-2.87511 -1.27473,-4.84537 l -1.6591,-2.4416 0,-292.30316 c 0,-254.682557 -0.55606,-294.227597 0.24342,-293.564087 1.36044,1.12906 4.41789,10.85438 4.30423,13.75493 -0.0559,1.42671 0.24642,2.74208 0.69581,3.02743 1.30882,0.83105 7.24082,0.59102 11.9686,-0.48429 l 4.43334,-1.00835 3.1115,1.99665 c 4.74188,3.04286 4.69239,2.84738 2.4469,9.66444 l -1.99693,6.06245 1.37257,1.9276 c 1.71916,2.41433 3.98782,3.03545 6.44533,1.76463 1.43864,-0.74395 4.15081,-0.96688 11.76327,-0.96688 l 9.89354,0 1.06309,-2.22932 c 0.70644,-1.48142 1.396,-2.12999 2.0554,-1.93321 2.12419,0.63388 15.50322,3.52545 15.60113,3.37182 2.11428,-3.31752 3.15299,-4.29403 4.56747,-4.29403 2.31097,0 7.26702,-2.96909 9.11564,-5.46102 0.86952,-1.17211 1.8231,-2.13898 2.11908,-2.1486 0.74385,-0.0242 10.91534,6.65134 13.86649,9.10056 l 2.41568,2.00482 0.0202,6.03814 c 0.0259,7.77665 0.31436,8.70717 3.14684,10.152187 2.50874,1.27986 6.65894,5.50906 7.74475,7.89217 0.58788,1.29023 1.5162,1.5754 8.39244,2.57805 4.2523,0.62005 8.16048,1.50431 8.68485,1.96503 0.52436,0.46071 2.87109,1.17146 5.21493,1.57942 3.56602,0.62071 4.92121,0.57633 8.30332,-0.27187 2.22297,-0.5575 4.49555,-1.01364 5.05017,-1.01364 0.55462,0 3.46802,1.13097 6.47422,2.51328 4.26387,1.96059 5.46583,2.79921 5.46583,3.81356 0,0.71515 0.26612,1.30028 0.59139,1.30028 0.32526,0 0.68278,0.64354 0.79449,1.43008 0.16948,1.19337 0.62394,1.44411 2.74548,1.51478 2.45174,0.0817 3.43613,0.31472 6.51483,1.54238 3.16392,1.26164 0.75033,6.34436 -3.63687,7.65879 -2.64052,0.79112 -3.17218,1.75201 -3.18708,5.76019 -0.008,2.10695 0.20788,2.40565 2.2159,3.06836 3.75921,1.24065 2.59683,3.17796 -1.90678,3.17796 -1.16634,0 -2.57303,0.17361 -3.12598,0.3858 -1.14207,0.43825 -1.38636,3.75287 -0.32494,4.40887 0.74554,0.46077 0.22874,4.89113 -0.79858,6.84595 -0.47892,0.91131 -0.79512,0.99645 -1.50691,0.40572 -1.33915,-1.11139 -4.0953,-0.21538 -4.0953,1.33136 0,0.70245 -0.85805,2.97699 -1.90678,5.05451 -2.33335,4.62233 -2.36847,5.53723 -0.24964,6.50263 1.52984,0.69705 1.62744,0.97672 1.27061,3.64103 -0.85198,6.36127 -2.27341,9.4087 -5.5563,11.91226 -1.70048,1.29681 -3.09179,2.60504 -3.09179,2.9072 0,0.30215 -0.82727,1.75177 -1.83838,3.22137 -1.79094,2.60302 -1.80895,2.70836 -0.69771,4.08069 1.08532,1.34031 1.26633,1.36436 3.72868,0.4956 1.6547,-0.58381 2.72872,-0.68539 2.97824,-0.28167 0.52059,0.84235 -1.67728,5.40251 -4.0159,8.3322 -1.03521,1.29687 -2.23474,3.6171 -2.66563,5.15607 -0.75683,2.70315 -0.90232,2.82665 -4.28598,3.63838 -1.92641,0.46214 -3.58371,1.14509 -3.68289,1.51767 -1.33591,5.01827 -1.84632,6.32957 -2.85715,7.3404 -0.69006,0.69006 -1.7055,1.05215 -2.42384,0.8643 -0.80796,-0.21129 -2.06421,0.40366 -3.62604,1.77496 l -2.38976,2.09824 0.40254,5.10484 c 0.55063,6.98275 0.98904,8.20747 3.71026,10.36496 1.29669,1.02807 3.6642,3.47317 5.26112,5.43356 2.31133,2.8374 2.8221,3.88871 2.50435,5.1547 -0.21953,0.8747 -0.0405,2.98952 0.39773,4.69962 0.77168,3.01091 0.73215,3.22243 -1.24956,6.6861 -2.08529,3.6447 -2.10597,4.40139 -0.14891,5.44878 1.05139,0.56268 3.04324,-0.027 6.72081,-1.98965 0.93589,-0.49947 1.40186,-0.41099 1.97685,0.37536 0.41672,0.56989 1.64256,1.02887 2.74793,1.02887 1.73153,0 1.99561,-0.22134 1.99561,-1.67262 0,-1.12743 0.905,-2.57761 2.77654,-4.44915 1.5271,-1.52709 3.07653,-2.77654 3.44319,-2.77654 0.36667,0 1.15479,1.27817 1.75141,2.84037 0.93891,2.45852 1.24408,2.75509 2.26999,2.20604 0.99,-0.52983 1.47435,-0.21643 2.94028,1.90246 2.13688,3.08871 4.22714,3.3366 8.33474,0.98839 1.52138,-0.86973 2.88704,-1.58132 3.0348,-1.58132 0.14776,0 0.54639,0.73051 0.88585,1.62336 l 0.6172,1.62335 2.06834,-1.48843 c 1.13759,-0.81864 2.9979,-1.81033 4.13402,-2.20375 1.96734,-0.68125 2.06568,-0.64029 2.06568,0.86026 0,0.86656 0.29111,2.11951 0.64692,2.78434 0.91489,1.70948 6.57777,1.52281 12.6829,-0.41808 5.78425,-1.83888 6.80848,-1.87224 7.32696,-0.23868 0.4634,1.46005 0.25787,1.41295 7.07141,1.62031 5.12793,0.15606 6.87639,0.65982 8.7326,2.51603 0.8652,0.8652 0.865,1.21009 -0.002,3.28488 -1.39174,3.33089 -0.71331,6.31992 1.53326,6.75525 0.95461,0.18498 2.16047,-0.0236 2.68581,-0.4645 0.68364,-0.5738 2.78588,-0.71808 7.43016,-0.50996 l 6.47676,0.29023 0.99146,2.08935 c 0.5453,1.14914 0.99724,2.47514 1.00431,2.94667 0.007,0.47153 2.29173,3.57449 5.07703,6.89547 2.7853,3.32097 5.69599,7.25231 6.46822,8.73629 0.77222,1.48399 1.94663,2.87037 2.6098,3.08085 1.11885,0.35512 1.08046,0.5135 -0.53266,2.19723 -1.60206,1.67219 -1.67549,1.9665 -0.936,3.75177 0.44134,1.06549 1.02039,1.93725 1.28678,1.93725 0.2664,0 0.63394,0.57203 0.81678,1.27118 0.35482,1.35684 3.21663,1.81766 3.94719,0.6356 0.63938,-1.03453 4.20313,-0.72846 7.90627,0.67901 2.62613,0.99813 4.19211,1.21289 6.51483,0.89343 3.79718,-0.52225 3.97931,0.30003 0.87082,3.93161 -1.20279,1.40519 -2.37075,3.38729 -2.59546,4.40465 -0.77114,3.49132 -0.7428,3.46502 -2.65717,2.46648 -2.31648,-1.20829 -2.56674,-1.17888 -3.05484,0.35897 -0.48747,1.53591 -6.94288,8.03565 -10.13673,10.20635 -1.52584,1.03703 -2.11557,1.83695 -1.83074,2.48323 0.23109,0.52436 0.48821,1.89015 0.57138,3.03508 0.1829,2.51776 1.26648,3.95644 2.97993,3.95644 1.06966,0 1.21312,0.29844 0.89885,1.86981 -0.28608,1.4304 0.106,2.61662 1.66843,5.04771 1.12332,1.74785 2.36106,3.19457 2.75054,3.21494 0.38948,0.0203 1.19968,1.32411 1.80045,2.8972 1.25131,3.27651 2.24826,3.54936 5.87206,1.60713 1.61152,-0.86373 2.57612,-1.05534 3.10463,-0.61673 0.43426,0.36041 1.90695,0.45399 3.39634,0.21583 2.03796,-0.32588 2.90812,-0.16847 3.86735,0.69962 0.82805,0.74937 1.82195,1.00495 3.00285,0.77215 3.00741,-0.59286 10.98123,2.09552 10.98123,3.70234 0,0.42556 -0.40302,1.7383 -0.8956,2.9172 -1.52866,3.6586 -0.73814,5.30661 3.82626,7.97667 3.52337,2.06109 4.06086,2.62151 4.06086,4.2341 0,1.02223 -0.61992,2.86164 -1.37759,4.08759 -0.96757,1.56556 -1.35633,3.16264 -1.30614,5.36585 0.0597,2.62244 -0.28596,3.63435 -2.10802,6.17051 -1.1987,1.66852 -2.56792,3.95754 -3.04271,5.08672 l -0.86325,2.05307 7.20903,7.16238 c 5.46329,5.42794 7.20902,7.55826 7.20902,8.79717 0,0.89912 0.17361,2.08719 0.3858,2.64015 0.28995,0.75561 -0.0189,1.00537 -1.24321,1.00537 -0.89597,0 -3.12813,0.88391 -4.96037,1.96424 -2.86243,1.68775 -3.42862,1.83119 -4.02244,1.01911 -1.32884,-1.8173 -5.52398,-3.08383 -8.75088,-2.64192 -1.74404,0.23884 -3.01907,0.74411 -3.01907,1.1964 0,0.43063 -0.71504,1.4547 -1.58898,2.27573 -0.87394,0.82103 -1.59869,1.94345 -1.61055,2.49427 -0.0119,0.55082 -0.57419,2.14556 -1.24962,3.54387 -1.3803,2.85756 -1.60961,5.11836 -0.58347,5.75255 0.43388,0.26815 0.0381,1.10307 -1.07231,2.26208 -1.31955,1.37732 -2.34832,1.83706 -4.11082,1.83706 -1.29295,0 -3.17004,0.42727 -4.17134,0.94948 -1.00129,0.52221 -2.29757,0.95123 -2.8806,0.95339 -1.74158,0.006 -7.5765,3.20739 -7.92583,4.34801 -0.93446,3.0511 -2.10329,4.24384 -4.46291,4.55421 -1.99235,0.26206 -2.52913,0.65221 -3.06056,2.22457 -0.35444,1.04873 -1.07509,2.26593 -1.60144,2.70489 -0.82678,0.68952 -0.6189,1.09025 1.52794,2.94526 2.29763,1.98532 2.49906,2.42819 2.67247,5.87562 0.10315,2.05066 0.36502,4.45312 0.58194,5.33881 0.38009,1.55189 0.29996,1.60133 -2.20774,1.36218 -1.44812,-0.1381 -3.00611,0.0871 -3.51306,0.50786 -0.50101,0.4158 -1.48322,0.57436 -2.18269,0.35236 -1.02073,-0.32397 -1.52839,0.0994 -2.57177,2.14458 -1.08427,2.12534 -1.17648,2.81934 -0.55564,4.18193 0.56899,1.24881 0.56873,1.80934 -10e-4,2.37918 -1.22616,1.22616 -0.84719,2.39801 0.77551,2.39801 0.83654,0 1.69953,0.46528 1.91774,1.03395 0.41981,1.09399 -0.61027,2.77961 -1.69859,2.77961 -0.35563,0 -0.98065,0.45684 -1.38893,1.0152 -0.66243,0.90593 -0.96018,0.83191 -2.76592,-0.68752 -1.71074,-1.4395 -1.9178,-1.90037 -1.33937,-2.98119 0.37632,-0.70315 0.50996,-1.97272 0.29699,-2.82127 -0.21298,-0.84856 -0.0946,-2.0897 0.26317,-2.7581 0.96916,-1.8109 -1.93483,-3.586 -6.77702,-4.14256 l -3.93281,-0.45204 -0.43109,2.29793 c -0.52342,2.79003 -2.58731,4.53224 -3.98161,3.36103 -0.50835,-0.42702 -2.10094,-1.24173 -3.53908,-1.81047 -2.37738,-0.94019 -2.66441,-1.30137 -3.16124,-3.97786 -0.70953,-3.82238 -2.21924,-4.28203 -6.66495,-2.02922 -1.98836,1.00758 -4.28877,1.63861 -5.97352,1.63861 -4.22315,0 -5.53889,1.26716 -5.46818,5.26627 0.0322,1.82283 -0.15474,4.80487 -0.41548,6.62674 l -0.47407,3.31249 -5.64229,2.0183 c -5.94243,2.12566 -8.6297,4.13812 -9.17284,6.86939 -0.18028,0.90659 -0.77793,3.01438 -1.32811,4.68398 -0.55017,1.66961 -0.8633,3.5596 -0.69584,4.19998 0.45003,1.72094 -0.65803,3.25167 -2.35383,3.25167 -0.8196,0 -2.37848,0.82979 -3.46418,1.84399 -2.3669,2.21101 -2.58692,4.73097 -0.59793,6.84816 1.41267,1.50372 1.34943,1.99329 -0.68337,5.2909 -0.32325,0.52436 -0.91528,1.84245 -1.31564,2.92908 -0.53339,1.44771 -1.57929,2.37445 -3.9138,3.46788 -1.75224,0.8207 -3.44281,1.97225 -3.75682,2.55899 -0.61817,1.15506 0.78555,7.70731 1.72193,8.03757 3.01178,1.06225 2.1676,3.95194 -1.59422,5.45712 -1.75195,0.70099 -2.60875,1.4615 -2.75077,2.44162 -0.17393,1.20037 -0.62062,1.43349 -2.84972,1.48728 -1.45391,0.0351 -3.11737,0.45708 -3.69658,0.93777 -1.87922,1.55962 -3.03152,4.52931 -2.65581,6.84455 0.28505,1.75655 0.0488,2.4913 -1.20399,3.74407 -1.01278,1.01278 -1.55864,2.27954 -1.55864,3.61712 0,1.65297 -0.68869,2.73865 -3.49576,5.51085 -1.92267,1.89878 -3.49576,3.63772 -3.49576,3.8643 0,0.81458 4.86493,3.76281 6.20908,3.76281 1.55588,0 6.02999,3.64295 5.69786,4.63936 -0.11953,0.35858 -1.63192,0.67699 -3.36086,0.70758 l -3.14336,0.0556 0.17191,2.14377 c 0.0945,1.17908 -0.0797,2.46615 -0.38726,2.86017 -0.30754,0.39402 -0.74806,1.71746 -0.97893,2.94097 -0.23087,1.22352 -1.03388,2.69083 -1.78447,3.2607 l -1.3647,1.03611 1.37723,1.75087 c 0.79904,1.01581 1.39755,2.71553 1.42563,4.04863 0.0732,3.47555 1.49368,11.66671 1.94494,11.21545 0.21812,-0.21812 2.18124,-0.4574 4.36249,-0.53174 l 3.96591,-0.13516 3.44286,7.29903 c 1.89356,4.01446 4.03931,7.93392 4.76831,8.70991 1.09769,1.16844 1.25368,1.88951 0.90778,4.19616 -0.55124,3.67592 -0.071,4.70404 2.61065,5.58906 1.73086,0.57124 2.56803,0.55985 3.70838,-0.0505 2.18041,-1.16691 4.36849,-0.32469 5.73141,2.2061 l 1.19902,2.22645 -1.93836,2.07885 c -1.22952,1.31864 -2.32571,3.52801 -2.99761,6.0417 -0.58259,2.17958 -1.05926,4.08801 -1.05926,4.24097 0,0.15295 1.07257,0.62467 2.38348,1.04827 1.31091,0.42359 3.90869,1.33321 5.77285,2.02138 3.17897,1.17355 3.36069,1.35567 2.92737,2.93379 -0.2541,0.92541 -0.49224,2.95772 -0.52921,4.51625 -0.0623,2.62954 -0.21602,2.87656 -2.13288,3.42881 -1.4796,0.42627 -2.06969,0.97478 -2.07981,1.93326 -0.008,0.73599 -0.57345,2.0532 -1.25705,2.92714 -0.69861,0.89311 -1.24911,2.5905 -1.25705,3.87593 -0.0126,2.0424 -0.28199,2.40772 -2.51908,3.41651 -2.85474,1.2873 -3.33669,2.11167 -2.80087,4.79076 0.3118,1.55904 0.69484,1.89985 2.13515,1.89985 1.4703,0 1.80133,0.31436 2.03943,1.93659 0.29464,2.00752 0.25502,2.04553 -11.43366,10.97053 -0.54996,0.41993 -1.17764,0.27985 -1.97376,-0.44066 -0.64423,-0.58303 -1.62909,-0.87922 -2.19775,-0.66102 -0.66012,0.25329 -2.0065,-0.44224 -3.74658,-1.93557 -2.23147,-1.91491 -3.05644,-2.26481 -4.62295,-1.96049 -2.22027,0.43138 -3.49576,1.88822 -3.49576,3.99293 0,0.8194 -0.46791,2.20398 -1.0398,3.07678 -0.92207,1.40726 -1.15595,1.48233 -2.06568,0.66279 -0.56424,-0.50834 -1.81243,-1.12048 -2.77376,-1.36042 -1.36311,-0.34017 -1.74788,-0.21114 -1.74788,0.58608 0,1.40886 -2.39925,1.31466 -6.50801,-0.25551 -3.84639,-1.46993 -9.1954,-2.24428 -11.50277,-1.66519 -1.76115,0.44206 -6.15354,4.40333 -7.33934,6.61901 -0.51839,0.96864 -0.58132,2.0883 -0.19584,3.48438 0.56904,2.06091 -0.14969,4.91587 -1.23755,4.91587 -0.29147,0 -0.94174,-0.98555 -1.44504,-2.19013 -0.65784,-1.57442 -1.77701,-2.62099 -3.98099,-3.72267 -6.07596,-3.03705 -8.60413,-2.90339 -10.88062,0.57541 -1.87365,2.86315 -6.33937,4.87754 -10.55091,4.75925 -3.16355,-0.0888 -5.4691,1.11839 -5.4691,2.86373 0,0.9806 -0.93169,1.6556 -1.50033,1.08693 z"
     id="path3775"
     inkscape:connector-curvature="0"
     sodipodi:nodetypes="cscccscccssssscsscscssssssscsscssscssssscsscssscscssscsccssssssssssscsscssssssssssssssscssssssscsssscsssssssssssssscsssssssscscscscsssssscsssssssscsssscsscsssssssscsscssssssssscssssscsssssssscssscscssscscscsssssscscssssssscssssssccsssssscscccsscsssscsssscscsssssscscsssssssssccssccsscsssssscscc" />
</svg>
