<?xml version="1.0" encoding="UTF-8" standalone="no"?>
<svg viewBox="0 0 527.67444 333.1022" xmlns="http://www.w3.org/2000/svg" xmlns:xlink="http://www.w3.org/1999/xlink">
<defs>
<linearGradient id="linearGradient699">
<stop offset="0"/>
<stop offset="1" stop-color="#dddfdf"/>
</linearGradient>
<linearGradient gradientTransform="matrix(1.33514,0,0,.74898,-124.10696,420.23745)" gradientUnits="userSpaceOnUse" id="linearGradient2214" x1="-166.4194" x2="-165.38391" xlink:href="#linearGradient699" y1="996.65234" y2="986.05389"/>
<linearGradient gradientTransform="matrix(.769,0,0,1.3004,87.91546,354.40895)" gradientUnits="userSpaceOnUse" id="linearGradient2216" x1="136.07536" x2="119.98525" xlink:href="#linearGradient699" y1="367.25668" y2="356.59967"/>
<radialGradient cx="438.2159" cy="1226.28933" gradientUnits="userSpaceOnUse" id="radialGradient2190" r="7.31635" xlink:href="#linearGradient699"/>
<radialGradient cx="429.22758" cy="1175.96816" gradientUnits="userSpaceOnUse" id="radialGradient2218" r="39.15177" xlink:href="#linearGradient699"/>
<radialGradient cx="798.8756" cy="2192.27045" gradientUnits="userSpaceOnUse" id="radialGradient2220" r="55.2161" spreadMethod="reflect" xlink:href="#linearGradient699"/>
<radialGradient cx="468.07606" cy="1103.50968" gradientUnits="userSpaceOnUse" id="radialGradient2222" r="4.52448" xlink:href="#linearGradient699"/>
<radialGradient cx="419.03436" cy="1147.16559" gradientUnits="userSpaceOnUse" id="radialGradient2252" r="7.31635" xlink:href="#linearGradient699"/>
</defs>
<g transform="translate(-105.49855,-425.29074)">
<path d="m146.35505,606.40073 111.87348,95.7821" fill="none" stroke="#000"/>
<path d="m162.30564,591.65113 32.46438,44.05808" fill="none" stroke="#000"/>
<path d="m183.60177,577.92254 41.97757,146.60842" fill="none" stroke="#000"/>
<path d="m208.7804,575.20828-3.01587,155.86824" fill="none" stroke="#000"/>
<path d="m210.57982,672.49122 32.46438,44.05808" fill="none" stroke="#000"/>
<path d="m228.87196,583.94145-47.03027,142.99944" fill="none" stroke="#000"/>
<path d="m252.89304,594.93628-93.53993,117.94476" fill="none" stroke="#000"/>
<path d="m269.94522,612.04345-126.1118,82.1979" fill="none" stroke="#000"/>
<path d="m281.10069,639.04621-148.42271,25.12734" fill="none" stroke="#000"/>
<path d="m274.98198,676.85866-143.84787-44.3675" fill="none" stroke="#000"/>
<path d="m468.61053,620.34357 124.82218,78.16208" fill="none" stroke="#000"/>
<path d="m489.50296,598.31648 85.3361,121.45002" fill="none" stroke="#000"/>
<path d="m510.79909,584.58789 41.97757,146.60842" fill="none" stroke="#000"/>
<path d="m535.97772,581.87363-3.01587,150.50444" fill="none" stroke="#000"/>
<path d="m558.36805,586.00926-49.32904,147.59698" fill="none" stroke="#000"/>
<path d="m580.09036,601.60163-93.53993,117.94476" fill="none" stroke="#000"/>
<path d="m597.14254,618.7088-126.1118,82.1979" fill="none" stroke="#000"/>
<path d="m608.29801,645.71156-148.42271,25.12734" fill="none" stroke="#000"/>
<path d="m604.39369,672.79541-148.27665-25.97532" fill="none" stroke="#000"/>
</g>
<g transform="translate(-105.49855,-425.29074)">
<path d="m535.49668,743.74735c-47.3961,1.2835-86.8586-36.0984-88.1421-83.4946s36.0978-86.8591 83.494-88.1426 86.8591,36.0981 88.1427,83.4945-36.0983,86.8591-83.4946,88.1427zm-.3471-12.83c-40.3105,1.0916-73.8735-30.7014-74.9651-71.0122s30.7014-73.8735 71.0119-74.9651 73.8735,30.7014 74.9652,71.0119-30.7015,73.8737-71.012,74.9654zm-1.7371-64.1569c-4.8775.1321-8.9388-3.715-9.0708-8.5926s3.7149-8.9387 8.5924-9.0708 8.9388,3.7149 9.0709,8.5924-3.715,8.9389-8.5925,9.071z" fill="#676767" fill-rule="evenodd" stroke="#000"/>
<path d="m633.17298,657.92905c0,55.2284-44.7716,100-100.0001,100s-100-44.7716-100-100 44.7714-100 100-100 100.0001,44.7715 100.0001,100zm-14.9501-.0004c0,46.9718-38.0782,85.05-85.0501,85.05s-85.0499-38.0782-85.0499-85.05 38.0781-85.0499 85.0499-85.0499 85.0501,38.0782 85.0501,85.0499zm-74.7589-.0004c0,5.6836-4.6075,10.2911-10.2911,10.2911s-10.291-4.6075-10.291-10.2911 4.6074-10.291 10.291-10.291 10.2911,4.6075 10.2911,10.291z" fill-rule="evenodd"/>
<path d="m207.28258,740.20391c-47.3961,1.2835-86.85859-36.0984-88.14209-83.4946s36.09779-86.8591 83.49399-88.1426 86.8591,36.0981 88.1427,83.4945-36.0983,86.8591-83.4946,88.1427zm-.3471-12.83c-40.3105,1.0916-73.8735-30.7014-74.9651-71.0122s30.7014-73.8735 71.0119-74.9651 73.8735,30.7014 74.9652,71.0119-30.7015,73.8737-71.012,74.9654zm-1.7371-64.1569c-4.8775.1321-8.9388-3.715-9.0708-8.5926s3.7149-8.9387 8.5924-9.0708 8.9388,3.7149 9.0709,8.5924-3.715,8.9389-8.5925,9.071z" fill="#676767" fill-rule="evenodd" stroke="#000"/>
<g stroke="#000" transform="translate(17.09307,-191.3315)">
<path d="m321.29159,793.16327h20.3294a4.41937,4.41937 0 0,1 4.41937,4.41937v4.41949a4.41937,4.41937 0 0,1 -4.41937,4.41937h-20.3294a4.41937,4.41937 0 0,1 -4.41937-4.41937v-4.41949a4.41937,4.41937 0 0,1 4.41937-4.41937" fill="#191a19" fill-rule="evenodd" stroke="#000"/>
<path d="m336.75958,801.00787a3.97748,3.867 0 1,1 -7.95495,0 3.97748,3.867 0 1,1 7.95495,0z" fill="url(#radialGradient2190)" fill-rule="evenodd" stroke="#000" stroke-width="1.25" transform="translate(-1.32584,-1.76776)"/>
</g>
<path d="m350.18829,666.02131c3.6705-.1191 7.6458-2.8413 7.4969-7.4307l-2.9012-48.5409c-.3698-4.5822-2.2902-6.6709-5.9608-6.5518-3.229.1047-5.4589,2.107-5.5309,6.7035l-.4185,48.4276c.1489,4.5893 3.6437,7.5114 7.3145,7.3923z" fill="#3d3d3d" fill-rule="evenodd" stroke="#000"/>
<path d="m210.24815,750.57343a21.85163,21.85162 0 1,1 -43.70327,0 21.85163,21.85162 0 1,1 43.70327,0z" fill="#3d3d3d" fill-rule="evenodd" transform="matrix(1.10118,0,0,1.10118,-1.98407,-172.887)"/>
<path d="m210.24815,750.57343a21.85163,21.85162 0 1,1 -43.70327,0 21.85163,21.85162 0 1,1 43.70327,0z" fill="#3d3d3d" fill-rule="evenodd" transform="matrix(1.00107,0,0,1.00107,16.87574,-97.7494)"/>
<path d="m305.49867,653.8444c0,55.2284-44.7716,100-100.0001,100s-100.00002-44.7716-100.00002-100 44.77145-100 100.00002-100 100.0001,44.7715 100.0001,100zm-14.9501-.0004c0,46.9718-38.0782,85.05-85.0501,85.05s-85.04997-38.0782-85.04997-85.05 38.0782-85.0499 85.04997-85.0499 85.0501,38.0782 85.0501,85.0499zm-74.7589-.0004c0,5.6836-4.6075,10.2911-10.2911,10.2911s-10.291-4.6075-10.291-10.2911 4.6074-10.291 10.291-10.291 10.2911,4.6075 10.2911,10.291z" fill-rule="evenodd"/>
<path d="m210.24815,750.57343a21.85163,21.85162 0 1,1 -43.70327,0 21.85163,21.85162 0 1,1 43.70327,0z" fill="#3d3d3d" fill-rule="evenodd" transform="matrix(.90096,0,0,.90096,35.73555,-22.6118)"/>
<path d="m210.24815,750.57343a21.85163,21.85162 0 1,1 -43.70327,0 21.85163,21.85162 0 1,1 43.70327,0z" fill="#3d3d3d" fill-rule="evenodd" transform="matrix(.81087,0,0,.81087,52.70937,45.0121)"/>
<path d="m210.24815,750.57343a21.85163,21.85162 0 1,1 -43.70327,0 21.85163,21.85162 0 1,1 43.70327,0z" fill="#3d3d3d" fill-rule="evenodd" transform="matrix(.72978,0,0,.72978,67.98583,105.8737)"/>
<path d="m139.61929,500.38226h12.32735v52.4527h-12.32735z" fill="#676767" fill-rule="evenodd" stroke="#000" transform="matrix(.96595,-.25874,.25874,.96595,0,0)"/>
<path d="m279.26407,452.0234c-6.6817,6.2272-21.0291,5.0112-30.4852,5.0112-11.9616-.6264-15.4513-9.6417-15.4513-15.8689s3.0782-12.2717 12.9457-10.44c2.7321.5181 40.09,14.6529 32.9908,21.2977z" fill-rule="evenodd"/>
<path d="m310.37563,443.9844c0,3.4019-10.7101,10.7534-24.9519,10.7534s-43.1176-17.1652-43.1176-20.5671 28.2494,3.0276 42.4912,3.0276 25.5783,3.3842 25.5783,6.7861z" fill-rule="evenodd"/>
<g fill="#3d3d3d" transform="translate(18.92627,-90.31761)">
<path d="m97.01584,630.33514h16.28667a2.50562,2.50562 0 0,1 2.50562,2.50562v5.84656a2.50562,2.50562 0 0,1 -2.50562,2.50562h-16.28667a2.50562,2.50562 0 0,1 -2.50562-2.50562v-5.84656a2.50562,2.50562 0 0,1 2.50562-2.50562" fill="#3d3d3d" fill-rule="evenodd" transform="matrix(.96698,-.25485,.25485,.96698,0,0)"/>
<path d="m257.77063,585.97402c-2.3329,1.1505-4.1991,3.4037-3.3258,6.2581v.0001c1.2116,2.5326 3.6034,4.1381 6.2581,3.3259l15.329-4.3028c3.49-1.0212 4.1261-3.6836 3.3138-6.756l-.4211-1.7851c-.9345-2.4276-3.8794-3.5445-6.0447-2.5244l-15.1093,5.7842zm1.4495,2.1681c-1.2348.5713-2.2531,1.6282-1.8662,2.8928v.0001c.5696,1.1121 1.7716,1.7799 3.1654,1.3534l6.7123-1.6666c1.3936-.4264 3.0918-1.8848 2.7319-3.061l-.3554-1.5361c-.414-1.3532-2.4547-1.7643-4.1595-.8557l-6.2285,2.8731z" fill="#3d3d3d" fill-rule="evenodd"/>
<path d="m312.5778,590.28149a2.81883,2.92325 0 1,1 -5.63766,0 2.81883,2.92325 0 1,1 5.63766,0z" fill="#3d3d3d" fill-rule="evenodd" transform="matrix(.99775,0,0,.96211,-33.97296,17.13171)"/>
</g>
<path d="m-225.55914,741.41791h7.51688a4.80249,4.80249 0 0,1 4.80249,4.80249 4.80249,4.80249 0 0,1 -4.80249,4.80249h-7.51688a4.80249,4.80249 0 0,1 -4.80249-4.80249 4.80249,4.80249 0 0,1 4.80249-4.80249" fill="url(#linearGradient2214)" fill-rule="evenodd" transform="matrix(.86265,-.50581,.50581,.86265,18.15997,-92.44389)"/>
<g font-size="12" transform="matrix(1.2,0,0,1.2,92.62002,110.53341)">
<path d="m106.07187,469.80209a6.68169,6.26407 0 1,1 -13.36339,0 6.68169,6.26407 0 1,1 13.36339,0z" fill="#343333" fill-rule="evenodd" transform="matrix(.93539,0,0,.99775,6.42146,1.0555)"/>
<path d="m106.07187,469.80209a6.68169,6.26407 0 1,1 -13.36339,0 6.68169,6.26407 0 1,1 13.36339,0z" fill="#323432" fill-rule="evenodd" transform="matrix(.93539,0,0,.99775,7.25668,16.92456)"/>
<path d="m100.3255,491.5284c-2.40234.0738-5.31523-1.4113-5.90581-1.9193 4.57704.23 8.15431-.5907 11.22111-3.1006 .7044.2953-.9935,4.7984-5.3153,5.0199zm4.7247-9.7078c.6644,3.0044-8.54003,3.5806-9.44937,3.7282 2.78187-3.9125 1.25502-4.1196-1.47644-15.1707 2.65762,2.0895 9.05681,1.218 10.85191-.7013-1.2315,5.3152-.4428,9.2133.0739,12.1438zm1.6241-11.9223c.3713-3.322-2.3644-7.2499-7.30749-7.3716-4.55602.0592-7.74158,4.2023-7.14154,6.6684 .16812,1.4103 2.78111,10.3436 3.01354,11.9433 .57593,3.2764-2.78607,4.7657-5.58804,6.0104 1.64086,2.3544 6.55744,5.9429 10.18584,5.958 5.32949-.0485 8.65369-3.9615 7.75019-8.3102-1.4511-4.8195-1.4639-10.4983-.9125-14.8983z" fill="url(#linearGradient2216)" fill-rule="evenodd"/>
</g>
<path d="m306.46937,713.49078h12.26255a5.47956,5.47956 0 0,1 5.47956,5.47956 5.47956,5.47956 0 0,1 -5.47956,5.47956h-12.26255a5.47956,5.47956 0 0,1 -5.47956-5.47956 5.47956,5.47956 0 0,1 5.47956-5.47956" fill="#323232" fill-rule="evenodd" transform="matrix(.98588,.16744,-.16744,.98588,18.15997,-92.44389)"/>
<path d="m339.93237,750.43207a16.70428,16.28668 0 1,1 -33.40857,0 16.70428,16.28668 0 1,1 33.40857,0z" fill="url(#radialGradient2218)" fill-rule="evenodd" stroke="#000" stroke-width="1.25" transform="translate(27.34737,-94.1143)"/>
<path d="m377.19727,850.61584a.55243,.22098 0 1,1 -1.10486,0 .55243,.22098 0 1,1 1.10486,0z" fill="#808080" fill-rule="evenodd" transform="translate(18.15997,-92.44389)"/>
<path d="m415.64619,863.76355a39.66426,40.99011 0 1,1 -79.32852,0 39.66426,40.99011 0 1,1 79.32852,0z" fill="url(#radialGradient2220)" fill-rule="evenodd" stroke="#000" transform="matrix(.31515,0,0,.30495,231.6796,394.1139)"/>
<path d="m365.31323,678.29895a2.73438,2.65625 0 1,1 -5.46875,0 2.73438,2.65625 0 1,1 5.46875,0z" fill="url(#radialGradient2222)" fill-rule="evenodd" transform="translate(-51.69373,-73.77967)"/>
<path d="m462.38167,435.1957 11.12415,33.85172 13.66379-.71827-5.99694-22.07555c-.2981-1.6294.5684-3.4796 2.0417-3.564 2.7075-.1552 16.1163-1.4494 19.7747-1.7942 8.5642-.8 7.5846-15.5409-2.7838-14.2456-11.773,1.4812-38.7048,5.4265-37.8236,8.5459z" fill="#808080" fill-rule="evenodd" stroke="#000"/>
<g transform="matrix(.75392,-.15301,.11673,.98823,103.3823,5.5606)">
<path d="m430.00031,501.73679a10,11.87503 0 1,1 -20,0 10,11.87503 0 1,1 20,0z" fill="#323334" fill-rule="evenodd"/>
<path d="m396.25034,493.61176h18.74994a8.75003,8.75003 0 0,1 8.75003,8.75003 8.75003,8.75003 0 0,1 -8.75003,8.75003h-18.74994a8.75003,8.75003 0 0,1 -8.75003-8.75003 8.75003,8.75003 0 0,1 8.75003-8.75003" fill="#333433" fill-rule="evenodd"/>
</g>
<path d="m483.34027,429.222c-4.0777.8968-.1084,4.2768.726,8.6597s-1.7915,8.0594 2.2863,7.1626l6.0616-1.3331c4.0777-.8968 6.6887-5.1472 5.8543-9.53s-4.7889-7.1893-8.8666-6.2925l-6.0616,1.3333z" fill="#333" fill-rule="evenodd"/>
<path d="m473.90047,444.1728c-.7823.1896-3.7763-.5106-3.7135,1.6648l.486,1.753c1.394,3.1195 3.2937.4895 4.0759.3l16.0842-3.1411c1.4338-.3477 2.2721-1.3988 2.1264-2.4165l-.1013-.7068c-.1458-1.0177-1.4323-2.4486-3.2014-1.9327l-15.7563,4.4793z" fill="#676767" fill-rule="evenodd"/>
<g fill="#a60003" stroke="#000" transform="translate(18.15997,-92.44389)">
<path d="m453.27859,557.8909 17.38546,67.90435 15.44116-5.13335-16.4136-67.91-16.41302,5.139z" fill="#a60003" fill-rule="evenodd" stroke="#000"/>
<path d="m73.90588,639.71631h17.49462v155.11815h-17.49462z" fill="#a60003" fill-rule="evenodd" stroke="#000" transform="matrix(.98028,-.19761,.29329,.95602,0,0)"/>
<path d="m749.57986,100.29494 9.05969,194.16323c8.2846-7.4666 5.64375-11.34857 15.04115-6.99537l-10.88544-184.84329c-1.7442-10.3423-7.2032-7.82121-13.2154-2.32457z" fill="#a60003" fill-rule="evenodd" stroke="#000" transform="matrix(.71211,.70207,-.70299,.7112,0,0)"/>
<path d="m300.42837,650.11987h22.76136a3.96734,3.96734 0 0,1 3.96734,3.96734v5.42862a3.96734,3.96734 0 0,1 -3.96734,3.96734h-22.76136a3.96734,3.96734 0 0,1 -3.96734-3.96734v-5.42862a3.96734,3.96734 0 0,1 3.96734-3.96734" fill="#a60003" fill-rule="evenodd" stroke="#000" transform="matrix(.96991,-.24348,.2426,.97013,0,0)"/>
<path d="m14.01855,660.7006c-.65284,9.0379-8.73742,12.35139-1.90566,12.54149l171.3726,49.82861c7.5158-.8463 12.63466-10.28663 5.84676-9.80053l-175.31371-52.56957z" fill="#a60003" fill-rule="evenodd" stroke="#000" transform="matrix(.9163,-.4005,.4005,.9163,0,0)"/>
<g fill="#a60003" stroke="#000">
<path d="m468.0006,626.2742c-2.4755,1.2824-2.653,5.3707-1.1691,8.3314l1.5428,3.7679c1.0662,3.7957 3.2558,5.3761 6.1489,4.5113l16.2983-4.655c2.8931-.8649 2.9482-4.118 1.8819-7.9139l-.2647-4.333c-1.0662-3.7959-2.4205-5.8192-4.8961-5.372l-19.542,5.6633z" fill="#a60003" fill-rule="evenodd" stroke="#000"/>
<path d="m503.0282,746.8837c.4832,2.2147 3.1408,9.8922 10.6305,11.8117l5.6105-.0001c1.5839,0 3.2481-.6307 3.2481-2.8053l-.0241-2.2377c-5.901,1.78-11.7325,3.0916-11.9133-1.232-.2256-8.9249 10.8184.1197 11.2192-5.2182l.4229-5.6336c-1.0827,3.6911-17.3729,7.087-19.1938,5.3152z" fill="#a60003" fill-rule="evenodd" stroke="#000"/>
<path d="m283.46722,768.71552h5.72382a5.73559,5.73559 0 0,1 5.73559,5.73559v80.67058a5.73559,5.73559 0 0,1 -5.73559,5.73559h-5.72382a5.73559,5.73559 0 0,1 -5.73559-5.73559v-80.67058a5.73559,5.73559 0 0,1 5.73559-5.73559" fill="#a60003" fill-rule="evenodd" stroke="#000" transform="matrix(.96098,-.27661,.27661,.96098,0,0)"/>
<path d="m275.55695,750.44055h14.61689v19.9322h-14.61689z" fill="#a60003" fill-rule="evenodd" stroke="#000" transform="matrix(.9596,-.28136,.28136,.9596,0,0)"/>
</g>
</g>
<path d="m466.8933,554.29486h15.86905a13.36348,13.36348 0 0,1 13.36348,13.36348 13.36348,13.36348 0 0,1 -13.36348,13.36348h-15.86905a13.36348,13.36348 0 0,1 -13.36348-13.36348 13.36348,13.36348 0 0,1 13.36348-13.36348" fill="#a60003" fill-rule="evenodd" stroke="#000" transform="rotate(12.2499)"/>
<path d="m205.96488,645.72901c-8.5635,2.1162-8.8588,9.8431-8.2682,15.7981 8.7604.7382 16.9302-1.1811 16.5364-6.6441l114.57271,3.8387v-12.9927h-122.84091z" fill="#a60003" fill-rule="evenodd" stroke="#080000"/>
<path d="m350.25737,650.6207 0,0zm4.5146,6.5285c.5187,3.4889 22.1458-1.0916 22.1593.1624-.0813,8.8323-2.768,16.048-10.5393,21.7575-.9508.6681-10.7211-18.3559-13.7736-17.0648s8.599,20.6015 7.3453,21.0397c-9.5581,3.2797-15.4709,2.7508-24.5129-2.6748-1.0016-.6401 13.5232-16.6165 11.2769-18.9561-2.2446-2.371-16.0475,15.4469-16.8177,14.5248-5.6856-7.0188-7.9187-15.4869-5.3248-25.6613 .3118-1.1454 19.7494,9.2447 21.0404,6.1923s-18.7081-11.5409-17.8508-12.7584c5.4188-7.8716 10.9842-11.8548 21.7364-12.4635 1.2138-.0487-1.97,21.8087 1.3357,22.049 3.1463.26 4.9012-21.2707 6.3415-20.9916 9.3924,1.6775 17.159,8.9937 18.9076,17.622 .2128,1.1198-21.8696,3.7631-21.324,7.2228zm26.9852,1.1264c0,17.397-14.103,31.5-31.5,31.5s-31.4999-14.103-31.4999-31.5 14.103-31.5 31.4999-31.5 31.5,14.103 31.5,31.5z" fill="#676767" fill-rule="evenodd" stroke="#000"/>
<path d="m350.25737,648.7069 0,0zm5.6433,8.1607c.6483,4.3611 27.6822-1.3646 27.6991.203-.1016,11.0403-3.46,20.06-13.1741,27.1968-1.1886.8352-13.4014-22.9449-17.2171-21.331s10.7488,25.7519 9.1817,26.2997c-11.9476,4.0996-19.3387,3.4384-30.6412-3.3436-1.2519-.8001 16.9041-20.7706 14.0962-23.6951-2.8058-2.9637-20.0594,19.3086-21.0221,18.156-7.107-8.7735-9.8984-19.3586-6.6561-32.0766 .3898-1.4317 24.6868,11.5559 26.3006,7.7404s-23.3852-14.4261-22.3135-15.948c6.7734-9.8395 13.7302-14.8185 27.1705-15.5794 1.5172-.0609-2.4626,27.2609 1.6696,27.5613 3.9328.325 6.1265-26.5884 7.9268-26.2395 11.7405,2.0968 21.4488,11.2421 23.6346,22.0274 .2659,1.3998-27.337,4.7039-26.655,9.0286zm33.7315,1.408c0,21.7462-17.6288,39.375-39.375,39.375s-39.3749-17.6288-39.3749-39.375 17.6287-39.375 39.3749-39.375 39.375,17.6287 39.375,39.375z" fill="#676767" fill-rule="evenodd" stroke="#000"/>
<path d="m350.72101,650.33799c-3.6724,0-7.7339,2.5919-7.7339,7.1837l1.3258,48.6094c.221,4.5918 2.0727,6.7417 5.7452,6.7417 3.2307,0 5.5243-1.9289 5.7453-6.5207l1.9886-48.3885c0-4.5918-3.3983-7.6256-7.071-7.6256z" fill="#3d3d3d" fill-rule="evenodd" stroke="#000"/>
<path d="m336.75958,801.00787a3.97748,3.867 0 1,1 -7.95495,0 3.97748,3.867 0 1,1 7.95495,0z" fill="url(#radialGradient2252)" fill-rule="evenodd" stroke="#000" transform="matrix(1.22222,0,0,1.22857,-56.23343,-326.7962)"/>
<g stroke="#000" transform="translate(19.48578,-91.55998)">
<path d="m321.29159,793.16327h20.3294a4.41937,4.41937 0 0,1 4.41937,4.41937v4.41949a4.41937,4.41937 0 0,1 -4.41937,4.41937h-20.3294a4.41937,4.41937 0 0,1 -4.41937-4.41937v-4.41949a4.41937,4.41937 0 0,1 4.41937-4.41937" fill="#191a19" fill-rule="evenodd" stroke="#000"/>
<path d="m336.75958,801.00787a3.97748,3.867 0 1,1 -7.95495,0 3.97748,3.867 0 1,1 7.95495,0z" fill="url(#radialGradient2190)" fill-rule="evenodd" stroke="#000" stroke-width="1.25" transform="translate(-1.32584,-1.76776)"/>
</g>
<path d="m195.97297,664.29261c-2.5521-.2084-14.1667-21.9793 8.2812-26.8751l56.12586-6.34399 91.13354-11.87561c43.5167.1594 56.4083,66.5689 5.5498,78.2908m-139.3506-18.646-7.5888,8.1602m3.9997,14.5083 129.0472-3.7944" fill="none" stroke="#000" stroke-linecap="round" stroke-linejoin="bevel" stroke-width="2.5"/>
<path d="m278.44404,512.2772-71.61706,134.33561c4.8221,3.0812.10244,7.78428 6.54633,3.72999l67.72523-128.1829c5.9068-3.1797 3.5456-12.6088-2.6545-9.8827z" fill="#a60003" fill-rule="evenodd" stroke="#080000"/>
<path d="m522.07462,755.00403a5.01993,5.01993 0 1,1 -10.03986,0 5.01993,5.01993 0 1,1 10.03986,0z" fill="#343434" fill-rule="evenodd" transform="translate(16.97887,-94.80629)"/>
</g>
</svg>
