<?xml version="1.0" encoding="UTF-8" standalone="no"?>
<svg
   xmlns:dc="http://purl.org/dc/elements/1.1/"
   xmlns:cc="http://creativecommons.org/ns#"
   xmlns:rdf="http://www.w3.org/1999/02/22-rdf-syntax-ns#"
   xmlns:svg="http://www.w3.org/2000/svg"
   xmlns="http://www.w3.org/2000/svg"
   xmlns:sodipodi="http://sodipodi.sourceforge.net/DTD/sodipodi-0.dtd"
   xmlns:inkscape="http://www.inkscape.org/namespaces/inkscape"
   width="1213.6244"
   height="1654.8438"
   id="svg2"
   version="1.1"
   inkscape:version="0.47 r22583"
   sodipodi:docname="Flag_of_Colombia.svg">
  <metadata
     id="metadata14">
    <rdf:RDF>
      <cc:Work
         rdf:about="">
        <dc:format>image/svg+xml</dc:format>
        <dc:type
           rdf:resource="http://purl.org/dc/dcmitype/StillImage" />
      </cc:Work>
    </rdf:RDF>
  </metadata>
  <defs
     id="defs12">
    <inkscape:perspective
       sodipodi:type="inkscape:persp3d"
       inkscape:vp_x="0 : 300 : 1"
       inkscape:vp_y="0 : 1000 : 0"
       inkscape:vp_z="900 : 300 : 1"
       inkscape:persp3d-origin="450 : 200 : 1"
       id="perspective16" />
    <inkscape:perspective
       id="perspective4892"
       inkscape:persp3d-origin="0.5 : 0.33333333 : 1"
       inkscape:vp_z="1 : 0.5 : 1"
       inkscape:vp_y="0 : 1000 : 0"
       inkscape:vp_x="0 : 0.5 : 1"
       sodipodi:type="inkscape:persp3d" />
    <inkscape:perspective
       id="perspective2824"
       inkscape:persp3d-origin="0.5 : 0.33333333 : 1"
       inkscape:vp_z="1 : 0.5 : 1"
       inkscape:vp_y="0 : 1000 : 0"
       inkscape:vp_x="0 : 0.5 : 1"
       sodipodi:type="inkscape:persp3d" />
    <inkscape:perspective
       id="perspective2837"
       inkscape:persp3d-origin="0.5 : 0.33333333 : 1"
       inkscape:vp_z="1 : 0.5 : 1"
       inkscape:vp_y="0 : 1000 : 0"
       inkscape:vp_x="0 : 0.5 : 1"
       sodipodi:type="inkscape:persp3d" />
  </defs>
  <sodipodi:namedview
     pagecolor="#ffffff"
     bordercolor="#666666"
     borderopacity="1"
     objecttolerance="10"
     gridtolerance="10"
     guidetolerance="10"
     inkscape:pageopacity="0"
     inkscape:pageshadow="2"
     inkscape:window-width="1280"
     inkscape:window-height="1004"
     id="namedview10"
     showgrid="false"
     inkscape:zoom="0.25"
     inkscape:cx="96.45172"
     inkscape:cy="1046.0398"
     inkscape:window-x="-8"
     inkscape:window-y="-8"
     inkscape:window-maximized="1"
     inkscape:current-layer="svg2" />
  <path
     style="fill:#fcd116;stroke:none"
     d="m 730.27905,0 -2.125,1.1875 -1.5,0.59375 -1.03125,1.34375 -2.375,0.625 3.28125,1.15625 1.875,-2.5625 0.15625,1.40625 2.65625,-0.375 0.59375,-1.34375 0.28125,1.03125 1,0.15625 -1.84375,0.75 0.0937,0.9375 1.375,0.5625 1.4375,-0.59375 -0.25,0.96875 -1.59375,0 -1.40625,-0.21875 -0.9375,1.1875 -1.40625,0 -1.25,0.78125 0,1.375 2.3125,0.1875 -1.4375,0.65625 -1.09375,-0.65625 -1.59375,-0.375 0,-1.96875 1.15625,-0.34375 -2.46875,-1.8125 -0.4375,1.28125 -1.53125,0 0,1.65625 -0.6875,0.75 1.40625,0 0.28125,1.0625 0.59375,1.6875 -1.71875,0.125 -1.375,1.59375 -1.3125,0.1875 -1.625,0.78125 -1.0625,1.65625 -1.96875,-0.0937 0.0625,-1.65625 -0.96875,-0.15625 -0.75,-2.09375 2.0625,-0.25 0.9375,-1.03125 0.875,-2.0625 -1.5,1.71875 -3.09375,1.09375 -0.96875,-0.34375 -2.84375,1.40625 -1.40625,2.25 -1.96875,1.0625 -1.5625,1.5 -0.25,1.65625 -1.21875,1.0625 1.34375,0.6875 0.40625,-1.3125 1.40625,0.0312 3,0.40625 0.0937,1.0625 2.15625,1.09375 -1.375,0.0625 -0.0937,2.03125 1.125,0 0.34375,2.4375 0.40625,-1.28125 1.90625,-0.21875 -1.65625,0.65625 0.3125,1.09375 -0.78125,1.71875 -1.5625,-0.65625 -0.75,-0.9375 -0.875,1.34375 -1.6875,-0.0625 -0.21875,1.25 0.28125,1.9375 -2.3125,-0.40625 -1.1875,1.21875 0.125,-0.96875 -2.65625,-0.25 -1.9375,1.03125 0.40625,-0.78125 1.5,-0.6875 0.0937,-1.1875 -1.15625,-0.46875 -0.75,-1.46875 1.75,-2.53125 1.65625,-1.125 0.125,-2.53125 -2.84375,0 -5.59375,1.8125 -9.34375,-0.65625 -2.375,1.5 -0.84375,1.40625 -1,0.65625 2.4375,0 1.96875,4.875 -1.53125,3.25 1.53125,1.5625 0.28125,1.1875 -1.5,0 -2.21875,7.53125 -3.96875,8.0625 -5.0625,5.71875 1.21875,0.65625 0.46875,1.53125 -0.84375,-1.3125 -1.5,-0.0937 -3.34375,2.25 -12.96875,6.375 -5.5625,1.25 -4.1875,-0.0937 2.8125,0.75 -0.0312,1.375 -1.15625,-0.15625 -1.375,0.90625 -1.4375,1.9375 0.15625,-1.3125 1.15625,-1.21875 -0.3125,-1.3125 -2.78125,2.4375 -3.75,0.125 -1.5,1.71875 -5.40625,1.0625 -6.0625,1.6875 -5.25,2.15625 -4.625,4.71875 -5.3125,5.75 -3.84375,2.78125 -2.96875,0.90625 -4.1875,2.15625 -3.625,2.6875 -2.5625,2.625 -3.0625,4 -2.375,0.3125 2.28125,0.3125 -0.375,1.71875 -1.25,1.8125 -0.1875,-1.5 -1.59375,0 0.90625,-1.59375 -2.5625,0.5 -5.5,6.4375 -4.96875,3.46875 -7.53125,3.78125 -8.4062,1.375 -8.9063,-0.21875 -3.5,0.84375 -1.4062,-0.9375 -1.6875,0.125 -2,-0.90625 -1.8125,0 -3.3751,0.96875 -3.0312,-0.0937 -0.375,-1.1875 -0.5938,1.71875 -3.3438,-0.0937 -1.125,-1.375 -1.9374,-0.0312 -1,1.625 -1.9688,0 -1.6562,-1.375 -3.5938,-0.53125 -3.5312,-1.625 -2.0626,-2.4375 -3.0624,-0.3125 -1.9376,-1.9375 -1.7187,-0.34375 -0.6875,-0.9375 -1.9688,0.3125 -0.9687,-1 -1.6563,-0.46875 -0.5624,1.21875 -1.1563,-0.9375 -2.25,-0.5 -0.7187,0.5 0.9374,0.46875 -0.75,1.21875 -0.9374,-0.84375 0.1562,1.375 -1.2812,-0.0937 -1,0.46875 0.375,-1.625 -1.4063,0.5 0,-1.125 -1.8125,1.25 -2.0938,0.125 0.5626,0.78125 1.6874,0.5 -2.6562,0.4375 0.2188,0.84375 1.125,0.71875 -1.3438,0.90625 -0.9062,0 -0.375,-1.53125 -0.875,-0.625 -0.4376,1.09375 -1.4062,0.28125 0.031,0.9375 1.0313,0.84375 -1.0625,-0.1875 -0.625,0 -0.5938,1.0625 -0.75,-0.0937 1.6876,1.28125 0.875,0 -0.875,0.21875 -1,-0.5625 -0.1876,0.90625 -0.8437,0.53125 -0.4687,-0.375 -0.3126,1.625 -0.8124,0 0.4062,1.71875 -1.8438,0.875 1.4376,-0.15625 0.375,0.875 -0.063,1.3125 -0.625,-0.15625 -1.125,1.09375 0.375,1.28125 1.0313,-0.0312 0.125,0.6875 0,2.125 0.125,2.125 0.9687,1.8125 0.094,2 -0.375,1.65625 1.1875,0.5 -0.9375,1.03125 0,1.125 -1.1875,1.125 -2.75,1.53125 -2.1563,1.71875 -1.625,0.0937 -2.2187,1.28125 -2.5625,-0.0312 -3.4062,1 -2.7813,-0.125 -2.4687,-1.09375 -3.6876,0.0937 -4.5312,-1.96875 -3.0938,0.15625 -10.75,-3.5 -8.5,-3.71875 -7.0624,-2.375 -1.7188,-0.375 -1.1875,-0.5625 -1.0625,0 -0.3125,-1.46875 -0.062,1.78125 1.6562,1 -0.2187,0.9375 -1.1563,0.0937 -1.2812,-1.09375 0,1.21875 1.0625,1.5625 0.9687,0.15625 0.125,0.9375 0.8126,1.09375 -1.0626,0 -0.625,-1.5 -0.625,1.4375 -0.9374,0.4375 1.375,1.8125 -1.125,0.3125 0.062,-1.25 -1.0937,-0.125 1.1563,-1.875 -1.5,-1.40625 -1.0626,1.25 -1.375,-0.0625 -1.0624,1.9375 -2.9063,2.40625 -3.7187,4.6875 -1.5,1.09375 -0.9688,0.28125 0.2188,-1.90625 -1.0626,1.75 -1.2812,-0.0312 -1.0625,1.5 -0.625,1.8125 -0.125,1.71875 -1.1563,0.53125 -0.5,1.9375 -1.5624,0.625 -1.5938,0 -1.4375,0.84375 -1.5937,2.4375 -3.25,0.40625 -1.125,1.03125 -1.4063,2.21875 -2.0313,0.5 -0.875,0.53125 -0.6562,-1.5625 -0.6875,0.9375 -1.2187,0.46875 -0.8438,3.40625 -0.9375,1.46875 0.062,1.625 -0.9688,1.0625 -0.2187,1.5625 -2.0625,0.25 -1.2812,0.8125 -1.8126,-0.0625 -1.125,0.90625 -3.7187,0.8125 -2.0937,2.53125 -2.1563,1.34375 -2.125,0.90625 -0.3437,1.71875 0.5312,1.46875 -1.2812,0.5625 -2.125,0.6875 -1.4688,-0.0937 -1.125,0.9375 -0.625,1.125 -0.9062,0.40625 4.3437,0.9375 0.5,0.75 -1.5937,-0.65625 -0.8126,0.65625 0.094,1 0.8439,0 0.5311,1.0625 -0.5311,0.84375 1.1874,0.0937 0.094,1.0625 0.8438,-0.0937 0.6874,1.5 -1.1874,-0.34375 -0.3126,1.1875 -2.375,-0.5625 0.7813,1.125 0.7187,0.625 1.0626,-0.5625 0.625,0.5625 -0.3438,1.78125 0.5938,0.4375 0.1562,1.59375 0.6562,0.25 -0.062,1.125 -2.2813,0 -0.9375,0.25 1.0625,-2.875 -1.1875,-0.34375 -0.2189,-1.9375 -1.0624,-1.0625 -5.2188,5.59375 -0.2188,1.5 1.4688,0.46875 0,1.34375 1.3125,-1.875 1.9375,1.0625 -0.25,0.75 -1.6562,0 -0.063,0.59375 1.3438,-0.0625 0.062,0.4375 0.875,0.15625 -1.375,0.53125 0.3125,1.0625 1.0312,0.0625 1.3126,2.0625 -0.7813,1.1875 -0.062,2.46875 -1.9688,0 -1.5624,1.65625 -1.7188,0.0312 0.094,1.15625 -0.8438,-0.1875 0.125,-0.875 -1.1562,-0.46875 -0.5938,-1.53125 -0.4062,2.40625 -1.0938,0 -0.3125,0.90625 1.5313,0.9375 -1.4063,-0.0937 -1.4687,-0.375 -0.5313,0.78125 -1.375,0.5 1.1563,0.6875 0.5312,1.1875 1.0625,-0.6875 -0.1875,1.375 -0.7812,1.875 -1.7188,2 -2.0938,1.1875 -1.875,1.71875 -1.7812,0.6875 0.3438,2.125 1.5,-0.0625 1.0312,-0.875 0.9688,-0.125 0.9374,-2.53125 1.4376,-0.9375 1.6562,-1.4375 2.125,-0.59375 0.2188,-1.71875 1,-0.875 2.6874,-0.8125 0.8438,-1.59375 1.5625,0.1875 1.1875,1.25 -1.2812,0.65625 -0.3438,4.5625 0.9688,1.125 1.2187,-0.5625 0.625,0.96875 -2.5625,1.5 -1.1875,-0.78125 -0.031,1.53125 -2.0937,0.875 -1.2813,1.15625 -0.4062,-0.875 -0.9688,1.09375 1.4063,1.03125 0,1.5 -0.6563,1.40625 2.5626,1.28125 0.4062,0.9375 1.5625,0.0312 1.3437,1.0625 0.9063,1.28125 -1.2187,-0.0937 -1,-1.5 -1.3126,1.03125 -2.6562,-0.5 -0.3125,-1.09375 -1.375,0.25 0.3437,2.34375 1.8126,0.0937 -0.031,0.8125 0.9687,1.75 1.375,-1.0625 0.9063,-1.625 -0.125,2.21875 2.0313,0.25 -1,0.375 -1.1563,0.6875 -1.1875,-0.1875 -0.1875,1.53125 -0.6563,0 -0.75,-1.8125 -0.2812,-1.4375 -1.125,0 0,1.28125 -0.8125,0.0625 0.062,1.8125 1.875,0.21875 0,1.09375 1.125,0.0625 -0.9062,0.75 -0.6876,1.5 -1.5,0.375 -1.0624,0.625 0.3437,2 -0.3125,1.375 1.5,-0.6875 -1,1.8125 -0.9688,1.25 -2.875,1.5 1.5938,0.34375 -0.1562,2.65625 -1.0938,0.40625 1.375,1.78125 -2.8438,5.78125 -1.5937,2 -2.3125,1.21875 -0.625,1.8125 -1.4688,1.25 1.0313,-0.15625 2.1875,-1.28125 1.9688,0.0625 0.7812,1.28125 0.875,0.21875 0.4375,0.9375 1.1563,0 0.5937,-1.4375 0.5625,1.28125 1.3125,1.21875 0.1875,1.40625 1.625,0.6875 0.8125,3.28125 0.75,5.96875 -1.25,1.1875 -1.0937,4.25 -0.8438,0.5625 -1.4062,2.9375 -0.9063,0.6875 -1.2813,2.5 -2.1562,2.375 -2.4375,0.0312 -0.4687,0.96875 -1.1563,-1.0625 -2.75,0.40625 -1,-1.40625 -1.3437,0 -0.875,1.09375 -1.6876,0.28125 -1.6562,1.59375 -1.0625,0.0312 -0.375,1.1875 -0.1563,-1.28125 -0.5937,-0.90625 -1.5937,-0.1875 -1.3438,0.125 1.0938,-1 0.9687,0 -0.125,-0.8125 1.1563,-0.6875 1.5937,0.28125 0.5313,-0.6875 -1.75,-0.21875 -0.6876,-0.96875 -1.6561,0.3125 -1.3125,1 -3.125,0.0937 -1.4375,0.9375 -3.3439,-0.15625 -2.0936,1.8125 -1.3437,0.3125 -5.375,4.34375 -3.625,0.46875 -1.5,0.84375 -2.2813,0 -1.9375,1.96875 -0.6875,2.28125 -0.6564,1.0625 1.5939,0.40625 -0.7812,0.625 -0.625,1.75 -1.4063,0.21875 -1.5625,1.71875 -2.75,1.5625 -0.062,2.21875 -1.25,0.28125 1.4687,0.59375 -0.062,0.78125 -0.875,0.71875 0.031,3.40625 -0.9688,0.875 -0.5625,3.28125 -1.7813,0.46875 -1.0625,1.4375 -3.6562,2.5625 0.3437,4.125 -1.6563,3.0625 -4.625,2.65625 -3.5312,4.71875 -4.9688,1.34375 -1.2187,1.125 -1.625,0.40625 1.7813,0.21875 0.4375,1.8125 -1.4687,1.6875 -1.3125,-0.125 -1.6562,1.96875 -1.9688,0.28125 -3.3125,2.59375 -0.5,2.84375 -3.0625,1.09375 -1.9375,1.46875 -3.7813,0.75 -1.4687,0.875 -0.3125,-0.40625 -1.1562,0.8125 -0.5626,3.3125 -1.0312,2.25 -5.25,2 -4.8125,0.6875 -3.1875,0.1875 -2.2812,1.15625 -6.7188,0.34375 -1.2188,2 -0.6874,0.4375 -0.8126,1.84375 -2.1874,1.15625 -1.5,1.5 -1.0626,0.625 0.9688,1.5 1.2188,0.3125 -0.5938,-1.46875 1.0312,0.625 0.8126,0.875 2.2187,0.0625 1.0625,1.375 1.9375,-0.0625 1.75,0.71875 1.9063,1.40625 1.1874,1.78125 0.4376,2.15625 1.25,1.0625 0.3124,2.5625 1.6876,0.4375 1.7187,1.8125 0.9375,1 -1.5625,1.46875 0,1.375 1.0625,0.96875 -0.3438,3.28125 -0.9062,0.53125 0.094,2.03125 -1.1563,0.90625 0.062,0.46875 1.1562,1.09375 0,1.8125 1.0626,0.9375 -0.1876,2.875 0.9376,0.8125 0.3124,11.375 -0.1874,2.125 1.0624,-2.09375 0.031,0.90625 1.125,0.25 0.3437,1.59375 -0.625,1.1875 0.125,1.0625 -1.375,0.65625 0.5,1.28125 -0.25,3.59375 -1.0624,0.21875 -0.1876,0.84375 -0.75,0.25 0.031,0.75 1.0625,1.0625 -0.1562,2 -0.9376,0.25 -0.5312,0.84375 -1.0625,1.03125 -4.3437,0.0312 -3.2188,0.625 -4.8438,-0.96875 -1.2812,-0.84375 -1.5625,-0.3125 -0.875,-1.9375 -0.2187,-2.46875 1,-1.8125 0,-2 1.0312,-0.75 0.094,-1 -1.3438,-0.0625 0.875,-0.78125 0.2812,-0.625 3,0.1875 0.125,0.875 0.9376,0 0.1874,1.46875 0.875,-0.5 0.9376,-1.03125 1.9687,0.15625 -1.875,-0.6875 -0.2813,-0.78125 -1.0937,-0.0937 0,-1 2.0313,-0.1875 1,1.1875 -0.125,-1.90625 -1.0626,0 -1.4062,0.40625 -0.3438,-0.9375 -1.0312,-0.0312 1.5,-0.21875 -0.031,-1.09375 1.2812,0.46875 0.875,-0.75 -0.4062,-1 1.9374,0.125 -0.9062,-1.0625 -1.25,-0.71875 -1.0625,0.3125 0,-2.125 2.1875,-0.78125 -0.2811,-1.375 -2.3439,1.46875 -3.3125,0.0312 -0.75,2.15625 -1.3125,0.8125 -3.7188,-2.96875 0.125,-2.34375 1.5,-0.65625 1.625,-2.09375 -0.4374,-0.21875 -2.375,1.34375 0.125,-2.46875 -1.2188,-0.6875 0.3438,-0.96875 1.8437,-0.3125 -1.9687,-0.90625 -0.5313,-0.8125 -0.375,-1.09375 2.3125,-0.65625 -1.9375,-1.03125 -2.625,0.0937 -1.75,1.59375 -2.1875,-1.0625 -2.375,-2.90625 -1.0625,-2.40625 0.094,-1.90625 -2.4687,-1 -2.125,-2.625 -0.9063,-2.71875 -4.2187,-5 -2.5625,-0.21875 -2.3438,-1.5625 -2.3124,-0.84375 -1.6876,-1.28125 -0.9062,-1.625 -2.0938,-0.875 0.094,-1.5625 1.6875,0 -0.6563,-1.0625 0.031,-1.625 -3.5937,-5.875 -0.5938,-2.03125 -2.3438,-0.21875 -0.8124,-2.09375 -1.3126,-2.28125 -1.375,-1.03125 0.125,-3.25 -1.9687,3.625 0,4.4375 -2.4063,5.0625 -1.9062,3.75 -0.6875,2.25 0.125,3.84375 2,2.09375 5.9687,7.90625 0.9688,5.15625 3.25,7.125 5.75,7.03125 2.3125,5.125 1.8125,6.875 2.6875,5.3125 0.1875,5.1875 -1.3438,1.4375 0.125,4.96875 -2.5937,2.25 -8.125,2.65625 -4.2187,3.875 -2.9376,4.1875 -2.875,5.125 -2,4.03125 -3.4062,3.9375 -2.6561,3.8125 -2.25,3.125 -1.4376,2.78125 -2.1874,1.25 -2.2814,0 -2.75,-1.34375 -2,-3.03125 -1.9686,-3.84375 -2.125,-3.03125 -2,-3.15625 -1.9689,-1.03125 -3.1875,0.84375 -1.875,2.6875 -0.1563,4.59375 1.1563,5.53125 1.0937,2.53125 -0.031,2.8125 -1.4688,2.03125 -7.7812,1.34375 -7.4688,21.6875 2.2813,0.9375 -0.1563,2.375 1.75,0.59375 2.875,2.1875 1.0313,1.5 2.6564,0.53125 1.0936,1.125 0.125,2.5 2.0314,1.59375 1.6561,0.53125 1.0939,2.3125 2.5936,0 1.2187,1.9375 -0.5937,1.625 1.7814,0.8125 1.6874,1.375 -0.9374,1.8125 1.625,1.125 -0.9064,1.5625 -2.2186,0.0312 -0.3126,1.6875 -2.5312,0.4375 2,0.84375 -0.3125,1.71875 -0.7813,2.03125 -1.25,1.28125 1.8438,0.4375 0.375,1.46875 -1.5625,0.84375 1.375,0.9375 1.1875,1.96875 0,-2.25 1.375,-1.5 -0.4375,-1.78125 1.5313,0.53125 0.9374,1.21875 2.9063,0.46875 3.9375,4.6875 1.5938,0.96875 0.5312,2.34375 2.6562,3.8125 0.2813,3.21875 0.9687,0.21875 -0.094,1.71875 -1.6875,0.3125 1.8125,1.0625 -0.031,1.03125 -1.5624,0.46875 2.4062,2 0.125,-1.9375 1.3125,0.15625 1.6563,-0.875 -1.5938,-0.3125 0.062,-2.0625 1.6563,-1.34375 1.7187,-1.90625 -1.1564,2.125 4.25,-0.21875 -0.125,1.875 0.5939,-1.90625 1.5625,0.90625 0.3436,2.34375 2.0939,1.4375 -3.1562,0.15625 0.8437,0.84375 0.5,1.28125 0.125,1.28125 2,-0.4375 0.9063,1.0625 -0.375,1.1875 0.031,1.71875 1.9375,-0.15625 1.875,0.3125 -0.3125,1 1.8125,0.84375 0.3125,1 -1.4375,1.59375 0.062,1.5625 -1.2811,0.6875 0,1.34375 -1.9376,0.4375 -0.062,1.1875 1.625,0.59375 -0.063,1.3125 -1.375,1.40625 0.125,1.34375 -2.5624,1.1875 1.8124,-0.21875 1.2813,2.59375 -0.8437,0.84375 -1.75,-1 0.031,1.1875 -3.4375,0 1.9375,0.78125 0.031,1.34375 2.0313,-0.375 1.75,4.90625 0,4.78125 -1.375,0.40625 -0.2813,2.78125 -3.4062,-3 -2.8125,-0.53125 -0.6563,-3.75 -0.5,3 0.031,4.6875 -1.2813,2.03125 0,3.25 2.6563,2.5625 0.5937,3.15625 2.4063,0.34375 -0.9063,1.46875 1.75,0.875 1.5626,1.8125 1.4061,2.875 1.8125,0.9375 0.2187,1.96875 1.5626,0.5 -0.063,-2.125 -1.75,-3.9375 1.75,1.625 0.6563,2.40625 1.375,2.875 -2.9063,1 -0.3124,2.1875 1.0312,0 -0.094,2.25 2.5626,5.46875 -0.5938,2.84375 2.5,2.6875 3.0312,7.09375 0.5313,-3.125 0.125,2 -0.375,2.46875 -2.3125,3.1875 -1.2812,2.28125 0.094,2.34375 -2.25,1.1875 -1.7813,1.53125 -1.5,0 0.7188,2.8125 -3.8125,1.40625 -1.5313,1.125 0.031,-1.5 -1.0313,-0.5 0.094,-2.125 -1.9375,0.71875 -2.125,1.53125 -0.9687,1.78125 -1.75,0 -1.2813,1.3125 -0.9063,-1.53125 -1.75,0 -1.0312,1.59375 0,3.34375 -1.3125,1.875 0,1.4375 -2.3437,3.84375 2.125,-0.4375 2.2812,0.8125 0.5312,1.34375 0.75,-1.875 0,-1.34375 1.4063,1.09375 1.4375,-1.1875 2.4062,3.6875 2.0938,0 1.9062,1.96875 -1.125,1.375 -1.8437,0.34375 1.4687,0.6875 1.5313,0.34375 -0.094,1.40625 -2.0313,0.71875 0.062,2.125 1.2812,0.34375 0.2188,1.28125 0.5625,1.71875 -0.4063,1.78125 1.5938,-0.8125 0.1875,1.65625 1.4063,1.09375 0,3.1875 -0.7813,1.75 -0.2187,-2.28125 -1.1876,1.9375 0.031,7.28125 -0.3125,2 3.1875,0.125 0.2187,-1.53125 1.2813,-1.78125 2.5625,-0.6875 -2.5625,1.28125 -0.8437,1.96875 0.6562,2.875 -1.5938,-1.625 -1.125,1.3125 -0.7187,1.5 -1.5,0.46875 0.5625,4.1875 1.7812,1.0625 -0.5937,7.28125 0.094,3.9375 2.4063,-0.0312 -1.7187,0.96875 0.5,2.0625 1.3437,-0.6875 0.1875,1.21875 0.25,3.40625 1.25,0.21875 0.25,-1.375 1.375,2.9375 0.9375,1.65625 -0.8437,1.28125 -0.8126,-2.34375 -1.2187,-1.1875 -0.5,2.65625 0,3.96875 1.3437,1.0625 1.2188,-1.3125 1.2812,0.21875 0.2188,-1.5 1.1562,3.1875 -2.3437,0.0937 1.2813,0.6875 1.0312,1.46875 1.5312,1.6875 1.25,2.15625 2.0626,1.625 -2.3438,0 -0.3125,-1.4375 -2.1875,-1.65625 -0.5,-1.375 0,1.59375 -1.8438,0.40625 0.375,5.40625 2.6563,-0.8125 -1.1875,0.84375 -0.125,2.15625 -1.0312,0 -0.3126,2.53125 0.5938,4.375 -0.062,2.34375 -1.5313,0.46875 0.2188,2.4375 1.9062,0.625 -1.7187,0.4375 -0.75,1.34375 -0.8125,2.40625 0.3125,2.875 0.75,0.90625 -0.125,2.03125 1.5,-0.0625 0,0.9375 -2.3125,-0.21875 -1.5,1.40625 -1.1875,0.71875 0.094,1.65625 -1.3124,0.71875 -1.2188,-0.1875 -0.6875,2.4375 -1.2813,0.84375 -0.7187,0.96875 0.5,2.03125 -1.375,0.71875 -0.9375,-0.5 -0.5312,1.28125 -1.4063,1.03125 1.9687,0 0,1.3125 1.7813,0.5 0.8437,0.96875 -1.9374,-0.34375 -0.3126,1.3125 -4.5937,0 -2.0313,-1.15625 2.7813,-0.65625 -1.5625,-3.125 -1.5312,1.34375 0.3124,0.78125 -2.0937,1.5 0,2.6875 0.9687,2 -1.9687,0 -0.5313,1.84375 3.3126,-0.40625 0.8437,-2.90625 0.6875,1.59375 2.875,-0.0625 1.125,-1.65625 -0.1875,1.65625 -2.125,0.625 -0.25,1.34375 -4.4687,1.09375 -0.063,2.90625 1.5938,0.53125 0.5312,-1.375 3.1563,0.375 1.9687,-1.875 1.8126,-1.40625 -1.4376,2.03125 -0.5,1.46875 0.7188,1.375 -1.25,-0.90625 -0.875,-0.0625 -0.9688,1 -1.0312,-0.71875 -0.875,0 0,1.21875 -1.5,1.09375 0,0.53125 7.0625,0 0.5313,-1.0625 0.2812,1.0625 965.7188,0 -1.1875,-2.21875 -2.6562,-2.8125 -0.7188,-3.09375 -1.8437,-1.875 0,-2.71875 1.5,-3.03125 0.875,-4.21875 1.1562,-1.34375 -0.25,-2.90625 -1.25,-1.40625 -0.1875,-3.1875 -0.9687,-1.875 -2.0313,-3.875 -1.5937,-1.25 -0.9688,-2.5625 -2.2187,-1.59375 -1.0625,-1.59375 -1.0313,-1.03125 -0.9062,-4.4375 1.6875,-1.6875 -0.7813,-3.625 1.4063,-2.5625 0.9687,-2.90625 -0.5312,-2.46875 1.25,-0.96875 0.7812,-2.125 0.4375,-4.0625 -0.7812,-1.15625 0,-2.46875 -0.8125,-1.25 -0.7813,-5.21875 1.4063,-0.78125 0,-2.5625 1.5937,-1.40625 0.4375,-4 -1.1562,-6.1875 0.9062,-5.03125 -2.3125,-3.1875 0,-2.125 2.125,-1.9375 0.5313,-2.8125 0.094,-4.6875 -1.875,-1.25 -0.6875,-3.28125 0.5313,-2.09375 0.875,-2.125 5.4687,-5.84375 5.8438,-2.46875 5.4687,-3.96875 4.3438,-5.84375 1.75,-2.65625 0.094,-3.53125 -2.0313,-1.59375 -0.6875,-4.6875 -1.5,-2.75 1.125,-4.84375 1.7813,-2.03125 0.5312,-5.3125 -0.3437,-3.28125 1.5,-2.375 3.0937,-4.25 3.875,-4.21875 3.0938,-1.96875 2.375,-2.5625 3.0937,-1.65625 1.875,-3.5625 -1.9375,-4.0625 -4.875,-4.15625 -1.1562,-3.96875 0.375,-5.125 -0.092,-3.18765 -3.5312,-1.84375 -3.0938,-2.5625 -1.3437,-3 -4.6875,0.0625 -1.5938,0.53125 -1.5937,-1.5 -1.8438,0.0937 -1.5937,-0.96875 -3.3438,-0.0937 -1.5937,1.0625 -2.0313,0 -1.9687,1.34375 -0.4375,-1.59375 -0.9688,-0.4375 -0.9687,-1.25 -2.4688,0 -1.25,1.25 -2.4687,0.15625 -4.25,2.21875 -1.5,2.03125 -2.125,2.125 -1.75,0.0937 -1.5,1.65625 -1.25,1.78125 -2.125,0.25 -0.875,0.90625 -2.6563,-0.4375 -0.9687,-1.15625 -2.375,0.0937 -1.3438,-0.90625 -2.4687,0 -1.0625,-0.875 -2.2813,0 -0.7187,0.625 -1.25,0.25 -1.125,1.15625 -4.25,0 -1.0625,0.8125 -2.4063,0.78125 -0.875,1.5 -1.75,0.4375 -1.5937,1.0625 -2.8438,0.1875 -5.2187,0.4375 -0.7813,-0.78125 -3.0937,-0.71875 -1.6875,-1.25 -2.125,0 -1.6563,1.5 -3.2812,0.625 -2.125,1.34375 -2.6563,1.125 -1.5,-0.53125 -2.125,-1.40625 -1.6875,0.1875 -1.5625,1.84375 -3.0312,1.34375 -0.6875,0.78125 -3,0 -3.0313,-1.21875 -2.7187,0 -2.9376,-1.15625 -4.5,-0.71875 -1.4062,-0.78125 -1.875,0 -0.875,-0.90625 -0.875,0 -1.1563,0.71875 -2.375,0.78125 -1.6875,-1.3125 -4.3437,0.0937 -1.4063,-1.34375 -1.5,-0.34375 -1.31245,-1.59375 -1.34375,0 -0.6875,1.0625 -2.9375,0.53125 -1.21875,-1.40625 -3.46875,-0.34375 -2.71875,1.40625 -2.40625,0.78125 -0.96875,2.21875 0,1.59375 -3.4375,1.6875 -3.53125,3.25 -2.84375,1.59375 -1.59375,1.9375 -1.84375,-0.34375 -1.3125,-2.46875 L 966.0603,630 l -1.6875,-2.65625 -2.03125,0.34375 -1.875,1.9375 -3.09375,0.0937 -0.96875,0.71875 -67.34375,-84.9375 -3,0.15625 -1.59375,-1.125 -3.28125,0.4375 -3,-0.625 -2.28125,1.5 -1.6875,1.3125 -3.09375,1.34375 -3,0.0937 -2.84375,-2.5 -3.4375,-0.78125 -3.375,-1.78125 -2.71875,0 -2.84375,-1.03125 -1.59375,0.96875 -1.9375,-1.15625 -1.9375,-2.90625 -2.375,-1.25 -1.875,-2.375 -4.3125,-0.28125 -1,0.71875 -3.4375,-1.59375 -2.8125,-0.71875 -5.3125,-0.34375 -2.125,0.875 -3.625,0.34375 -0.875,1.0625 -4.15625,-0.34375 -2.03125,0.8125 -2.46875,1.5625 -3.03125,1.15625 -1.65625,1.875 -2.75,0.78125 -2.125,0.875 -1.59375,2.03125 -2.28125,0 -3.46875,1.15625 -2.375,-0.4375 -0.78125,-0.96875 -2.125,0 -0.90625,-2.03125 -1.59375,-2.21875 -1.75,-0.53125 -0.875,1.15625 -5.40625,0.625 -4.34375,0.6875 -5.5625,-1.3125 -2.03125,0.96875 -0.96875,0.8125 -1.5,0 -0.53125,-1.53125 -1.40625,0 -1.15625,-1.0625 -2.75,0 -1.65625,1.15625 -2.03125,0.53125 -1.0625,-1.40625 -2.75,-0.53125 -2.125,2.125 0,-1.15625 -3.625,-1.21875 -0.96875,1.21875 -1.15625,0.1875 -1.3125,-1.5 -1.0625,0 -0.625,-1.78125 -3.1875,0.28125 -1.21875,-0.90625 -0.90625,0.375 -0.15625,1.21875 -0.8125,0.8125 -0.96875,0.6875 -1.59375,0.375 -0.53125,-0.71875 -1.3125,-0.625 -2.21875,-2.28125 -0.875,0.0625 -1.0625,-0.78125 -1.78125,0 -1.59375,1.84375 -2.03125,0.8125 -1.9375,1.6875 -2.5625,1.125 -2.8125,-0.78125 -2.125,-0.34375 -0.90625,1.5 -2.625,0.15625 -1.34375,0.625 -1.0625,-1.15625 -2.71875,0.0937 -0.46875,-0.875 -3.25,0 -0.8125,-0.875 -1.84375,-1.15625 -11.9375,-20.59375 0.34375,-7.0625 -0.875,-1.0625 -0.25,-2.40625 -0.625,-0.34375 -0.375,-1.59375 -1.3125,-0.34375 -0.25,-1.6875 -2.03125,-0.625 -1,0.8125 -1.40625,0.0625 -1.15625,0.8125 -2.375,-0.28125 -2.125,0.8125 -1.15625,0.25 -4.75,-0.875 -4.15625,-0.0937 -1.4375,-1.0625 -0.6875,-1.65625 -0.96875,-1 -0.0937,-3.78125 -2.3125,-1.6875 -0.0625,-2.21875 -0.625,-2.46875 0.15625,-2.03125 1.25,-0.25 0.1875,-1.15625 -1.59375,-1.0625 0,-1.40625 -0.625,-0.625 -0.1875,-4.0625 -1.15625,-1.15625 0.1875,-4.6875 0.8125,-0.875 0.34375,-4.875 0.96875,-2.8125 0,-1.78125 1.0625,-0.6875 0.1875,-2.125 0.78125,-0.53125 -0.0937,-4.15625 -1.40625,-0.8125 -0.25,-1.3125 -1,-0.8125 0.625,-1.9375 0.875,-0.875 0,-1.59375 0.8125,-0.25 0.34375,-0.8125 1.34375,0 0.59375,-0.71875 0,-0.875 2.5,-0.6875 2.5625,-1.6875 0.25,-4.34375 -0.6875,-3.25 0.78125,-3.625 0.4375,-0.46875 0.625,-5.5625 -1.15625,-0.78125 0,-2.46875 -1.15625,-0.46875 -0.0625,-1.03125 -0.8125,-0.1875 -0.4375,-0.8125 0.78125,-0.6875 0.46875,-0.96875 0.96875,-2.125 -0.0937,-2.75 -0.96875,-1.15625 0.34375,-2.8125 -1.21875,-1.0625 -0.71875,-0.8125 0.0937,-0.78125 -1.4375,-0.34375 0,-1.15625 -19.78125,-19.53125 0.1875,-1.34375 -1.34375,-1.125 -0.625,0.15625 -1.21875,0.53125 -0.375,-1.15625 -0.6875,-0.25 -10.09375,-43.84375 -1.125,-0.4375 0,-2.5625 -1.25,-0.0937 0,-1.9375 -1.6875,-0.34375 -0.53125,-0.71875 -0.96875,-0.1875 -0.1875,-0.78125 -3,-0.8125 -2.03125,1.78125 -1.5,0 -0.625,0.4375 -0.34375,1.5 -1.59375,0 -0.625,0.875 -2.03125,0.46875 -1.65625,-1.34375 -1.59375,-0.4375 0,-1.0625 -1.34375,-0.875 -0.0937,-1.34375 0.8125,-0.0625 0,-1.53125 1.0625,-0.875 0.15625,-1.6875 -0.96875,-0.53125 -1.0625,-1.03125 -0.0625,-2.21875 -0.90625,-0.71875 -0.6875,-1.6875 -0.71875,-0.0625 0.625,-1.96875 -0.71875,-2.03125 -1.84375,-0.875 -0.4375,1.0625 -1.6875,0.4375 -0.625,0.96875 -0.78125,1.34375 -1.0625,-0.28125 -1.15625,0.34375 -2.65625,1.53125 0.0937,0.53125 -1.40625,1.5625 -1.4375,1.15625 -1.21875,0.0937 -0.96875,1.3125 -1.78125,0.53125 -0.78125,0.8125 -4.59375,0.34375 -7.25,0.4375 -1.15625,0.90625 -1.84375,-1.15625 1.40625,-4.6875 1.84375,-2.75 0.875,-3.96875 2.0625,-4.15625 2.28125,-3.8125 0.96875,-3.25 2.84375,-2.125 1.59375,-3 2.1875,-4.0625 2.40625,-3.1875 3,-2.03125 3.09375,-2.9375 1.75,-5.1875 1.59375,-2.75 2.3125,-3.625 1.15625,-4.6875 2.8125,-3.625 1.25,-2.03125 2.125,-1.78125 1.125,-1.40625 0,-2.375 -2.03125,-1.59375 -0.59375,-2.21875 -0.8125,-2.28125 -0.78125,-2.3125 0.34375,-2.375 0.625,-2.5625 1.9375,-3.09375 0.78125,-2.3125 1.34375,-2.03125 0.96875,-2.21875 0.625,-0.6875 0.0937,-2.65625 0.96875,-1.15625 0.0625,-6.28125 -1.3125,-1.3125 0.34375,-5.03125 0.8125,-1.34375 1.15625,-3.78125 1.9375,-2.125 2.125,-2.03125 1.75,-3.09375 2.03125,-1.25 1.15625,-1.75 0.71875,-2.3125 0.78125,-1.0625 1.59375,-0.625 0.8125,-2.125 1.40625,-1.5 0.625,-2.5625 0.96875,-1.75 2.28125,-4.96875 3,-6 2.5625,-4.9375 3.1875,-6.125 2.125,-6.53125 1.875,-3.71875 1.9375,-6.09375 3,-5.5625 2.21875,-3 2.71875,-4.25 3.1875,-3.09375 3.96875,-1.84375 2.75,-1.0625 3.375,-0.8125 2.5625,-2.125 7.0625,-1.3125 27.21875,-48.875 29.96875,-8.84375 25.96875,-9.53125 1.46875,-0.59375 -0.71875,-1.90625 1.4375,0.375 0.6875,-1.5 0.15625,0.90625 2.0625,0.1875 0.96875,-1.375 -0.96875,-1.53125 1.46875,-0.1875 0.0312,-1.0625 1.15625,-0.21875 0,-1.46875 -1.5,-0.53125 -0.65625,-1.4375 -1.78125,-0.15625 1.6875,-1.28125 1.3125,0.8125 0.375,-1.40625 0.4375,1.21875 1.59375,0.96875 1.5,-0.78125 0.125,-1.65625 3,-2.5625 3.21875,-1.125 2.09375,-2.09375 3.40625,-0.625 2.25,-1.125 0.53125,-2.21875 1.1875,-0.5 0.53125,-1.0625 -0.8125,-1.65625 0.0625,-2.65625 -1.5625,-2.96875 -2.40625,-2.90625 -2.09375,-4.90625 -1.3125,-0.96875 -0.96875,-3.03125 -0.46875,-1.9375 -1.09375,-1.15625 -0.53125,-1.625 -0.6875,-1.3125 -2.65625,-2.40625 -2.03125,-0.96875 -1.375,-1.59375 -2.03125,-0.59375 -1.15625,1.125 0.125,-0.90625 -1.21875,-0.3125 0,-1.28125 -2.5625,-0.90625 -1.34375,0.71875 -0.4375,-1.5 -3.1875,0.1875 -2.34375,-1.125 -2.90625,-2.1875 -3.8125,-1 L 743.7478,2.25 740.71655,2 739.59155,2.875 736.6853,2.75 732.9353,0.40625 730.27905,0 z"
     id="rect4" />
  <path
     style="fill:#003893;stroke:none"
     d="m 153.8103,828.25 0,0.65625 2.5938,1.625 0.125,1.90625 1.9687,2.25 -0.4687,-2.09375 2.0937,-0.90625 -0.3125,-1.21875 1.0625,-2.21875 -7.0625,0 z m 7.875,0 0.031,0.1875 0.5626,2.40625 -1,0.8125 -0.063,1.53125 2.125,0.96875 0.1876,1.34375 1.4062,0.5625 1.7188,-1.1875 3.4687,-1.625 -2.6563,1.53125 -1.0312,1.34375 -1.375,1.40625 -0.031,-1.0625 -2.4688,-0.65625 -1.125,-1.03125 -1.2188,1.5625 1.8438,1.5 1.1875,2.71875 1.2813,0.0625 0.375,2 2.875,-0.0937 -0.5938,1.75 0.9688,1.65625 0.7187,1.71875 1,-1.5625 1.125,0 0.1875,-3.03125 1.9375,-1.03125 0.4375,-3.40625 1.3125,-0.96875 -0.094,-2.375 1.4374,-1.5 1.1876,0.21875 0.875,-1.46875 1.8124,0.4375 -0.031,-1.5 -1.0625,-1.0625 -1.8125,-1.09375 1.75,-0.875 -0.125,1.40625 1.125,0.4375 1.1875,1.46875 0.6563,1.125 1.1874,1.15625 0.5313,-1 0.9687,0.125 0.094,0.78125 4.2812,0.5 -3.0312,0.125 -0.4062,1.28125 0.125,1.625 -1.4063,0.1875 0.5313,1.8125 -1.1563,0 -0.125,0.71875 -2.4375,0.125 2.5625,0.25 -0.1875,1 1,-0.15625 1.0938,0.84375 -0.9376,1.0625 -0.3124,1.875 -0.2188,-2.75 -1.4375,-0.8125 -0.094,0.90625 -0.8126,0 0.063,1.125 -0.6876,1.0625 -2.4687,0 0,-0.65625 1.2813,0.21875 -0.2188,-1.21875 1.5938,-1.125 -1,-0.78125 -4.8438,1.0625 0.1875,1.90625 -2.0625,0.21875 2.5625,0.4375 -1.7813,1.15625 0.063,0.90625 -1.125,0 0,1.96875 1.1874,0.28125 0.375,0.8125 1.4376,-0.71875 1.25,-0.15625 0.625,2.5625 -2,-0.71875 -0.8438,1.90625 -1.3125,0.15625 1.2187,0.71875 0.6876,2.25 1.125,-0.34375 0.6874,0.84375 2.1876,1.53125 0,-1.5 2.625,-0.3125 4.1562,0.375 1.2812,-1.4375 2.4063,-0.15625 0.7187,-1.6875 0.7188,-0.8125 1.5938,0.375 2.2812,-0.59375 -1.1562,-1.8125 0,-3 -1.8126,0.53125 -1.625,2.1875 1.3438,-3.34375 1.5,0.0625 1.8125,0.46875 -0.094,3.46875 1.4374,1.1875 -0.031,-1.78125 3.4062,-0.125 1.4688,0.5 -2.8125,0.15625 0.7813,1.875 2.7187,1.3125 -2.2813,-0.0312 -1.25,-0.75 -2.0624,0.34375 -0.375,1.28125 -1.375,0.21875 -1.8126,1.375 0.1876,1.0625 2.6562,1.1875 -1.4062,0.125 -3.0938,-0.78125 0.2188,2.59375 -1.25,-1.4375 -1.8438,-0.8125 -1.125,1.6875 -0.875,0.875 -0.4688,2.21875 2.7813,-0.9375 0.9063,0.625 1.3437,-1.5 -0.625,1.53125 1.5937,1.6875 -1.3124,-0.53125 -1.125,1.0625 -1.1563,-0.46875 -1.1875,0.8125 2,1.15625 -0.125,0.9375 -1.9688,-1.46875 -1.2187,-0.0937 -0.8125,-1.84375 0.8125,4.125 -1.0313,0.90625 0.3126,2.625 -1.8126,0.21875 1.4688,0.375 0.8438,0.9375 1.5,-1.59375 0,-2.78125 1.1562,0.75 1.1875,-1.84375 2.0313,-0.3125 0.5312,-1.15625 0.1562,2.03125 1.7813,0.53125 -1.7813,0.4375 -0.875,2.3125 -0.125,-2.6875 -2.75,1.21875 -0.4687,2.46875 -2.6563,1.28125 -1.5,-0.0312 2.375,1 1.9376,-0.75 0.094,1.03125 1.9375,-2.03125 -0.875,1.375 2.8438,1.28125 -0.6876,1.1875 -1.8437,-1.625 -0.5313,1.84375 -1.3124,-1.8125 -2.5626,0.0312 -1.4687,1.15625 2.2187,0.0625 0.75,1.4375 -2.0312,0 0.031,1.34375 -1.7812,0.75 -0.1562,2.6875 -1.6876,0 -0.3124,1.375 -0.25,-2.15625 -2.4063,-0.8125 -1,1.5 -0.062,1.71875 -1.2188,-0.0312 -1.1874,-0.5 -0.375,1.25 0.094,1.5625 -1.375,0 -0.1563,0.875 1.75,-0.3125 1.0938,0.75 -0.4688,-1.6875 1.1876,0.1875 1.5624,-1.375 1.2188,0.1875 1.2812,1.84375 1.1563,0.0312 0.9375,2.09375 -0.1875,1.90625 -1.5937,-3.09375 -0.9376,0 -1.3124,-2.3125 -1.8438,1.0625 1.3125,0.3125 -1.4687,0.5625 0.3124,1.59375 -3.6562,-1.3125 -0.9375,0.625 2.6563,1 1.7187,1.1875 -1.0937,0.53125 -1.4688,4.65625 -0.75,-1.46875 1.5,-2.5625 -0.7812,-2.1875 -3.5,-0.6875 -0.2188,1.0625 -1.5938,1.125 -0.7812,1.21875 1.875,0 0.9375,1.5 1.8437,0.0625 -1.3124,0.65625 0.125,3.9375 -1.375,0 -0.75,1 0.8124,-2.28125 -2.2187,2.59375 1.1563,1.78125 0.1874,1.1875 0,0.75 -1.5,-2.46875 -0.1562,-2.40625 1.7188,-1.9375 -0.031,-2.65625 -0.875,2.34375 -1.5937,0 -1.2813,0.90625 0.094,1.40625 -0.375,1.40625 -0.75,1.78125 1.375,0.15625 -0.031,2.09375 -0.4062,2.96875 -0.1876,-0.90625 -1.5,0.90625 0.125,-1.125 -0.875,-1.0625 -1.5937,0 1.7187,-0.84375 1.25,0.9375 0.875,-2.375 -1.3124,0.46875 -1.0938,-0.875 -1.4688,1.1875 -1.25,1.46875 -1.5312,-0.0625 -0.1875,1.46875 2.0937,1.25 1.8126,1.59375 2.2812,0.28125 1.0312,0.90625 -1.25,0.34375 -1.6874,-1.25 -1.2188,0 -2,-1.34375 -0.7188,0 -0.375,1.625 -0.75,-3.1875 -0.625,2.125 -1.4062,0.96875 -1.9062,1.5 0.094,0.84375 -1.375,1.25 -1.5,0 -1.0313,1.9375 0.8438,0.96875 1.625,-1 1.75,1.09375 1.625,0.21875 0.6875,1.375 1.8125,-2.78125 0.6875,0.4375 2.375,-1.8125 1.625,-1.40625 1.125,-0.5 0,1.9375 1.8437,2.3125 -0.125,0.5625 0.4063,1.78125 -1.4687,-1.28125 -1.2813,0.375 0.9687,-1.84375 -1.0624,-1.15625 0,-1.40625 -1.75,1.28125 -0.25,1.5625 -1.0938,-0.375 -1.8125,0.375 -0.031,1.75 -1.25,-0.21875 -0.75,1.1875 0,0.625 1.2813,-0.75 -0.3437,1.1875 1.2812,0.96875 -1.1562,0 0,1.5 -0.5,1.78125 -0.4376,-2.375 -0.75,-0.1875 -0.6562,-1.46875 -0.9688,-0.34375 -0.7187,2.46875 -1.0625,0 -1.875,1.5 1.3438,0.875 1.7812,-0.5625 0.1875,1.34375 1.4063,0.75 1.0624,-0.84375 0.3126,1.5 1.0624,1.625 1.2813,0.28125 0.3125,1.59375 -1.0312,-1.125 -1.625,0 -0.8438,-2.4375 -2.5312,-0.59375 0.094,1.75 -1.6875,0.75 0.9375,-0.84375 -0.031,-2.5625 -1.8124,-0.15625 -0.6876,-1.75 2.4063,-1.65625 0.4375,-1.8125 -1.0312,-2.1875 -0.875,1.59375 -1.5938,1.75 -0.3438,2.3125 -2.2187,1.65625 -0.2187,1.90625 -1.3126,0.90625 -0.375,-1.21875 -0.7812,2.9375 -3.3125,3.09375 -1.5937,0.90625 1.3124,1.09375 -1.4374,1.5 1.8437,-0.21875 0.625,1.0625 1.75,-2.65625 1.0625,0.71875 0.5938,1.21875 1.4062,-1.96875 1.9375,0.40625 1.1563,-1.4375 1.5624,-0.6875 0.1563,-2.625 0.125,1.8125 0.1875,1.40625 1.5,0.40625 0.062,1.25 -2.0937,-0.84375 -1.25,0.71875 -3.1563,0.65625 -1.2813,1.75 -1.0624,0.1875 -0.6563,-1.25 -1.5313,1.15625 -3.6562,-0.40625 0.2188,-2.6875 -1,1.15625 -1.0313,0.53125 0.8125,1.6875 -1.25,1.21875 0.1875,1.59375 -1.6875,0.75 -0.8125,1.40625 -1.5313,0 1.4688,1.0625 1.125,0.84375 0.1562,-1.96875 1.2813,-0.46875 0.8125,-3 0.75,0.75 0,1.6875 2.75,-1.15625 1.5938,0.71875 1.1874,0.84375 -3.1874,-0.3125 -2.5,1.1875 0.4374,2.125 1.5,-1.46875 -0.031,1.34375 1.5312,2.0625 2.25,1.5 -1.125,1.5625 0,-1.5 -3.0624,-2.3125 -1.0626,2.03125 -0.2187,-2.875 -1.0313,1.125 -0.7812,2.375 1.1562,1.40625 -2.3437,-1.21875 0.125,2.59375 1.2813,0.625 1.1562,1.53125 1.0938,-0.875 0.4062,-1.3125 1.5312,-0.0937 1.75,0.875 1,1.6875 -2,-1.375 -1.4374,-0.625 -0.7188,1.78125 -2,0.5625 -1.5625,-1.28125 -1.5625,1.28125 0.125,1.375 2.4688,1.25 -1.2188,0.46875 -2.0938,1.59375 1.5938,-1.84375 -1.5938,-0.8125 -0.6874,-1.3125 -0.375,1.9375 -1.2813,0 -0.5313,1.40625 -1.625,0.3125 -1.3124,1.78125 3,-1.25 0,1.71875 2.8124,0.0937 1.25,-0.4375 2.4376,-0.34375 -0.4063,1.625 -0.625,1.3125 -0.5313,-2.03125 -1.4062,0.90625 -0.875,1.1875 -1.2812,-1.1875 -1.5626,0.53125 -0.1562,1.53125 -1.4375,-1.53125 -1.2187,-0.0625 -0.9376,1.15625 1.0626,-0.40625 1.7187,1.375 0.3125,0.96875 -1.4062,-0.625 -0.2188,1.46875 -1.8125,-1.09375 -0.8125,1.59375 -1.5312,1.125 1.2812,0 1.5,2.3125 0.75,-1.3125 1.5,0.5625 -0.031,-0.9375 3.375,0.0625 -3.0313,0.6875 -1.5625,1.125 -1.6562,0.46875 0.062,0.75 0.7188,0.75 2.0938,0.0937 -0.375,1.25 -1.9376,-0.96875 0.031,1.8125 -1.8437,0.96875 0.4062,-1.78125 -0.9062,-1.25 -0.375,-1.09375 1.2187,0.125 0.625,-1.34375 -1.625,-1.8125 0.031,2.03125 -1.4063,-1.875 -2.4687,0.0625 0.125,1.28125 -1.0938,-1.5 1.0938,3.125 -2.0626,-2.90625 -1.4374,1 -1.2813,0.8125 2.5625,0.125 1.6562,2.875 -2.875,-2 -0.9687,0.40625 -1.0625,-0.9375 -1.125,0.65625 -1.2188,1.34375 1.8126,-0.375 0.031,1.03125 2.7812,0.75 -2.7812,-0.1875 1.2812,3.5 -0.75,0.84375 -0.4062,-2 -1.0625,-2.15625 -1.2813,-0.0937 -0.1562,1.6875 1.7188,0.71875 -1.3438,0.125 -0.6875,2.0625 0.2187,-1.9375 -0.9374,-1.53125 -1.7188,0.46875 -1.0938,-3.09375 -1.0312,1.25 0.5312,2.25 -0.75,0.875 -0.5312,-1.9375 -0.875,-0.5625 0.031,-2.1875 -0.9062,1.5 -0.1562,2.84375 -1.5938,0.53125 -0.75,1.3125 0.062,1.0625 -1.1563,-1 0.031,1.625 -1.4063,0.34375 -1.1562,0.84375 0.5,-1.53125 0.9688,-0.21875 0.4062,-2.5 2.7188,-1.21875 -0.063,-1.8125 0.2188,-1.59375 -1.125,2.03125 -1.75,0 -0.875,0.71875 -1.2188,2.34375 -1.0624,-1.46875 0.4062,-2 -1.4688,0.21875 -0.5937,-1.1875 -0.094,2.15625 -1.3438,0.28125 0.8125,1.625 0.094,0.90625 0.375,1.03125 1.5938,-1.125 1.0625,0.21875 -0.125,1.40625 -1.4063,-0.3125 -1.25,1.25 2.3126,-0.0625 0,1.03125 -4.375,0.5625 1.3124,-2.5625 -0.4687,-0.9375 -1.375,-0.25 0.875,-4.5625 -1.1875,0.28125 -2.0938,3.25 -0.4374,2.3125 0.5312,-4.46875 1.1562,-0.96875 0.9376,-2.125 -1.125,-0.96875 -0.3438,-1.84375 -1.0938,-0.59375 -0.062,1.5625 -1.9063,0 -0.2813,1.1875 -2.0624,-0.0312 -3,1.03125 1.7187,0 -0.4687,1.375 1.3124,2 1.0313,0.78125 -1.3437,0.1875 0,0.9375 -2.4063,-0.1875 -1.125,1.40625 1.6875,0.90625 -0.3125,1.125 0.9687,-0.0625 1.8126,0.3125 3,-0.5 -4.4376,2.4375 -0.5,-0.71875 -0.75,-0.625 -2.375,1.375 0,-0.9375 1.4376,-1.21875 -0.5313,-0.84375 -1.4063,-1.25 -0.5624,1.28125 -0.6876,-1 0.5938,-1.375 -1.125,-0.25 0.1875,-1.96875 0.75,1.5625 1.375,0.5625 -0.2187,-1.625 1.6874,-0.1875 -0.625,-1.375 -0.094,-2.5 -1.0937,-0.9375 -0.2188,1.28125 -2.5,0 -0.3438,0.875 -1.8437,0 -1.125,1.21875 -0.5625,1.125 1.9375,0 0.2187,1.15625 1.3438,-0.5625 -0.6875,0.625 0,1.34375 1.2813,1.21875 -1.3438,-0.28125 -1.2812,-1.25 -0.8126,0.25 0.2188,1.5 -1.7188,1.5 0.6563,1.1875 1.25,-1.375 0.7187,1.5 1.2188,-1.8125 0.9375,-0.4375 0.031,0.4375 1.7812,0.0937 -0.625,1.25 -0.5,0.34375 -1.3438,-0.59375 -1.2812,1.125 -0.062,1 0.875,0.96875 1,-0.90625 -0.2187,1.4375 -0.9063,0.90625 -1.2187,-1.0625 -0.5938,-1.40625 -0.1562,-1.125 -1.5938,0.34375 -0.9062,-1.9375 1.7812,-1.375 0.031,-1.625 -1.2812,-0.34375 -0.6875,-1.34375 -1.3437,0.625 -0.5313,0.9375 0.3125,-1.6875 2.4375,-0.25 0.031,-2.34375 -0.6563,-0.0625 -1.0937,1.375 -1.7188,-0.4375 -0.062,0.78125 -1.5,0.46875 -0.7813,1.28125 -1.1562,0.8125 1.25,0.6875 1.0938,-1.4375 0.094,1.28125 1.375,-0.0312 -1.9687,0.1875 -0.6876,1 -0.9062,0.625 -0.031,2.6875 1.8124,1.6875 0.5313,1.9375 1.625,-0.3125 1.7187,-3.03125 0.6876,1.0625 1.5,0.375 -2.1876,1.59375 -1.1874,1.25 -1.8438,-0.0625 0.1875,1.0625 0,0.53125 -1.4687,-1.1875 -0.7188,1.6875 -1.8125,-1.09375 1.6875,0 0.2188,-1.5625 -0.125,-2.03125 -1.25,-0.875 -1.4063,1.1875 -0.031,1.71875 -1.5624,0.96875 -0.5,-0.15625 0.5624,-0.625 0.75,-2.03125 1.9376,-1.96875 -0.125,-2.46875 1,-1.59375 -1.6876,-1 -1.3124,1.0625 0.2187,1.28125 -2.2187,0.25 0.6562,1.59375 1.8125,0.3125 -2.0625,0.28125 -1.375,1.28125 -2.0625,2.34375 -0.062,2.1875 -1.5938,0 -1.875,1.34375 -2.3124,2.34375 -1.625,1.3125 c 0,0 0.3427,0.6679 -0.1876,1.375 -0.5303,0.7067 -1.0312,0.71875 -1.0312,0.71875 l -1.3125,1.1875 1.625,0.0312 2.4063,-0.9375 1.7187,-1.65625 -1.4687,2.40625 -0.875,2.125 -1.0626,-1.625 -1.4062,0.9375 -2.1875,0.6875 -1.4063,1.9687 2.5313,-0.7187 -0.3125,1 0.9375,0.7187 -2.0937,0.125 -0.6563,2.3438 -1.625,1.6562 -1.375,2.0313 0.4687,1.5937 0.5938,1.2813 1.0625,0.3437 0,1.4063 0.875,1.5625 -1.5,1.875 -0.2187,1.6875 -0.9688,-1.2188 1.2812,-1.9062 -0.3124,-1.6563 -0.8126,-1.3437 -0.8437,-2.8438 -0.6875,2.3125 -0.7188,1 0.5313,2.3125 0.094,0 -1.6874,1.0938 -1.2813,1.9062 2.4063,1.0938 2.5937,0 0.4063,1.7812 -1.4688,-0.8125 -3.3438,-0.4375 -1.8124,1.5625 -0.2813,1.875 1.4687,-1.0937 0,1.4062 2.4376,-0.4375 0,1.7813 1.6562,0.3125 1.2188,1.3125 -1.5938,-1.0938 -0.8125,0.4375 -2.0313,-0.5625 -0.4687,1.0938 0.9687,-0.094 0.6563,1.1875 -0.2813,2.6875 1.5626,0 0.031,1.75 -1.625,0.9063 -0.1875,0.9375 2.5313,-0.9688 -0.2188,1.4063 2.125,0.3125 -3,-0.094 0,2.9687 -1.5,0 0.5312,2.25 0.875,0.4375 0.5626,0.9063 0,-1.6563 2.0937,0.094 0.25,-3.5312 0.5,1.5937 1.9063,0.094 -0.063,1.4375 1.875,0.5312 0,1.6563 -1.4687,0 0.125,1.875 -1.1563,0 1.5,0.8437 0.2813,1.9688 -0.2813,1.875 1.9688,-0.875 1.1875,0.5625 1.0937,2.4375 -0.7812,1.8125 0.4688,2.0312 -1.2188,0 0,2.25 -1.25,0.062 0.094,1.5313 1.8124,-0.4375 0.4063,1.375 -0.9063,1.375 -1.6562,-0.2188 -1.375,1.9063 1.3125,0.8125 -0.6563,0.9375 -1.9062,0.75 -1.4688,-0.25 -0.4687,1.375 -0.125,-2.8438 1.8125,0 -2.125,-1.4062 -1.0625,0.125 0.6563,-2.0313 -2.1563,0.125 -0.9063,-0.4062 -0.5937,1.6875 -1.4687,0.062 -0.4376,-1.2188 -0.1874,1.0625 -3.4063,0.2188 -1.5937,-1.4063 -1.125,2.1563 -0.094,-1.4063 -1.125,-0.125 0.094,-1.6875 -0.375,-1 -1.6876,2.1875 -1.25,-1 -0.9687,0.4063 -0.031,-1.125 -2.9687,0 -0.5625,-1.75 -1.0625,1.1875 -1.5937,0.1875 -1.1563,1.5 -2.0313,0 -1.125,2.4062 -3.4687,2.6563 -2.0313,0.9375 -0.5312,1.9375 -1.875,1.9375 -1.5938,1.0312 0.063,1.7188 -1.1876,1.4687 -2.1874,1.625 -0.3126,1.3438 -1,1.2187 0.3438,1.8125 0.625,-1 1.25,0.75 -1.0312,0.5625 0,1.5938 -1.1563,-1.5625 -1.4063,-0.1563 -0.094,2.0625 0.4375,1.0313 2.0312,0.2187 1.5938,0.875 0.2188,1.3438 2.2187,-0.094 0.5313,1.4063 1.4062,1.2812 1.0312,-1.0625 0.5313,1.0938 1.75,0.9062 0.6875,1.5938 1.2812,-1.6875 1.5313,0.031 2.1563,1.1563 -1.125,1.375 1.375,0.094 -0.063,1 1.5,0.1875 -0.3124,1.4688 -1.2813,0.031 -0.3125,2.0312 1.6562,-0.2187 0.8438,1 2.375,1.7812 0.875,-1.9062 0.6875,1.6875 2.1563,-0.1563 -2.9063,1.0313 1.6875,1.5 1.625,0.625 2.2188,2.5 1.1562,0.031 -0.25,0.9687 2.6562,1.8438 0.7813,1.0625 1.6875,1.3437 2.8125,4.3125 3.4687,0.5313 2.9063,3.7187 5.0313,3.5313 5.5,0.7187 2.375,1.9375 2.375,0.5313 2.5,2.6562 0.062,1.8438 4.1563,4.4375 2.125,0.6875 2.9375,2.75 2.7188,0.1875 3.9062,0.9687 3.0938,1.75 1.8437,1.4375 0.4375,2.1875 2.0312,1.875 3.2813,0.5313 1.1563,0.875 0.6874,2.4687 2.8438,0.7188 2.0312,1.5 2.2188,0.625 2.5625,2.4687 1.2187,2.125 2.8438,2.2813 1.9375,0.2812 3.1875,1.75 3.9688,0 3.1874,1.1563 1.5938,0 2.0312,-0.9688 4.9376,-1.4062 4,-1.4375 3.1562,-0.1563 1.4375,-1.0625 3.25,-0.094 1.6875,0.9688 1.5,0.1875 0.875,1.8437 1.25,0.8125 0.1875,2.4688 -1.25,1.0625 0,1.0625 -1.75,1.9375 0,2.0312 2.9063,1.8438 2.5624,3.2812 4.1563,1.7813 3.1875,1.9375 3.9688,1.0625 1.75,1.5937 0,1.0625 -0.7813,0.5938 -0.25,1.3437 -1.7813,1.1563 0,1.5 0.875,0.9687 0,1.9375 3,3.3438 1.4376,2.2187 -0.2813,3.7188 1.9375,2.3125 1.4375,0.25 1.5937,1.8437 1.125,1.25 3.1876,-0.094 0.625,-0.9687 2.3124,-0.3438 3.5938,1.0625 1.4375,1.3125 2.2813,-0.3437 3.7187,0.7812 -0.094,0.9063 0.8124,0.4375 1.5938,-1.1563 2.2812,-0.2812 1.1563,-1.5 2.8125,-0.6875 4.1562,0.5312 1.5938,1.75 2.5625,1.875 3.0937,0.3438 1.7813,1.9375 4.7813,0.2812 0.3437,1.2188 1.5937,1.7812 2.6563,0.5313 1.2187,2.4687 3,0.1875 3.5626,-2.2187 2.625,-0.094 1.5312,1.875 2.2812,-0.2812 1.5938,-1.25 -1.0625,-0.7813 -1.0625,-0.5312 0,-1.5 2.4688,-0.5313 1.3437,1.0625 5.0313,-0.094 1.6874,1.1562 2.8126,-0.1875 2.4062,1.9375 1.0312,1.7813 -0.6874,1.7812 2.75,0 2.0312,-1.1562 4.0625,0.094 1.8437,-1.1562 3.7188,-0.4375 4.3125,0.3437 0,-14.5937 1,0.4375 1.125,-0.5 0.7187,-1.5313 1.1563,0 1.5,2.4063 2.6563,-0.1875 0.094,-0.875 -1.4375,-0.4375 0.1875,-0.9688 1.25,-1 2.2813,-1.9375 1.1562,-0.3437 2.0312,2.6562 2.6563,0 1.6563,1.8438 2.3124,0 2.125,2.125 1.2188,0 0.375,-2.2813 0.9688,-0.094 1.1562,1.9375 1.3125,0.094 1.5937,2.6563 -0.7187,0.7812 1.5937,0.8125 1.875,-0.9062 1.0626,-1.6563 1.6562,0.6875 -0.3438,1.875 1.1563,1.5 1.8437,-0.5312 -0.1562,-1.7813 1.125,-0.3437 1.3438,2.1875 -0.094,3.8125 0.7812,1.5937 1.25,0.625 0.7813,2.0313 2.0625,1.8437 -1,1.5938 1.25,1.3437 1.9375,0.1563 1.5937,2.0312 0.4376,2.6563 1.9687,0.1875 1.9375,1.9375 1.5938,-1.1563 1.75,0.8125 1.5,1.5 -0.4376,1.75 2.5626,1.875 5.6562,1.5 2.8438,1.6875 5.6562,-0.625 1.3125,1.3125 2.0313,-1.2187 0,-1.4375 1.4062,-0.9688 2.8438,1.1563 0.3437,2.4687 1.5937,0.625 1.9376,2.6563 1.9687,0.1875 1.75,1.9375 4.25,0.25 1.4375,1.7187 26.5,0 0.1562,-0.125 0,-1.5937 1.3438,0 0.7812,0.7187 2.3126,0.094 -0.25,0.9062 509.9687,0 0,-57.9375 1.53125,0.2813 0.59375,-0.875 1.0625,0 0.96875,-1.5313 0,-0.7812 1.15625,-0.094 0.625,-1.1562 0.0937,1.3437 0.96875,0.625 0.96875,0.6875 1.3125,-1.3125 1.875,0.25 0.25,-0.9687 1.6875,-0.9688 5.46875,-0.1875 2.65625,0.5313 2.65625,-0.1563 1.59375,-0.2812 0.625,-1.125 1.15625,0 0.59375,-0.9063 1.5,-0.094 0.28125,-1.125 0.25,-1.0625 1,-0.2813 0.15625,-1.3125 1.15625,-0.2812 0.25,-1.3125 1.53125,0 0.4375,-0.5313 1.59375,-0.5312 0.53125,0.7812 1.125,0.8125 1.34375,0.7813 0.53125,0.8125 0.875,0.1562 0.78125,1 0.8125,-1.0625 1.5,-0.094 0.53125,-1.3437 2.3125,-1.5 0.6875,-1.3125 0.34375,-0.9688 1.59375,-0.094 1.15625,-1.25 1.34375,0.094 0.34375,-1.0625 0.1875,-1.1562 1.5625,0 0.90625,-0.4375 1.21875,0.2812 0.375,-1.25 0.6875,0 0.28125,1.875 1.21875,1.3125 0.625,0 0.1875,1.1563 0.96875,0.3437 0.71875,1.1563 1.21875,1.5 0.8125,-0.5313 0.53125,0.625 0.875,1.8438 0.625,0.5312 0.53125,1.7813 1.0625,0.9687 0.59375,0.6875 0.90625,-0.25 -0.0937,-1.0625 0.96875,0 0,-1.5 1.40625,-0.094 1.875,-0.875 0.875,-0.5312 0,-1.0625 1.15625,0.5312 0.15625,1.2188 -0.53125,1.3437 0.0937,1.75 0.96875,0 0.71875,0.625 1.15625,0.5313 0.6875,0.4375 1.6875,-0.062 0.0937,-1.1563 1.59375,0 1.0625,-0.625 -0.8125,-0.7187 0.1875,-0.6875 0.96875,0.3437 0.1875,-1.0625 1.84375,-0.9687 0.875,0.7812 2.3125,-0.4375 1.25,0.9063 0.25,0.875 1.3125,-1.3438 -0.53125,-0.875 2.125,-0.875 -0.78125,-1.25 -1.0625,-1.9375 -1.25,-0.875 -0.15625,-1.875 -1.34375,-0.3437 -1.75,-0.1875 -1.15625,-1.5938 -0.1875,-1.0312 1.0625,0 0.53125,-1.1563 1.40625,-0.375 1.0625,-0.5312 -0.0625,-1.9375 -1.25,-0.625 0,-1.2188 -0.96875,-0.9687 -0.875,-1.7813 0.78125,-0.3437 0.34375,-1.5 0.90625,0.25 0.875,-0.25 -0.1875,-0.7188 0.8125,0 0,-1.5 1.125,-0.625 0,-0.6875 -1.3125,0.3438 -1.3125,-0.9688 -1.34375,-0.2812 -1.15625,-1.0625 -0.53125,-0.875 -0.59375,0.094 -0.4375,-1.25 1.5,0 1.5625,-0.9688 0.46875,-1.3125 -1.25,-1.0625 -0.71875,0.4375 -0.875,-1.0625 -1.5,0 -0.0937,-1.3125 -0.96875,-1.7812 1.0625,-1.4063 -0.25,-1.6875 -1.78125,-0.5312 -0.34375,-1.4063 -0.8125,-0.094 -0.34375,-1.1562 -1.15625,0.094 -1.40625,0 -0.875,-0.7813 -2.5625,-0.2812 -0.71875,-1.0625 -1.25,-0.9688 -1.75,0.094 -0.96875,0.7813 -1.15625,-0.4375 -0.53125,1.0625 -1.59375,0.2812 -0.625,0.5313 0.28125,0.7812 -1.25,0.875 -1.15625,-0.062 -1.40625,-1.0625 -0.71875,0.062 -0.59375,-0.6875 0.59375,-0.7187 -0.78125,-0.4375 -0.78125,-0.875 -2.9375,0.625 -0.625,-0.625 -1.65625,0.875 0.34375,0.4375 -0.78125,0.625 -3.1875,0 -0.8125,0.7187 -1.65625,-1.1562 -1.875,0 -0.4375,-0.625 0.78125,-1.25 -1.65625,-0.5313 -0.8125,-1.3125 -1.15625,0.7188 -1.75,-0.5313 -1.0625,1.125 0.25,0.7188 -1.40625,0.1875 -0.625,0.6875 -1.0625,0.094 -0.875,-0.9687 -1.3125,0 -1.15625,-0.625 0.96875,-1.125 -0.53125,-1.6875 -2.125,-0.375 -0.53125,0.625 -3.09375,0.1875 -0.625,1.3125 -1.5,0.375 -0.15625,1.125 -0.90625,1 -0.4375,1.4062 -1.3125,1.2188 -1.25,-0.4375 0.0937,-2.0313 -1.3125,-0.1562 0,-61.8125 2.90625,0.1875 1.59375,-0.25 1.15625,0.3437 0.875,-0.875 1.5,-0.094 1.25,-1.0625 0.78125,-1.1563 1.78125,0 0.53125,0.8125 1.0625,0 1.125,0.875 3.53125,-0.094 1.0625,-0.625 1.0625,0.2813 0.96875,-1.0625 1.78125,-1.3438 2.03125,-0.6875 1.34375,0.1563 -0.0937,-1.0625 0.625,-0.5938 0.4375,-1.0625 1.84375,0.875 1.25,1.1563 1.125,-0.7188 1.53125,1.3438 2.09375,0.6875 1.96875,-0.25 1.0625,0.6875 0.53125,0.625 2.1875,-0.3438 0.96875,0.5313 0.96875,-0.094 0.53125,0.875 1.4375,0.4375 1.0625,-0.25 0.59375,0.4375 0.90625,1.3125 0.6875,0 117.99995,0 -0.1562,-1.9375 -1.4375,-0.25 -0.5938,-1.3438 -1.25,-0.5312 0.094,-1.9375 -2.125,-0.25 -0.3437,1.2187 -1.5938,0.094 -0.5312,-0.875 -1.3438,0 0.9688,-0.875 0,-1.0625 0.8125,0 0.625,-1.875 -0.8125,-1.4062 -1.2188,0.7812 -2.0312,-0.7812 0,-1.5938 1.0312,0 0.4688,-1.5937 0.7812,-1.0625 0.1875,-3.5313 1.2188,-0.625 -0.3438,-2.8125 1.25,-1.0625 0.5313,-1.1562 0.5937,-0.25 0.7188,-2.0625 1.9375,1.5937 3.5312,2.0313 4.25,2.3125 4.9688,5.4687 5.375,5.6563 4.25,3.4687 4.3125,2.6563 3.1875,0.7812 2.0312,-1.8437 0.375,-2.4063 -1.1562,-2.4687 1.4062,-5.8438 3.375,-2.1875 3.0938,-2.3125 2.2812,-2.2187 4.0625,-0.9688 4.1563,0 3,-1.75 12.2812,-11.4062 2.2188,-0.7188 4.3437,-5.6562 0.5313,-1.5 1.75,-0.4376 2.75,-0.7187 2.75,0.375 4.5937,2.8125 2.125,3.7188 0.5938,4.1562 -1.5625,3.7188 0,4.6875 2.0937,8.375 5.0625,8.6562 4.3125,4.625 6.1875,9.1875 3,8.5625 1.7813,6.625 1.9375,4.5 1.4062,5.125 0.2813,10.875 -1.4063,1.9688 0.1563,2.0937 0.9062,1.0625 0,7.25 1.125,3.1875 3.0938,0 16.625,-4.8437 0.094,-1.1563 -1.4063,-1.5937 0,-4.1563 1.5938,-2.125 0,-1.8437 0.7812,-0.9063 -0.1875,-1.5 -0.5937,-0.7812 -0.094,-2.5625 -3.0938,-2.375 -1.4062,-2.5938 -1,-1.125 -0.1563,-1.5 1.0625,-0.5312 0.3438,-3.625 -1.0625,-1.4375 -1.5,-1.8438 -0.5313,-3.2812 -1.5937,-1.8438 -1.4063,-5.125 -2.0312,-3.0937 -1.6875,-4.9375 -2.6563,-7.625 -1.2187,-2.125 0.25,-3.6875 -0.875,-2.5 -1.5938,-2.4688 0,-3.625 -2.0312,-3.1875 -1.6875,-1.9375 -0.094,-2.4687 1.1562,-1.25 0.5313,-6.7188 -0.9688,-2.0312 -1.7812,-1.2188 -0.5938,-1.25 -3.2812,-0.6875 -1.5938,-1.7812 -1.0625,-2.7501 -0.7812,-0.875 0,-2.0312 -0.8125,-0.875 -0.625,-2.9375 -0.5313,-2.0313 0.094,-3.9687 1.5938,-0.9688 0.625,-1.9375 0.7187,-0.5312 -1.1562,-2.0313 -1.6875,-1.4375 -3,-4.6562 -3.375,-1.15625 -2.125,-2.9375 -1.75,-2.03125 -0.7188,-1.0625 -1.0625,-2.5625 -4.0625,-4.59375 -3.875,-2.71875 -3.375,-3.375 -1.0625,-2.5625 -1.75,-1.21875 -1.0625,-1.6875 -2.8437,-0.625 -1.5,0.875 -1.4063,-1.0625 0.1875,-1.9375 -1.25,-1.75 -0.7187,-1.59375 -0.4375,-2.125 -0.6875,-0.8125 -0.375,-2.46875 -1.4063,-1.84375 -1.25,-0.71875 -0.5937,-1.15625 -1.3438,0.0937 -0.094,1.34375 -0.7812,0 -0.7188,0.96875 -1.75,0 -0.5312,-1.15625 -2.9063,0.0937 -1.5312,-1.15625 -1.5,-0.0937 -0.5313,-0.96875 -3.5312,0.0937 -0.7813,0.96875 -3.0937,0 -2.2188,0.875 -0.9687,0.8125 -1.4063,0.53125 0,-4.25 46.0313,-40.84375 0.2812,-2.125 1.2188,-1.65625 0.5312,-1.34375 1.5938,-1.3125 1.6875,-1.15625 0.875,-1.78125 0,-1.21875 0.9687,-1.15625 0.625,-1.84375 -1.3125,-1.0625 -0.625,-3.09375 -1.9375,-2.21875 -3,-1.15625 -1.7812,-1.3125 -1.0625,-1.875 -0.7188,-4.84375 -1.125,-1.9375 -1.1562,-1.78125 -0.625,-3 0,-2.5625 -1.3125,-2.65625 -1.1563,-1.3125 -0.4375,-2.5 -1.1562,-1.9375 -1.1574,-2.9064 -1.5938,-2.5625 -1.5937,0.34375 -1.125,1.6875 -2.125,0 -1.7813,1.5 -2.7187,0 -1.25,-1.59375 -1.8438,-1.40625 -0.2812,-2.75 -0.9688,-1.6875 -0.8125,-5.21875 -2.0312,-2.09375 -1.0625,-3.1875 -0.3438,-3.28125 -1.5,-5.3125 -1.25,-2.03125 0.8125,-2.71875 -0.094,-2.75 -1.8437,-0.875 0.3437,-2.21875 -0.2187,-0.4375 -965.7188,0 z m -100.5625,159.28125 0.6875,0.15625 -2.5938,2.5625 1.5626,0 0.031,1.375 -1.5,1.5 0.1875,2.3125 -2.1875,0.21875 1,-0.75 0.2812,-2.03125 1.4376,-1.90625 -1.4688,-0.21875 0.9375,-1.1875 0.1563,-0.8125 1.4687,-1.21875 z m -3.9687,8.21875 -4.1563,3 1.6875,-2.96875 2.4688,-0.0312 z m -4.2188,3.09375 -1,1.90625 0.875,0.2812 0.062,1.2188 2.1563,-1.0625 -0.625,0.875 -1.2813,0.8437 -0.625,2.0313 -1.2813,-0.031 0.7188,-1.3438 -1.2812,-1.9062 0,-1.125 2.2817,-1.68755 z"
     id="rect6" />
  <path
     style="fill:#ce1126;stroke:none"
     d="m 356.8103,1242.375 1.75,2.0938 2.7188,0.3437 3.0312,2.0313 3.6875,-0.3438 1.875,2.2813 6.3437,-0.1563 2.3126,-1.25 1.8437,-2.4687 2.9375,-2.5313 -26.5,0 z m 30.8438,0 -0.094,0.4063 1.75,1.25 1.25,-0.8125 1.3125,1.5937 2.5625,-0.1562 0.8125,2.0312 2.2813,0.7813 3.375,2.8437 2.625,1.0313 0.9062,1.6875 2.7188,1.4062 0.2812,1.875 3.1875,2.2188 1.75,0 2.75,2.1875 0,1.4375 1.7813,0 0.875,-1.5938 2.5624,-1.5 0.5313,-2.125 -0.9687,-0.7187 1.1562,-1.0625 1.75,1.875 2.375,-0.1875 1.5938,0.6875 0.7187,3.375 1.5,1.6875 -0.875,1.9375 1.5937,1.0625 0,1.6875 2.2813,0.25 -2.5625,1.4062 0,1.1563 1.6875,0.875 0.7187,2.125 2.9063,0.1875 0.9687,1.0625 1.0626,0.094 0.9687,1.75 2.2187,-0.625 -0.7187,-1.0313 0,-1.5312 1.4063,2.2187 1.875,-0.094 2.5624,1.1563 -0.4374,1.7812 1.75,1.125 1.5,-0.062 1.5937,2.625 -1.0625,0.1875 0,2.2188 2.4062,0.4375 1.5938,2.125 1.8438,-0.1875 3.0937,1.4062 1.1563,-0.6875 2.1874,1.6875 -1.125,0.875 -0.1874,1.6875 2.5624,0.4375 1.0626,1.6563 -0.3438,2.6562 2.0312,2.5 0.875,0.062 0.7188,1.25 -1.6875,0.5313 0,2.5625 2.0313,2.0312 1.4062,0 1.0625,1.8438 -1.2187,0.4687 -1.3438,1.9375 -2.375,0.25 -0.094,1.6875 1.7813,0.625 1.2187,2.2813 3.5313,1.1562 1.6875,3.9063 5.4688,2.9062 -2.0313,0.3438 -0.7813,2.3125 1.1563,1.9375 -1.1563,0.625 -2.125,-1.5938 -1.25,-0.625 -1.5,1.5 2.0313,0.9688 -0.1563,1.5937 3,2.125 0,3.625 1.2188,0.625 0.4688,2.9063 3,1.6875 0.5312,2.2187 2.2812,-0.094 0,-1.1562 2.4063,-0.5313 1.4063,0.2813 2.8124,3.6875 2.0313,-0.5938 2.75,0.7813 0.094,1.8437 1.5938,0.1875 0.25,-1.5 1.25,-0.625 0.094,-2.4687 -1.9376,-0.9688 1.3126,-2.0312 1.7812,0 0,2.1875 1.3125,0.8125 -0.2813,4.4062 1.25,0.8125 0.8126,2.8125 1.0312,0.094 1,-2.8125 1.0625,-0.375 2.625,1.3438 -1.9375,0.7812 0.5312,2.6563 1.7813,0.094 0.6875,-1.3438 1.9688,-0.062 2.5624,1.8438 0.6876,3.8125 2.4062,2.125 -0.094,2.5625 3.9688,2.9062 2.0312,-0.625 2.375,0.8125 0.625,1.5625 1.875,-0.5937 0,-4.9688 0.875,-0.094 0,-1.6562 2.2813,2.375 -1.0313,0.3437 0.5313,2.3125 2.1875,0.875 1.25,-1.8437 0.7812,0 0.625,1.4062 2.5626,0 2.5624,2.75 0.875,3 1.3438,0 0.6875,2.4688 1.9687,0.094 0.6876,-1.8438 0,3.5313 1.1562,2.4687 1.7812,0.25 0.063,0.9063 -0.7813,0.5937 -0.25,1.7813 -3.0937,1.25 -0.1876,1.125 4.5,0.5312 1.1563,3.2813 2.4687,0.1875 2.0313,2.1875 -1.4063,2.125 1.4063,1.25 1.875,-0.1875 -1.3437,0.9687 -0.094,1.9688 -1.3125,0 -0.2813,1.3125 2.4063,1.1562 1.2187,-0.9062 1.0626,0.8125 -2.6563,2.9062 -1.125,-0.4375 -1.5,1.4063 0.875,0.9062 -0.1875,3.6875 -1.3125,0.5313 -1.3437,2.0312 -1.5,-0.25 -0.25,1.9375 2.2812,1.4063 1.6875,2.0625 1.7813,-0.625 3.9687,2.125 0.1875,2.1875 1.5625,0.8125 0,1.8437 2.21875,-0.5312 0.96875,-2.375 1.4375,-0.094 0.0625,1.8437 2.9375,1.5 1.65625,1 -0.15625,1.125 1.75,0.375 0.625,-2.3125 2.40625,-1.75 0.4375,-2.0312 2.71875,1.0312 0.375,1.25 1.0625,0 0.59375,-2.125 2.125,0 -0.0937,-1.3125 2.125,2.125 -1.3125,1.0625 2.21875,1.5 1.84375,-0.4687 1.6875,1.4375 1.59375,1.3125 -0.53125,1.7812 -2.21875,0 0,1.2188 2.03125,0.2812 0.34375,1.5938 2.3125,0.1562 0.78125,2.0313 1.25,-0.7813 0.1875,1.4063 -1.6875,2.2187 -1.34375,0 -0.0625,1.3125 1.9375,0.4688 -0.1875,2.625 -2.125,1.25 -0.15625,1.5 1.59375,0.7187 -0.46875,1.6563 1.78125,1.3437 0.96875,-0.4375 0.53125,1.9375 -1.0625,1.25 -1.3125,-0.094 0.53125,1.75 2.46875,0.094 0.1875,1.3438 2.375,0.25 -0.71875,1.5 -2.65625,0.094 -0.34375,2.0312 -2.21875,1.25 0.46875,3.3438 -2.21875,0.1875 -2.03125,2.2812 -1.875,0.1875 0,1.8438 1.0625,0.8125 0,1.75 2.75,1.1562 1.59375,2.8438 -0.96875,2.0312 2.03125,2.1875 2.125,0.2813 3.09375,2.75 1.21875,1.5 1.25,-0.094 -1.25,-5.75 1.15625,-0.1875 2.3125,3.5312 1.9375,0 1.40625,1.6875 3.8125,-0.625 0,0.625 -1.0625,0.1875 -1.25,2.125 1.875,2.5625 1.40625,0.4375 0.4375,3 -1.25,1.1563 1.4375,1.1562 1.59375,-1.875 2.625,-0.5312 1.4375,-0.625 3.34375,0 2.03125,-2.1875 2.84375,-1.7813 0.34375,-2.2187 1.5,-0.062 1.78125,1.75 -1.15625,1.25 1.59375,1.3125 1.9375,-1.2188 1.25,-2.5625 2.125,-0.5312 1.5,1.125 -0.53125,1.1562 -1.3439,0.3438 0,2.125 1.40625,1.1562 1.96875,0 0.53125,-2.125 1.65625,-0.5312 0.625,-2.8125 0.90625,-0.375 0.96875,-1.8438 2.625,-0.5312 1.875,2.125 3.625,0.1875 2.5625,2.8125 5.03125,-0.625 1.40625,1.5 3.46875,-1.3125 0,-1.5938 1.125,-0.1875 2.75,3.2813 0.34375,2.2187 -1.5,1.2188 1.15625,1.0625 1.40625,-1.0625 2.03125,0 1.15625,-2.0313 2.46875,-0.3437 1.34375,-1.0625 1.5,0 1.6875,2.125 1.5,-1.0625 -0.0937,-2.2188 -1.25,-0.3437 1.0625,-1.1563 2.40625,0.7188 -0.71875,1.1562 1.84375,0.7813 2.3125,-1.1563 -0.34375,-1.3125 2.46875,1.4063 0.15625,2.0312 1.59375,-0.4375 1.59375,-2.3125 -1.21875,-0.875 2.125,0 1.65625,-2.0312 4.59375,-4.4063 0.53125,-2.3125 1.96875,-0.1562 0.78125,1.5 2.3125,1.6562 1.84375,-0.5937 3.625,1.8437 -0.96875,1.3125 1.59375,0.2813 1.84375,-2.75 -0.34375,-2.375 -1.875,-0.3438 1.5,-1.25 1.59375,0 0.71875,-1.7812 1.6875,-1.2188 1.84375,0.3438 0.34375,-1.6875 1.25,-1.9375 -0.625,-1.75 1.4375,-2.6563 1.84375,-1.4375 3.53125,-1.2187 2.125,-3.4375 2.21875,-1 2.5625,-2.375 2.28125,1.0625 -0.96875,2.375 -1.3125,2.0312 0.59375,3.0938 1.96875,0.375 1.3125,-1.7813 1.59375,-0.25 1.84375,-1.4375 2.0625,0 0.34375,1.4375 c 0,0 1.1358,1.3964 1.3125,1.75 0.1768,0.3538 2.5625,0.094 2.5625,0.094 l 2.5625,1.6875 7,0.094 -0.28125,1.9375 -1.40625,0.4375 c 0,0 -0.1875,3.8026 -0.1875,4.1563 0,0.3535 1.5,0.875 1.5,0.875 l 1.34375,3.1875 2.125,-1.7813 -1.4375,-5.0312 1,-1.5938 1.75,1.7813 1.59375,-1.0625 1.5,1.5 -1.6875,1.3125 0,0.8125 1.78125,-0.094 2.90625,2.125 -0.875,1.5 -1.59375,-0.094 2.21875,3.2812 -0.4375,1.6875 1.5,1.125 1.9375,-1.2187 1.9375,0.4375 0.8125,-1.7813 2.65625,-1.4062 2.03125,-2.2813 1.21875,-0.1875 2.125,1.75 1.25,-0.6875 2.71875,-0.2812 1.59375,1.5 2.65625,0.625 1.40625,1.25 -0.875,2.0312 2.75,0.25 1.59375,-1.6562 1.9375,-0.625 0.625,-1.9375 -2.3125,-1.6875 -0.625,-3.375 1.15625,-2.1875 3.09375,-0.2813 1.78125,-2.125 2.71875,-0.094 2.5,3.1875 2.28125,-1.125 0.53125,-1.5312 -2.03125,-1.4063 0.1875,-3 3.4375,-0.875 2.21875,2.9063 1.40625,0 0.96875,-0.7813 3.625,-0.375 0.625,-1.5937 2.125,0 1.3125,2.125 1.25,-0.25 1.59375,0.9687 -2.03125,0 -0.8125,1.4063 0.28125,1.875 2.03125,0.062 1.75,1.25 -0.4375,1.25 2.375,0 1.78125,-1.4375 1.0625,1.0625 1.25,0.9687 -0.1875,1.25 2.65625,1.5 3.09375,0.2813 2.1875,1.9375 0.625,1.75 -1.0625,-0.1563 -1.21875,0.6875 1.21875,2.125 2.3125,0.375 0.875,-0.7187 -0.34375,-0.9688 1.15625,-1.0625 1.59375,1.3125 0,1.4375 -1.59375,0.6875 -0.28125,1.4063 0.96875,3.4687 1.9375,1.8438 2.3125,0.094 2.3125,-1.5 0.53125,-2.3125 -0.90625,-2.0313 -1.21875,-0.9687 0,-1.5938 1.59375,0.625 2.46875,2.375 1.75,0.8125 -0.0625,1.6875 2.375,1.75 3,-0.5312 0.4375,-1.5938 1.78125,2.6563 -0.96875,2.125 1.75,2.0312 2.84375,-0.25 2.375,-2.5 3,-0.9687 4.0625,1.1562 0.53125,1.5 -3.25,1.875 -3.53125,0.4375 -1,1.5938 1.25,2.0312 1.40625,1.0625 2.125,0 1.875,-1.5312 2.375,-1.125 3.34375,0.4375 1.59375,1.4062 -0.34375,3.9688 1.40625,0.5312 0.625,2.5625 1.40625,0.625 1.34375,-1.4062 1.84375,0.7812 1.5,2.2188 -1.21875,1.3437 0.6875,1.6563 3.09375,-0.3438 1.34375,-3.0937 2.46875,-1.5 1.6875,2.0312 -1,2.125 0.28125,4.1563 1.59375,0.875 -62.9375,103.1563 c 2.3865,0.7071 3.375,1.8437 3.375,1.8437 l 1.5,0.7187 0.53125,1.8438 0.78125,1.25 1.78125,0.7812 1.125,-0.3437 0.46875,-0.7187 0.6875,0.4374 3.375,-0.3437 1.125,1.3437 0.46875,1.125 -1.6875,-2.0312 -2.40625,0 -1.3125,0.5312 -0.53125,1.5 0.78125,0.625 -1.03125,0.625 1.75,0.4376 0.625,0.875 1.75,0 0.8125,0.625 1.15625,-0.875 -0.96875,-1.0626 0.59375,-0.9687 1.0625,0.3437 0.625,-0.7812 0.8125,1.0625 3.6875,0.1563 1.0625,-0.4376 1.78125,0.5313 1.21875,-0.7813 0.8125,-1.1562 1.84375,-1.0625 0.90625,-1.6875 1.0625,-0.625 2.09375,-0.5938 1.34375,-2.2187 1.15625,-0.094 0.96875,1.1562 1.59375,-0.7188 2.65625,0.094 1.84375,0 -0.0937,0.625 -4.59375,-0.094 -3.09375,0.2813 0.1875,1.0313 -1.6875,0.7187 -1.25,1.5 -2.125,0.1875 -0.34375,1.0625 -1.75,1.8437 -0.71875,0.094 -0.875,1.0625 1.21875,0.5313 0.71875,1.25 1.5,-0.375 1.3125,1.0624 1,-0.625 0.875,0.9063 1.15625,0.062 0.59375,-1.0312 -0.875,-1.875 0.8125,-1.9376 0.875,1.0626 0.96875,-1.4063 0.875,0.25 1.25,-1.9375 0.78125,1.0625 2.3125,1.3125 0.875,-1.2188 -0.0937,-1.3437 1.78125,0 -0.0937,-1.6875 -1.15625,-1.2188 0.8125,-0.8124 0.34375,0.9687 1.3125,0 1.6875,1.3437 0.8125,0.25 -1.15625,-0.1562 -0.71875,0.3438 -0.875,0.2812 0,1.2188 1.3125,0.9687 0.1875,0.7187 1.6875,1.4063 0.25,1.25 1.34375,0 0.875,0.6875 0.71875,1.1562 0.875,0.3438 0.78125,-1.125 -1.59375,-1.0625 0,-0.9687 -0.875,-0.9063 -1.15625,-1.3125 -1.21875,-1.5 0.0937,-1.1562 0.59375,1.1562 1.0625,0.9688 1.34375,1.9374 1.3125,0.875 0.28125,1 1.125,1.125 -0.4375,1.5 0.8125,1.1563 0.53125,0.875 0.875,1 -0.25,1.2187 0.25,1.4063 -0.78125,0 -0.625,1.1563 0.0937,2.3124 0.875,0.7813 1.40625,0.7187 1.0625,0.6876 0.625,-0.6876 -0.625,-1.3437 -0.25,-1.5 1.0625,1.5937 1.3125,0 2.125,2.6563 1.75,2.125 2.40625,1.7813 0.625,1.125 0.34375,1.6874 1.3125,0.625 0.8125,1.75 1.5,0.375 1.15625,1.5 1.3125,2.2813 0.875,1.3437 0.71875,0.875 1.59375,2.4688 49.21865,-266.4057 -0.53125,-1.5937 -1.40625,-0.875 0.1875,-0.9688 1.5,-0.9687 0.96875,-1.7813 0,-3.0937 -1.0625,-2.5625 1.25,-0.6875 0.53125,-1.5938 1.21875,-0.625 0.875,-0.9687 2.0625,-1.4063 0.34375,-2.6562 -0.625,-2.8438 -0.875,-0.9687 0.0937,-2.2188 -1.0625,-1.6562 -0.8125,-0.5313 -0.0937,-2.8437 -0.4375,-0.625 0.71875,-1.0313 0.0937,-1.9687 0.6875,-0.625 0.625,-2.0938 1.3125,-1.6875 0,-3.1875 -1.40625,-1.5937 -0.625,-1.2188 -1.3125,-1 0,-1.125 0.34375,-1.3437 -0.34375,-2.5625 -1.5,-2.2813 -2.3125,-1.5937 -1.21875,-0.8125 -0.71875,-1.6563 -1.9375,-0.9062 -0.625,-1.0625 -1.15625,-1.125 -0.6875,-1.9688 0.78125,-1.4062 -1.15625,-1.4063 -0.96875,-3.4375 -1.84375,-1.0625 -0.34375,-1.4375 -1.34375,-0.9687 -1.15625,-0.4375 -0.15625,-1.5938 -1.34375,-0.5312 -0.96875,-1.3125 -1.40625,-0.8125 -0.4375,-3 0.96875,-0.25 0.625,-1.25 1.59375,-1.5 0,-1.8438 1.125,-0.9062 1,-1.5938 0.5,0 0.46875,-1.4062 -1.25,-0.9688 -0.0937,-1.5 -1.21875,-0.875 -0.71875,-1.3437 0.53125,-2.7188 -0.53125,-1.0625 0,-1.9687 -1.0625,-0.5313 0,-2.7187 -1.5,-0.9688 -2.125,-2.3125 -1.9375,-0.5312 -2.65625,-0.094 -1.3125,-0.7813 -1.96875,-0.094 -1.3125,-1.5937 -1.15625,-1.3125 -1.6875,-1.4375 -0.78125,-1.125 -1.15625,0 -2.375,-0.625 -0.96875,-1.25 -1.0625,-0.7813 -0.53125,-1.875 -1.875,-0.5312 -1.5,0.4687 -2.1875,-0.625 -2.21875,-0.1875 -1.59375,-2.6562 -1.5,-1.1563 -1.59375,-2.1875 -2.46875,-1.0625 -1.59375,-1.6875 -0.875,-3 -0.71875,-0.625 -0.0937,-5.9062 -2.21875,-1.875 0,-8.0938 -509.96875,0 z"
     id="rect8" />
</svg>
